<?xml version="1.0" encoding="UTF-8" standalone="no"?>
<svg
   xmlns:dc="http://purl.org/dc/elements/1.1/"
   xmlns:cc="http://creativecommons.org/ns#"
   xmlns:rdf="http://www.w3.org/1999/02/22-rdf-syntax-ns#"
   xmlns:svg="http://www.w3.org/2000/svg"
   xmlns="http://www.w3.org/2000/svg"
   height="73.551064"
   width="71.048172"
   id="svg454"
   version="1.1"
   viewBox="0 0 71.048173 73.551064">
  <metadata
     id="metadata458">
    <rdf:RDF>
      <cc:Work
         rdf:about="">
        <dc:format>image/svg+xml</dc:format>
        <dc:type
           rdf:resource="http://purl.org/dc/dcmitype/StillImage" />
        <dc:title></dc:title>
      </cc:Work>
    </rdf:RDF>
  </metadata>
  <defs
     id="defs4">
    <style
       id="style2">.cls-1{fill:#164194;}.cls-2{fill:none;stroke:#1d71b8;stroke-miterlimit:10;stroke-width:0.2px;}.cls-3{fill:#444d9b;}.cls-4{fill:#e30613;}.cls-5{fill:#2f52a0;}.cls-6{fill:#4565ad;}.cls-7{fill:#5c79bb;}.cls-8{fill:#748fc9;}.cls-9{fill:#1d1d1b;}.cls-10{fill:#878787;}</style>
  </defs>
  <g
     transform="matrix(0.16078385,0,0,0.16078385,0,-0.00915564)"
     id="Marianne">
    <path
       style="fill:#164194"
       id="path6"
       transform="translate(-70.32,-87.45)"
       d="m 338.21,317 c -8.82,8.82 -16.5,76.52 -16.5,88.37 0,7.85 1.86,2.39 2,1.19 4.75,-42.71 13.83,-75.41 15.89,-81.7 3.06,-9.36 15.92,-11.05 21.6,-12.12 5.68,-1.07 12.09,-1.61 20.14,-8 7.05,-5.59 5.39,-13.18 2.39,-16.86 -2.42,-3 -4.34,-4.17 -1.77,-7.81 2.57,-3.64 4,-6.26 4.17,-10.55 0.17,-4.29 -3.82,-5.95 -5.41,-6.12 -1.59,-0.17 -4.79,1.59 -1.16,-2.05 3.63,-3.64 3.2,-7.45 2.75,-8.78 -0.45,-1.33 -5.67,-5 -7.72,-6.92 -2.44,-2.34 -6.12,-4.88 -2.39,-10 5.32,-7.35 5.77,-11.27 5.68,-14.29 -0.14,-4.53 -13,-7.54 -20.85,-11.71 -7.64,-4.08 -19.79,-8.07 -21,-21.73 -1.21,-13.66 -2.22,-19.43 -13.31,-32.74 -11.09,-13.31 -16.76,-16.42 -19.16,-17.39 -2.4,-0.97 -0.35,-2.75 1.24,-4.35 1.59,-1.6 3.2,-3.37 2.4,-5.5 -0.8,-2.13 -8.7,-1.42 -11.36,-1.24 -5.5,0.37 0.8,-3.64 0,-10.29 -0.5,-4.19 -4.7,-8.79 -14.1,-16.06 -9.4,-7.27 -25,-12.07 -37.44,-12.64 -37.52,-1.74 -55.36,8 -72.13,17.83 -16.77,9.83 -19,20.63 -20,27 -1,6.37 -4.88,13 -4.88,13 h 7.89 c 14.46,-34.78 46.4,-43.65 72.49,-46.49 21.57,-2.35 51.45,3.19 59.08,14.1 8.45,12.08 -9.4,16.86 -20.23,21.12 27.24,-5.32 31.5,-2.22 31.12,0 -0.38,2.22 -4.94,-0.53 -14.7,0.71 -9.76,1.24 -14.29,8.07 -20.05,18.36 -5.76,10.29 -16,8 -20.59,7.9 -2.75,0 -4.14,4.87 0,5.24 13,1.15 18.46,-2 24.4,-12.34 5.94,-10.34 11.8,-13.39 19,-15.08 7.2,-1.69 14.1,3.46 17.74,6.21 3.64,2.75 16.77,14.37 21.21,22.8 7.71,14.65 4.25,25.55 7.63,30.43 7.31,10.59 32.38,19.52 35.93,20.85 3.55,1.33 4.61,6.83 2.3,11.8 -2.31,4.97 -6,6.12 -6.12,10.47 -0.12,4.35 9.14,11.27 11.18,12.69 2.04,1.42 1.78,5.85 -1.15,8.69 -2.93,2.84 -8.7,5.59 -9.94,6.21 -1.24,0.62 -1.06,1.51 0,1 2.46,-1.32 9.64,-5.51 13.77,-1.72 4.13,3.79 0.2,7.82 -1.44,10.36 -1.92,3 -3.32,4.9 -0.58,7.91 a 9.81,9.81 0 0 1 2.84,7.88 8.91,8.91 0 0 1 -2.35,5.49 c -3.19,3.57 -7,5.4 -18.23,8.08 -5.91,1.29 -14.82,3.29 -20.28,8.79 z"
       class="cls-1" />
    <path
       style="fill:none;stroke:#1d71b8;stroke-width:0.2px;stroke-miterlimit:10"
       id="path8"
       transform="translate(-70.32,-87.45)"
       d="M 214.36,402.57"
       class="cls-2" />
    <path
       style="fill:#164194"
       id="path10"
       transform="translate(-70.32,-87.45)"
       d="m 310.24,199.18 c 2.82,2.79 -4.09,7.16 -5.13,11.86 l -1.3,0.59 c -0.9,1.47 0.53,3.47 -0.78,4.07 -1.52,0.16 -2.61,1.2 -3.73,2.23 2.55,0.94 5.32,1.25 7.76,-0.39 a 2.17,2.17 0 0 1 2.1,1.15 1.54,1.54 0 0 0 0.68,-0.83 c 0.43,-0.2 0.87,-0.4 1.07,0 l 0.8,1.75 c -0.51,2.35 -3.09,2.47 -4.64,3.71 a 21.47,21.47 0 0 0 10,-4.61 c 2.23,-2.06 -2.4,-5.24 -1.65,-8.22 -0.89,0.41 -0.6,-1.3 -1.49,-0.9 0.49,-1.27 0.76,-3 1.44,-3.83 a 3.39,3.39 0 0 0 2,-2.51 c -0.4,-0.87 -2.35,-0.5 -2.29,-1.59 1.78,-2.93 3.09,-6.89 0.72,-8.77 -2.06,-1.64 -14,0.45 -26.77,16.33 -0.45,0.56 -0.36,1.68 1.77,-0.27 1.07,-1 5.94,-5.58 10.61,-7.85 4.67,-2.27 8.05,-2.69 8.83,-1.92 z"
       class="cls-1" />
    <path
       style="fill:#444d9b"
       id="path12"
       transform="translate(-70.32,-87.45)"
       d="m 357.81,237.27 c -0.39,-0.22 -1.2,-2.33 0.69,-4.42 1.89,-2.09 2.77,-2.6 3.53,-2.27 0.76,0.33 -0.73,2.47 -1.56,3.6 -0.83,1.13 -1.1,3.99 -2.66,3.09 z"
       class="cls-3" />
    <circle
       style="fill:#164194"
       id="circle14"
       r="8.4499998"
       cy="103.51"
       cx="130.28"
       class="cls-1" />
    <path
       style="fill:#e30613"
       id="path16"
       transform="translate(-70.32,-87.45)"
       d="m 228.9,184.91 a 28.36,28.36 0 0 0 -1.77,-5.51 c 1.61,-1.55 3.83,-4 3.87,-5.66 l -4.32,-6 c -1.61,-0.51 -4.63,0.81 -6.61,1.84 a 29.1,29.1 0 0 0 -4.7,-3.47 c 0.4,-2.2 0.79,-5.47 -0.17,-6.87 l -7,-2.36 c -1.61,0.53 -3.28,3.37 -4.29,5.36 -0.86,-0.09 -1.73,-0.16 -2.62,-0.18 v 4 h -4.79 v 3.52 a 21.82,21.82 0 1 1 4.79,43.24 v 7.11 c 0.89,0 1.76,-0.09 2.62,-0.19 1,2 2.68,4.84 4.29,5.37 l 7,-2.36 c 1,-1.4 0.57,-4.67 0.17,-6.87 a 29.1,29.1 0 0 0 4.7,-3.47 c 2,1 5,2.35 6.61,1.84 l 4.32,-6 c 0,-1.69 -2.26,-4.11 -3.87,-5.66 A 28.36,28.36 0 0 0 228.9,197 c 2.21,-0.32 5.43,-1 6.44,-2.35 v -7.4 c -1.01,-1.35 -4.23,-2.03 -6.44,-2.34 z"
       class="cls-4" />
    <path
       style="fill:#164194"
       id="path18"
       transform="translate(-70.32,-87.45)"
       d="m 391.09,490.49 -13,-13.13 c -19.69,13.3 -70.4,51.32 -163,24.31 -2.48,-0.73 -5.06,1.73 -1.86,4.25 3.2,2.52 90.47,37 177.86,-15.43 z"
       class="cls-1" />
    <path
       style="fill:#e30613"
       id="path20"
       transform="translate(-70.32,-87.45)"
       d="m 431.19,434.59 c 6.56,-6.56 52.27,-54.28 74.88,-152.24 0.53,-2.31 5.85,-2.66 5.32,1.07 -0.53,3.73 -14.19,99.58 -67.6,161.64 z"
       class="cls-4" />
    <path
       style="fill:#164194"
       id="path22"
       transform="translate(-70.32,-87.45)"
       d="m 241.59,333.37 c -5.5,-2.95 -15.79,-6.75 -44.53,18.8 H 201 V 356 c 4.35,-3.55 26.8,-23.58 37.87,-19.34 3,1.15 4.35,6.74 1.78,17.92 -2.57,11.18 -16,37.53 -26.26,48 h 9.85 c 3.72,-6.3 17.21,-30.78 21.2,-44 3.99,-13.22 1.56,-22.33 -3.85,-25.21 z"
       class="cls-1" />
    <rect
       style="fill:#2f52a0"
       id="rect24"
       height="4.3899999"
       width="4.3899999"
       y="143.53"
       x="45.509998"
       class="cls-5" />
    <rect
       style="fill:#4565ad"
       id="rect26"
       height="4.8600001"
       width="4.8600001"
       y="235.35001"
       x="38.59"
       class="cls-6" />
    <rect
       style="fill:#164194"
       id="rect28"
       height="3.52"
       width="3.52"
       y="247.78999"
       x="57.220001"
       class="cls-1" />
    <rect
       style="fill:#2f52a0"
       id="rect30"
       height="2.9100001"
       width="2.9100001"
       y="206.75999"
       x="42.52"
       class="cls-5" />
    <rect
       style="fill:#2f52a0"
       id="rect32"
       height="2.51"
       width="2.51"
       y="258.39001"
       x="47.709999"
       class="cls-5" />
    <rect
       style="fill:#2f52a0"
       id="rect34"
       height="2.9100001"
       width="2.9100001"
       y="249.99001"
       x="53.630001"
       class="cls-5" />
    <rect
       style="fill:#2f52a0"
       id="rect36"
       height="5.0599999"
       width="5.0599999"
       y="152.98"
       x="49.900002"
       class="cls-5" />
    <rect
       style="fill:#2f52a0"
       id="rect38"
       height="4.0900002"
       width="4.0900002"
       y="253.66"
       x="49.900002"
       class="cls-5" />
    <rect
       style="fill:#2f52a0"
       id="rect40"
       height="3.5799999"
       width="3.5799999"
       y="255.07001"
       x="55.09"
       class="cls-5" />
    <rect
       style="fill:#164194"
       id="rect42"
       height="3.3299999"
       width="3.3299999"
       y="191.57001"
       x="57.220001"
       class="cls-1" />
    <rect
       style="fill:#2f52a0"
       id="rect44"
       height="4.1300001"
       width="4.1300001"
       y="236.69"
       x="44.490002"
       class="cls-5" />
    <rect
       style="fill:#164194"
       id="rect46"
       height="3.6600001"
       width="3.6600001"
       y="195.03"
       x="61.48"
       class="cls-1" />
    <rect
       style="fill:#164194"
       id="rect48"
       height="2.5599999"
       width="2.5599999"
       y="231.33"
       x="63.310001"
       class="cls-1" />
    <rect
       style="fill:#e30613"
       id="rect50"
       height="5.3400002"
       width="5.3400002"
       y="127.53"
       x="80.5"
       class="cls-4" />
    <rect
       style="fill:#164194"
       id="rect52"
       height="5.7199998"
       width="5.7199998"
       y="200.49001"
       x="64.68"
       class="cls-1" />
    <rect
       style="fill:#2f52a0"
       id="rect54"
       height="4.6599998"
       width="4.6599998"
       y="147.39"
       x="51.240002"
       class="cls-5" />
    <rect
       style="fill:#164194"
       id="rect56"
       height="5.3200002"
       width="5.3200002"
       y="170.14999"
       x="60.549999"
       class="cls-1" />
    <rect
       style="fill:#2f52a0"
       id="rect58"
       height="5.3200002"
       width="5.3200002"
       y="155.69"
       x="55.889999"
       class="cls-5" />
    <polygon
       style="fill:#164194"
       id="polygon60"
       points="67.07,194.23 70.4,194.23 70.4,190.91 67.07,190.91 67.07,187.58 63.21,187.58 63.21,191.44 67.07,191.44 "
       class="cls-1" />
    <rect
       style="fill:#164194"
       id="rect62"
       height="5.3600001"
       width="5.3600001"
       y="175.83"
       x="65.870003"
       class="cls-1" />
    <rect
       style="fill:#2f52a0"
       id="rect64"
       height="3.1900001"
       width="3.1900001"
       y="258.78"
       x="51.240002"
       class="cls-5" />
    <rect
       style="fill:#164194"
       id="rect66"
       height="4.9699998"
       width="4.9699998"
       y="266.04999"
       x="77.779999"
       class="cls-1" />
    <rect
       style="fill:#164194"
       id="rect68"
       height="4.52"
       width="4.52"
       y="233.09"
       x="76.389999"
       class="cls-1" />
    <rect
       style="fill:#164194"
       id="rect70"
       height="4.2600002"
       width="4.2600002"
       y="268.89001"
       x="72.790001"
       class="cls-1" />
    <rect
       style="fill:#164194"
       id="rect72"
       height="2.8099999"
       width="2.8099999"
       y="252.25999"
       x="58.889999"
       class="cls-1" />
    <rect
       style="fill:#164194"
       id="rect74"
       height="2.05"
       width="2.05"
       y="228.33"
       x="71.160004"
       class="cls-1" />
    <rect
       style="fill:#164194"
       id="rect76"
       height="4.3899999"
       width="4.3899999"
       y="197.96001"
       x="80.910004"
       class="cls-1" />
    <rect
       style="fill:#164194"
       id="rect78"
       height="4.0900002"
       width="4.0900002"
       y="228.33"
       x="79.019997"
       class="cls-1" />
    <rect
       style="fill:#164194"
       id="rect80"
       height="4.2600002"
       width="4.2600002"
       y="192.77"
       x="81.580002"
       class="cls-1" />
    <rect
       style="fill:#164194"
       id="rect82"
       height="3.46"
       width="3.46"
       y="223.78"
       x="79.18"
       class="cls-1" />
    <rect
       style="fill:#164194"
       id="rect84"
       height="3.96"
       width="3.96"
       y="193.27"
       x="71.230003"
       class="cls-1" />
    <rect
       style="fill:#164194"
       id="rect86"
       height="2.2"
       width="2.2"
       y="247.78999"
       x="66.349998"
       class="cls-1" />
    <rect
       style="fill:#164194"
       id="rect88"
       height="3.4400001"
       width="3.4400001"
       y="246.55"
       x="61.700001"
       class="cls-1" />
    <rect
       style="fill:#164194"
       id="rect90"
       height="4.3800001"
       width="4.3800001"
       y="274.51001"
       x="62.689999"
       class="cls-1" />
    <rect
       style="fill:#164194"
       id="rect92"
       height="2.5799999"
       width="2.5799999"
       y="232.78"
       x="59.450001"
       class="cls-1" />
    <rect
       style="fill:#164194"
       id="rect94"
       height="3.79"
       width="3.79"
       y="225.50999"
       x="73.989998"
       class="cls-1" />
    <rect
       style="fill:#164194"
       id="rect96"
       height="1.9"
       width="1.9"
       y="230.38"
       x="75.889999"
       class="cls-1" />
    <rect
       style="fill:#164194"
       id="rect98"
       height="3.5899999"
       width="3.5899999"
       y="238.42"
       x="72.790001"
       class="cls-1" />
    <rect
       style="fill:#164194"
       id="rect100"
       height="2.4000001"
       width="2.4000001"
       y="230.38"
       x="67.07"
       class="cls-1" />
    <rect
       style="fill:#164194"
       id="rect102"
       height="3.74"
       width="3.74"
       y="242.81"
       x="69.470001"
       class="cls-1" />
    <rect
       style="fill:#164194"
       id="rect104"
       height="2.6600001"
       width="2.6600001"
       y="204.08"
       x="60.549999"
       class="cls-1" />
    <rect
       style="fill:#e30613"
       id="rect106"
       height="4.9400001"
       width="4.9400001"
       y="100.15"
       x="99.879997"
       class="cls-4" />
    <rect
       style="fill:#e30613"
       id="rect108"
       height="4.8600001"
       width="4.8600001"
       y="92.959999"
       x="100.28"
       class="cls-4" />
    <rect
       style="fill:#e30613"
       id="rect110"
       height="5.2399998"
       width="5.2399998"
       y="86.790001"
       x="99.879997"
       class="cls-4" />
    <rect
       style="fill:#e30613"
       id="rect112"
       height="5.0500002"
       width="5.0500002"
       y="113.86"
       x="100.06"
       class="cls-4" />
    <rect
       style="fill:#e30613"
       id="rect114"
       height="5.5900002"
       width="5.5900002"
       y="73.93"
       x="93.419998"
       class="cls-4" />
    <rect
       style="fill:#e30613"
       id="rect116"
       height="5.0500002"
       width="5.0500002"
       y="126.86"
       x="100.06"
       class="cls-4" />
    <rect
       style="fill:#164194"
       id="rect118"
       height="2.76"
       width="2.76"
       y="253.66"
       x="91.959999"
       class="cls-1" />
    <rect
       style="fill:#e30613"
       id="rect120"
       height="4.5700002"
       width="4.5700002"
       y="114.34"
       x="87.720001"
       class="cls-4" />
    <rect
       style="fill:#e30613"
       id="rect122"
       height="5.4200001"
       width="5.4200001"
       y="92.389999"
       x="93.419998"
       class="cls-4" />
    <rect
       style="fill:#e30613"
       id="rect124"
       height="5.4200001"
       width="5.4200001"
       y="106.53"
       x="93.419998"
       class="cls-4" />
    <rect
       style="fill:#e30613"
       id="rect126"
       height="4.8600001"
       width="4.8600001"
       y="85.889999"
       x="87.43"
       class="cls-4" />
    <rect
       style="fill:#e30613"
       id="rect128"
       height="4.1399999"
       width="4.1399999"
       y="120.49"
       x="113.37"
       class="cls-4" />
    <rect
       style="fill:#e30613"
       id="rect130"
       height="5.3299999"
       width="5.3299999"
       y="113.58"
       x="113.05"
       class="cls-4" />
    <rect
       style="fill:#e30613"
       id="rect132"
       height="4.79"
       width="4.79"
       y="133.95"
       x="118.38"
       class="cls-4" />
    <rect
       style="fill:#e30613"
       id="rect134"
       height="4.46"
       width="4.46"
       y="79.720001"
       x="113.05"
       class="cls-4" />
    <rect
       style="fill:#e30613"
       id="rect136"
       height="6.25"
       width="6.25"
       y="85.769997"
       x="105.93"
       class="cls-4" />
    <rect
       style="fill:#e30613"
       id="rect138"
       height="6.25"
       width="6.25"
       y="100.15"
       x="105.93"
       class="cls-4" />
    <rect
       style="fill:#e30613"
       id="rect140"
       height="5.3299999"
       width="5.3299999"
       y="126.58"
       x="113.05"
       class="cls-4" />
    <rect
       style="fill:#e30613"
       id="rect142"
       height="5.6599998"
       width="5.6599998"
       y="119.44"
       x="105.93"
       class="cls-4" />
    <rect
       style="fill:#e30613"
       id="rect144"
       height="5.2600002"
       width="5.2600002"
       y="79.720001"
       x="99.879997"
       class="cls-4" />
    <rect
       style="fill:#2f52a0"
       id="rect146"
       height="4.4899998"
       width="4.4899998"
       y="118.91"
       x="46.380001"
       class="cls-5" />
    <rect
       style="fill:#2f52a0"
       id="rect148"
       height="4.7199998"
       width="4.7199998"
       y="200.69"
       x="42.52"
       class="cls-5" />
    <rect
       style="fill:#2f52a0"
       id="rect150"
       height="3.8399999"
       width="3.8399999"
       y="206.75999"
       x="46.380001"
       class="cls-5" />
    <rect
       style="fill:#2f52a0"
       id="rect152"
       height="5.5100002"
       width="5.5100002"
       y="137.28"
       x="41.740002"
       class="cls-5" />
    <rect
       style="fill:#2f52a0"
       id="rect154"
       height="3.79"
       width="3.79"
       y="235.35001"
       x="49.639999"
       class="cls-5" />
    <rect
       style="fill:#2f52a0"
       id="rect156"
       height="4.6599998"
       width="4.6599998"
       y="163.62"
       x="55.889999"
       class="cls-5" />
    <rect
       style="fill:#4565ad"
       id="rect158"
       height="4.9200001"
       width="4.9200001"
       y="129.96001"
       x="40.060001"
       class="cls-6" />
    <rect
       style="fill:#2f52a0"
       id="rect160"
       height="4.3899999"
       width="4.3899999"
       y="206.21001"
       x="51.240002"
       class="cls-5" />
    <rect
       style="fill:#2f52a0"
       id="rect162"
       height="4.52"
       width="4.52"
       y="233.09"
       x="54.43"
       class="cls-5" />
    <rect
       style="fill:#2f52a0"
       id="rect164"
       height="5.5900002"
       width="5.5900002"
       y="184.78"
       x="54.959999"
       class="cls-5" />
    <rect
       style="fill:#2f52a0"
       id="rect166"
       height="4.79"
       width="4.79"
       y="99.610001"
       x="45.509998"
       class="cls-5" />
    <rect
       style="fill:#e30613"
       id="rect168"
       height="4.8600001"
       width="4.8600001"
       y="121.07"
       x="87.43"
       class="cls-4" />
    <rect
       style="fill:#2f52a0"
       id="rect170"
       height="4.79"
       width="4.79"
       y="107.33"
       x="44.849998"
       class="cls-5" />
    <rect
       style="fill:#164194"
       id="rect172"
       height="2"
       width="2"
       y="220.58"
       x="82.639999"
       class="cls-1" />
    <rect
       style="fill:#e30613"
       id="rect174"
       height="4.79"
       width="4.79"
       y="107.33"
       x="87.43"
       class="cls-4" />
    <rect
       style="fill:#164194"
       id="rect176"
       height="2.9300001"
       width="2.9300001"
       y="197.23"
       x="86.769997"
       class="cls-1" />
    <rect
       style="fill:#e30613"
       id="rect178"
       height="4.8600001"
       width="4.8600001"
       y="92.959999"
       x="87.43"
       class="cls-4" />
    <rect
       style="fill:#2f52a0"
       id="rect180"
       height="4.8600001"
       width="4.8600001"
       y="125.1"
       x="46.380001"
       class="cls-5" />
    <rect
       style="fill:#2f52a0"
       id="rect182"
       height="2.9100001"
       width="2.9100001"
       y="206.75999"
       x="56.540001"
       class="cls-5" />
    <rect
       style="fill:#164194"
       id="rect184"
       height="2.5699999"
       width="2.5699999"
       y="267.16"
       x="83.269997"
       class="cls-1" />
    <rect
       style="fill:#164194"
       id="rect186"
       height="7.9400001"
       width="7.9400001"
       y="59.470001"
       x="76.959999"
       class="cls-1" />
    <rect
       style="fill:#2f52a0"
       id="rect188"
       height="4.29"
       width="4.29"
       y="279.59"
       x="47.240002"
       class="cls-5" />
    <rect
       style="fill:#2f52a0"
       id="rect190"
       height="4.0700002"
       width="4.0700002"
       y="279.45999"
       x="42.110001"
       class="cls-5" />
    <rect
       style="fill:#2f52a0"
       id="rect192"
       height="4.2600002"
       width="4.2600002"
       y="260.91"
       x="42.52"
       class="cls-5" />
    <rect
       style="fill:#4565ad"
       id="rect194"
       height="3.1400001"
       width="3.1400001"
       y="264.95001"
       x="38.59"
       class="cls-6" />
    <rect
       style="fill:#4565ad"
       id="rect196"
       height="2.21"
       width="2.21"
       y="261.97"
       x="39.52"
       class="cls-6" />
    <rect
       style="fill:#4565ad"
       id="rect198"
       height="2.74"
       width="2.74"
       y="296.32999"
       x="65.139999"
       class="cls-6" />
    <rect
       style="fill:#4565ad"
       id="rect200"
       height="4.1900001"
       width="4.1900001"
       y="280.26999"
       x="36.66"
       class="cls-6" />
    <rect
       style="fill:#4565ad"
       id="rect202"
       height="2.49"
       width="2.49"
       y="296.57999"
       x="61.700001"
       class="cls-6" />
    <rect
       style="fill:#164194"
       id="rect204"
       height="3.9400001"
       width="3.9400001"
       y="276.92999"
       x="57.759998"
       class="cls-1" />
    <rect
       style="fill:#2f52a0"
       id="rect206"
       height="4.1100001"
       width="4.1100001"
       y="278.26001"
       x="52.43"
       class="cls-5" />
    <rect
       style="fill:#5c79bb"
       id="rect208"
       height="2.98"
       width="2.98"
       y="283.88"
       x="16.780001"
       class="cls-7" />
    <rect
       style="fill:#5c79bb"
       id="rect210"
       height="2.79"
       width="2.79"
       y="222.58"
       x="15.97"
       class="cls-7" />
    <rect
       style="fill:#5c79bb"
       id="rect212"
       height="2.6600001"
       width="2.6600001"
       y="288.85001"
       x="13.31"
       class="cls-7" />
    <rect
       style="fill:#4565ad"
       id="rect214"
       height="2.72"
       width="2.72"
       y="297.70999"
       x="69.470001"
       class="cls-6" />
    <rect
       style="fill:#5c79bb"
       id="rect216"
       height="2.6600001"
       width="2.6600001"
       y="285.37"
       x="12.64"
       class="cls-7" />
    <rect
       style="fill:#5c79bb"
       id="rect218"
       height="2.98"
       width="2.98"
       y="283.88"
       x="21.629999"
       class="cls-7" />
    <rect
       style="fill:#5c79bb"
       id="rect220"
       height="2.9300001"
       width="2.9300001"
       y="285.66"
       x="25.290001"
       class="cls-7" />
    <rect
       style="fill:#4565ad"
       id="rect222"
       height="2.3599999"
       width="2.3599999"
       y="282.10001"
       x="28.209999"
       class="cls-6" />
    <rect
       style="fill:#4565ad"
       id="rect224"
       height="4.2600002"
       width="4.2600002"
       y="281.39999"
       x="31.67"
       class="cls-6" />
    <rect
       style="fill:#5c79bb"
       id="rect226"
       height="2.9400001"
       width="2.9400001"
       y="288.57001"
       x="17.280001"
       class="cls-7" />
    <rect
       style="fill:#164194"
       id="rect228"
       height="4.2199998"
       width="4.2199998"
       y="269.73001"
       x="119.64"
       class="cls-1" />
    <polygon
       style="fill:#164194"
       id="polygon230"
       points="114.4,278.26 111.25,278.26 111.25,280.33 107.13,280.33 107.13,284.46 111.25,284.46 111.25,281.4 114.4,281.4 "
       class="cls-1" />
    <rect
       style="fill:#164194"
       id="rect232"
       height="3.3399999"
       width="3.3399999"
       y="276.92999"
       x="114.96"
       class="cls-1" />
    <rect
       style="fill:#2f52a0"
       id="rect234"
       height="4.1300001"
       width="4.1300001"
       y="284.45999"
       x="102.34"
       class="cls-5" />
    <rect
       style="fill:#2f52a0"
       id="rect236"
       height="2.9300001"
       width="2.9300001"
       y="288.59"
       x="98.610001"
       class="cls-5" />
    <rect
       style="fill:#164194"
       id="rect238"
       height="2.9400001"
       width="2.9400001"
       y="273.14999"
       x="115.91"
       class="cls-1" />
    <rect
       style="fill:#e30613"
       id="rect240"
       height="5.8699999"
       width="5.8699999"
       y="132.87"
       x="124.41"
       class="cls-4" />
    <rect
       style="fill:#e30613"
       id="rect242"
       height="4.8899999"
       width="4.8899999"
       y="127.53"
       x="93.419998"
       class="cls-4" />
    <rect
       style="fill:#164194"
       id="rect244"
       height="4.5500002"
       width="4.5500002"
       y="265.94"
       x="124.96"
       class="cls-1" />
    <rect
       style="fill:#748fc9"
       id="rect246"
       height="3.3800001"
       width="3.3800001"
       y="286.70001"
       x="8.6000004"
       class="cls-8" />
    <rect
       style="fill:#164194"
       id="rect248"
       height="4.2199998"
       width="4.2199998"
       y="257.75"
       x="88.230003"
       class="cls-1" />
    <rect
       style="fill:#4565ad"
       id="rect250"
       height="2.8800001"
       width="2.8800001"
       y="292.62"
       x="84.550003"
       class="cls-6" />
    <rect
       style="fill:#4565ad"
       id="rect252"
       height="2.3499999"
       width="2.3499999"
       y="296.48999"
       x="76.839996"
       class="cls-6" />
    <rect
       style="fill:#4565ad"
       id="rect254"
       height="3.4400001"
       width="3.4400001"
       y="294.87"
       x="80.269997"
       class="cls-6" />
    <rect
       style="fill:#e30613"
       id="rect256"
       height="5.3299999"
       width="5.3299999"
       y="113.58"
       x="79.980003"
       class="cls-4" />
    <rect
       style="fill:#2f52a0"
       id="rect258"
       height="4.3699999"
       width="4.3699999"
       y="289.67001"
       x="93.339996"
       class="cls-5" />
    <rect
       style="fill:#164194"
       id="rect260"
       height="3.79"
       width="3.79"
       y="261.97"
       x="83.639999"
       class="cls-1" />
    <rect
       style="fill:#164194"
       id="rect262"
       height="4.3099999"
       width="4.3099999"
       y="272.62"
       x="67.879997"
       class="cls-1" />
    <rect
       style="fill:#2f52a0"
       id="rect264"
       height="3.6500001"
       width="3.6500001"
       y="291.85999"
       x="88.760002"
       class="cls-5" />
    <rect
       style="fill:#164194"
       id="rect266"
       height="4.52"
       width="4.52"
       y="200.89"
       x="87.43"
       class="cls-1" />
    <rect
       style="fill:#4565ad"
       id="rect268"
       height="3.0899999"
       width="3.0899999"
       y="295.73999"
       x="72.790001"
       class="cls-6" />
    <rect
       style="fill:#4565ad"
       id="rect270"
       height="4.4200001"
       width="4.4200001"
       y="112.12"
       x="39.52"
       class="cls-6" />
    <rect
       style="fill:#4565ad"
       id="rect272"
       height="4.52"
       width="4.52"
       y="117.18"
       x="38.59"
       class="cls-6" />
    <rect
       style="fill:#4565ad"
       id="rect274"
       height="4.4200001"
       width="4.4200001"
       y="104.4"
       x="39.52"
       class="cls-6" />
    <rect
       style="fill:#2f52a0"
       id="rect276"
       height="4.8600001"
       width="4.8600001"
       y="92.959999"
       x="41.52"
       class="cls-5" />
    <rect
       style="fill:#4565ad"
       id="rect278"
       height="2.79"
       width="2.79"
       y="233.89"
       x="35.27"
       class="cls-6" />
    <rect
       style="fill:#2f52a0"
       id="rect280"
       height="5.0599999"
       width="5.0599999"
       y="86.970001"
       x="46.18"
       class="cls-5" />
    <rect
       style="fill:#4565ad"
       id="rect282"
       height="3.5899999"
       width="3.5899999"
       y="198.75999"
       x="31.67"
       class="cls-6" />
    <rect
       style="fill:#4565ad"
       id="rect284"
       height="3.73"
       width="3.73"
       y="264.17999"
       x="34.330002"
       class="cls-6" />
    <rect
       style="fill:#4565ad"
       id="rect286"
       height="4.9200001"
       width="4.9200001"
       y="198.13"
       x="35.93"
       class="cls-6" />
    <rect
       style="fill:#4565ad"
       id="rect288"
       height="5.0599999"
       width="5.0599999"
       y="123.4"
       x="38.59"
       class="cls-6" />
    <rect
       style="fill:#164194"
       id="rect290"
       height="4.79"
       width="4.79"
       y="182.78999"
       x="70.400002"
       class="cls-1" />
    <rect
       style="fill:#164194"
       id="rect292"
       height="4.52"
       width="4.52"
       y="187.45"
       x="76.389999"
       class="cls-1" />
    <rect
       style="fill:#164194"
       id="rect294"
       height="2.79"
       width="2.79"
       y="197.36"
       x="76.389999"
       class="cls-1" />
    <rect
       style="fill:#e30613"
       id="rect296"
       height="4.9200001"
       width="4.9200001"
       y="100.81"
       x="80.910004"
       class="cls-4" />
    <rect
       style="fill:#2f52a0"
       id="rect298"
       height="5.3200002"
       width="5.3200002"
       y="131.28999"
       x="47.240002"
       class="cls-5" />
    <rect
       style="fill:#2f52a0"
       id="rect300"
       height="5.8200002"
       width="5.8200002"
       y="82.980003"
       x="53.630001"
       class="cls-5" />
    <rect
       style="fill:#164194"
       id="rect302"
       height="4.3299999"
       width="4.3299999"
       y="62.48"
       x="69.07"
       class="cls-1" />
    <rect
       style="fill:#2f52a0"
       id="rect304"
       height="5.79"
       width="5.79"
       y="73.93"
       x="56.560001"
       class="cls-5" />
    <rect
       style="fill:#164194"
       id="rect306"
       height="4.9200001"
       width="4.9200001"
       y="69.010002"
       x="64.540001"
       class="cls-1" />
    <rect
       style="fill:#4565ad"
       id="rect308"
       height="2.8900001"
       width="2.8900001"
       y="231.58"
       x="30.57"
       class="cls-6" />
    <rect
       style="fill:#748fc9"
       id="rect310"
       height="4.2600002"
       width="4.2600002"
       y="222.98"
       x="10.51"
       class="cls-8" />
    <rect
       style="fill:#5c79bb"
       id="rect312"
       height="2.5599999"
       width="2.5599999"
       y="198.13"
       x="11.31"
       class="cls-7" />
    <rect
       style="fill:#5c79bb"
       id="rect314"
       height="2.3299999"
       width="2.3299999"
       y="225.50999"
       x="19.76"
       class="cls-7" />
    <rect
       style="fill:#5c79bb"
       id="rect316"
       height="2.6300001"
       width="2.6300001"
       y="197.96001"
       x="15.97"
       class="cls-7" />
    <rect
       style="fill:#748fc9"
       id="rect318"
       height="2.48"
       width="2.48"
       y="197.36"
       x="6.1199999"
       class="cls-8" />
    <rect
       style="fill:#748fc9"
       x="0"
       id="rect320"
       height="4.2600002"
       width="4.2600002"
       y="219.52"
       class="cls-8" />
    <rect
       style="fill:#748fc9"
       id="rect322"
       height="2.79"
       width="2.79"
       y="197.36"
       x="1.46"
       class="cls-8" />
    <rect
       style="fill:#748fc9"
       id="rect324"
       height="2.9200001"
       width="2.9200001"
       y="287.12"
       x="4.2600002"
       class="cls-8" />
    <rect
       style="fill:#748fc9"
       id="rect326"
       height="4.52"
       width="4.52"
       y="220.58"
       x="5.1900001"
       class="cls-8" />
    <rect
       style="fill:#5c79bb"
       id="rect328"
       height="2.79"
       width="2.79"
       y="198.75999"
       x="20.23"
       class="cls-7" />
    <rect
       style="fill:#4565ad"
       id="rect330"
       height="2.99"
       width="2.99"
       y="228.33"
       x="27.58"
       class="cls-6" />
    <rect
       style="fill:#5c79bb"
       id="rect332"
       height="4.2600002"
       width="4.2600002"
       y="268.89001"
       x="24.6"
       class="cls-7" />
    <rect
       style="fill:#5c79bb"
       id="rect334"
       height="3.73"
       width="3.73"
       y="278.47"
       x="23.42"
       class="cls-7" />
    <rect
       style="fill:#5c79bb"
       id="rect336"
       height="3.1600001"
       width="3.1600001"
       y="274.51001"
       x="23.02"
       class="cls-7" />
    <rect
       style="fill:#5c79bb"
       id="rect338"
       height="3.1600001"
       width="3.1600001"
       y="228.33"
       x="23.02"
       class="cls-7" />
    <rect
       style="fill:#5c79bb"
       id="rect340"
       height="3.4300001"
       width="3.4300001"
       y="198.13"
       x="27.15"
       class="cls-7" />
    <rect
       style="fill:#748fc9"
       id="rect342"
       height="4.1900001"
       width="4.1900001"
       y="291.31"
       x="3.5899999"
       class="cls-8" />
    <rect
       style="fill:#5c79bb"
       id="rect344"
       height="2.76"
       width="2.76"
       y="198.13"
       x="23.42"
       class="cls-7" />
    <rect
       style="fill:#4565ad"
       id="rect346"
       height="3.6400001"
       width="3.6400001"
       y="267.91"
       x="29.940001"
       class="cls-6" />
    <rect
       style="fill:#e30613"
       id="rect348"
       height="5.6599998"
       width="5.6599998"
       y="72.07"
       x="119.31"
       class="cls-4" />
  </g>
  <g
     transform="matrix(0.16078385,0,0,0.16078385,0,-0.00915564)"
     id="Texte">
    <path
       style="fill:#1d1d1b"
       id="path351"
       transform="translate(-70.32,-87.45)"
       d="M 148.63,464.63 V 416 h 19.59 a 54.78,54.78 0 0 1 10.12,0.7 20.71,20.71 0 0 1 8.33,3.48 20,20 0 0 1 6.73,8.3 28.3,28.3 0 0 1 2.23,11.55 29.3,29.3 0 0 1 -1.51,9.81 22.5,22.5 0 0 1 -3.88,7.08 19.47,19.47 0 0 1 -5.18,4.4 22.76,22.76 0 0 1 -6.78,2.44 45.26,45.26 0 0 1 -9.13,0.83 z m 7.53,-5.74 h 12.13 a 34.18,34.18 0 0 0 8.83,-0.89 13.26,13.26 0 0 0 5.09,-2.52 14.85,14.85 0 0 0 4.17,-6.15 25.87,25.87 0 0 0 1.5,-9.36 q 0,-7.62 -2.93,-11.72 a 14.28,14.28 0 0 0 -7.12,-5.48 c -2,-0.66 -5.26,-1 -9.73,-1 h -11.94 z"
       class="cls-9" />
    <path
       style="fill:#1d1d1b"
       id="path353"
       transform="translate(-70.32,-87.45)"
       d="M 205.91,464.63 V 416 h 7.71 l 29.86,38.15 V 416 h 7.21 v 48.59 H 243 l -29.86,-38.18 v 38.18 z"
       class="cls-9" />
    <path
       style="fill:#1d1d1b"
       id="path355"
       transform="translate(-70.32,-87.45)"
       d="m 300.64,416 h 7.52 v 28.07 c 0,4.89 -0.65,8.76 -1.94,11.64 a 15.06,15.06 0 0 1 -7,7 q -5.06,2.7 -13.28,2.7 -8,0 -13.07,-2.36 a 14.43,14.43 0 0 1 -7.25,-6.81 q -2.17,-4.46 -2.17,-12.18 V 416 H 271 v 28 q 0,6.33 1.38,9.33 a 9.51,9.51 0 0 0 4.73,4.62 18.58,18.58 0 0 0 8.2,1.63 q 8.3,0 11.83,-3.22 3.53,-3.22 3.53,-12.36 z"
       class="cls-9" />
    <path
       style="fill:#1d1d1b"
       id="path357"
       transform="translate(-70.32,-87.45)"
       d="M 320.45,464.63 V 416 h 11.32 l 13.46,34.4 c 1.24,3.21 2.14,5.6 2.71,7.19 0.65,-1.76 1.66,-4.36 3,-7.78 L 364.58,416 h 10.12 v 48.59 h -7.25 V 424 l -16.52,40.67 h -6.79 l -16.44,-41.4 v 41.36 z"
       class="cls-9" />
    <path
       style="fill:#1d1d1b"
       id="path359"
       transform="translate(-70.32,-87.45)"
       d="M 175.08,471.83 H 177 a 5.57,5.57 0 0 1 4,1.24 5.24,5.24 0 0 1 0,7.7 5.41,5.41 0 0 1 -4,1.29 h -1.9 z m 2,9.17 a 4.27,4.27 0 0 0 3.22,-1.05 4.18,4.18 0 0 0 -0.05,-6.07 4.39,4.39 0 0 0 -3.17,-1 h -0.83 V 481 Z"
       class="cls-9" />
    <path
       style="fill:#1d1d1b"
       id="path361"
       transform="translate(-70.32,-87.45)"
       d="m 185.45,482.06 h -1.14 v -10.23 h 1.14 z"
       class="cls-9" />
    <path
       style="fill:#1d1d1b"
       id="path363"
       transform="translate(-70.32,-87.45)"
       d="m 188.66,482.06 h -1.14 V 471.83 H 189 c 1.94,0 3.74,0.52 3.74,2.83 a 2.68,2.68 0 0 1 -2.56,2.82 l 3.26,4.58 H 192 l -3,-4.49 h -0.29 z m 0,-5.49 H 189 c 1.29,0 2.59,-0.25 2.59,-1.83 0,-1.58 -1.23,-1.85 -2.6,-1.85 h -0.34 z"
       class="cls-9" />
    <path
       style="fill:#1d1d1b"
       id="path365"
       transform="translate(-70.32,-87.45)"
       d="m 194.88,471.83 h 5.3 v 1.06 H 196 v 3 h 4 V 477 h -4 v 4 h 4.16 v 1.06 h -5.3 z"
       class="cls-9" />
    <path
       style="fill:#1d1d1b"
       id="path367"
       transform="translate(-70.32,-87.45)"
       d="m 209.92,474.07 a 4.38,4.38 0 0 0 -3.12,-1.36 4.24,4.24 0 0 0 0,8.47 4.45,4.45 0 0 0 3.09,-1.36 v 1.41 a 5.23,5.23 0 0 1 -3,1 5.29,5.29 0 1 1 0,-10.58 4.92,4.92 0 0 1 3,1 z"
       class="cls-9" />
    <path
       style="fill:#1d1d1b"
       id="path369"
       transform="translate(-70.32,-87.45)"
       d="m 214.57,482.06 h -1.14 v -9.17 H 211 v -1.06 h 6.1 v 1.06 h -2.49 z"
       class="cls-9" />
    <path
       style="fill:#1d1d1b"
       id="path371"
       transform="translate(-70.32,-87.45)"
       d="m 219.4,482.06 h -1.14 v -10.23 h 1.14 z"
       class="cls-9" />
    <path
       style="fill:#1d1d1b"
       id="path373"
       transform="translate(-70.32,-87.45)"
       d="m 231.62,477 a 5.33,5.33 0 1 1 -5.33,-5.3 5.3,5.3 0 0 1 5.33,5.3 z m -9.52,0 a 4.19,4.19 0 1 0 4.19,-4.24 4.23,4.23 0 0 0 -4.19,4.24 z"
       class="cls-9" />
    <path
       style="fill:#1d1d1b"
       id="path375"
       transform="translate(-70.32,-87.45)"
       d="m 233.24,471.4 8,8.36 v -7.93 h 1.13 v 10.69 l -8,-8.34 v 7.88 h -1.14 z"
       class="cls-9" />
    <path
       style="fill:#1d1d1b"
       id="path377"
       transform="translate(-70.32,-87.45)"
       d="m 248.67,471.83 h 1.92 a 5.58,5.58 0 0 1 4,1.24 5.24,5.24 0 0 1 0,7.7 5.41,5.41 0 0 1 -4,1.29 h -1.9 z m 2,9.17 a 4.28,4.28 0 0 0 3.23,-1.05 4.18,4.18 0 0 0 -0.05,-6.07 4.4,4.4 0 0 0 -3.18,-1 h -0.82 V 481 Z"
       class="cls-9" />
    <path
       style="fill:#1d1d1b"
       id="path379"
       transform="translate(-70.32,-87.45)"
       d="m 259,477.92 a 3.75,3.75 0 0 0 0.45,2.28 2.62,2.62 0 0 0 2.06,1 2.72,2.72 0 0 0 2,-0.91 3.54,3.54 0 0 0 0.5,-2.35 v -6.09 h 1.14 v 6.41 a 3.57,3.57 0 0 1 -0.9,2.83 3.75,3.75 0 0 1 -2.75,1.17 3.81,3.81 0 0 1 -2.64,-1.05 3.58,3.58 0 0 1 -1,-2.95 v -6.41 H 259 Z"
       class="cls-9" />
    <path
       style="fill:#1d1d1b"
       id="path381"
       transform="translate(-70.32,-87.45)"
       d="m 271.41,471.4 8,8.36 v -7.93 h 1.14 v 10.69 l -8,-8.34 v 7.88 h -1.14 z"
       class="cls-9" />
    <path
       style="fill:#1d1d1b"
       id="path383"
       transform="translate(-70.32,-87.45)"
       d="m 283.77,477.92 a 3.82,3.82 0 0 0 0.45,2.28 2.63,2.63 0 0 0 2.06,1 2.72,2.72 0 0 0 2,-0.91 3.54,3.54 0 0 0 0.5,-2.35 v -6.09 h 1.14 v 6.41 a 3.6,3.6 0 0 1 -0.89,2.83 3.84,3.84 0 0 1 -5.4,0.12 3.58,3.58 0 0 1 -1,-2.95 v -6.41 h 1.14 z"
       class="cls-9" />
    <path
       style="fill:#1d1d1b"
       id="path385"
       transform="translate(-70.32,-87.45)"
       d="m 293.29,471.25 3.71,8.59 3.73,-8.59 2.08,10.81 h -1.17 l -1.31,-6.92 v 0 l -3.3,7.34 -3.28,-7.34 v 0 l -1.31,6.92 h -1.17 z"
       class="cls-9" />
    <path
       style="fill:#1d1d1b"
       id="path387"
       transform="translate(-70.32,-87.45)"
       d="m 304.11,471.83 h 5.31 v 1.06 h -4.17 v 3 h 4.05 V 477 h -4.05 v 4 h 4.17 v 1.06 h -5.31 z m 4.52,-2.86 -2.07,2.09 -0.68,-0.38 1.61,-2.22 z"
       class="cls-9" />
    <path
       style="fill:#1d1d1b"
       id="path389"
       transform="translate(-70.32,-87.45)"
       d="m 312.5,482.06 h -1.14 v -10.23 h 1.48 c 1.94,0 3.74,0.52 3.74,2.83 a 2.68,2.68 0 0 1 -2.56,2.82 l 3.26,4.58 h -1.4 l -3.09,-4.49 h -0.29 z m 0,-5.49 h 0.35 c 1.29,0 2.59,-0.25 2.59,-1.83 0,-1.58 -1.23,-1.85 -2.6,-1.85 h -0.34 z"
       class="cls-9" />
    <path
       style="fill:#1d1d1b"
       id="path391"
       transform="translate(-70.32,-87.45)"
       d="m 319.88,482.06 h -1.14 v -10.23 h 1.14 z"
       class="cls-9" />
    <path
       style="fill:#1d1d1b"
       id="path393"
       transform="translate(-70.32,-87.45)"
       d="m 329.85,481.23 a 5.25,5.25 0 1 1 2.26,-4.24 5.09,5.09 0 0 1 -1.48,3.61 l 1.53,1.56 h -1.45 z m 0,-1.45 A 3.94,3.94 0 0 0 331,477 a 4.2,4.2 0 1 0 -4.19,4.23 4,4 0 0 0 2.27,-0.76 l -2.47,-2.48 h 1.5 z"
       class="cls-9" />
    <path
       style="fill:#1d1d1b"
       id="path395"
       transform="translate(-70.32,-87.45)"
       d="m 334.77,477.92 a 3.75,3.75 0 0 0 0.45,2.28 2.62,2.62 0 0 0 2.06,1 2.72,2.72 0 0 0 2,-0.91 3.54,3.54 0 0 0 0.5,-2.35 v -6.09 h 1.14 v 6.41 a 3.57,3.57 0 0 1 -0.9,2.83 3.75,3.75 0 0 1 -2.75,1.17 3.86,3.86 0 0 1 -2.65,-1.05 3.61,3.61 0 0 1 -1,-2.95 v -6.41 h 1.14 z"
       class="cls-9" />
    <path
       style="fill:#1d1d1b"
       id="path397"
       transform="translate(-70.32,-87.45)"
       d="m 343,471.83 h 5.31 v 1.06 h -4.17 v 3 h 4 V 477 h -4 v 4 h 4.17 v 1.06 H 343 Z"
       class="cls-9" />
    <path
       style="fill:#878787"
       id="path399"
       transform="translate(-70.32,-87.45)"
       d="m 300.92,544.86 -1.51,0.1 -1.1,-15.63 1.52,-0.11 z"
       class="cls-10" />
    <path
       style="fill:#878787"
       id="path401"
       transform="translate(-70.32,-87.45)"
       d="m 306.74,530.25 -1.71,5 -1.03,-0.25 1.32,-5.11 z"
       class="cls-10" />
    <path
       style="fill:#878787"
       id="path403"
       transform="translate(-70.32,-87.45)"
       d="m 312.73,531.36 a 1.09,1.09 0 0 1 -1,1.2 1.07,1.07 0 0 1 -1.2,-0.95 1.082243,1.082243 0 1 1 2.15,-0.25 z m 1.11,12.25 -1.51,0.18 -1,-8.87 1.51,-0.18 z"
       class="cls-10" />
    <path
       style="fill:#878787"
       id="path405"
       transform="translate(-70.32,-87.45)"
       d="m 318.81,535.05 v 0 a 3,3 0 0 1 2.32,-1.69 c 2.44,-0.37 3.27,1.31 3.59,3.38 l 0.79,5.24 -1.5,0.22 -0.76,-5 c -0.21,-1.43 -0.52,-2.69 -2.26,-2.43 -2.07,0.31 -1.91,2.25 -1.67,3.83 l 0.63,4.19 -1.5,0.22 -1.34,-8.82 1.51,-0.23 z"
       class="cls-10" />
    <path
       style="fill:#878787"
       id="path407"
       transform="translate(-70.32,-87.45)"
       d="m 329.92,533.2 v 0 a 3,3 0 0 1 2.24,-1.79 c 2.43,-0.48 3.33,1.16 3.74,3.21 l 1,5.2 -1.49,0.3 -1,-4.94 c -0.28,-1.42 -0.64,-2.67 -2.38,-2.32 -2.05,0.4 -1.8,2.33 -1.5,3.9 l 0.82,4.15 -1.49,0.3 -1.73,-8.77 1.5,-0.29 z"
       class="cls-10" />
    <path
       style="fill:#878787"
       id="path409"
       transform="translate(-70.32,-87.45)"
       d="m 339.53,534.72 a 4.69,4.69 0 1 1 5.68,3.44 4.67,4.67 0 0 1 -5.68,-3.44 z m 1.47,-0.38 a 3.18,3.18 0 1 0 2.29,-4 3.16,3.16 0 0 0 -2.29,4 z"
       class="cls-10" />
    <path
       style="fill:#878787"
       id="path411"
       transform="translate(-70.32,-87.45)"
       d="m 355.27,532.14 0.84,-6.52 1.64,-0.48 -1.48,10.37 -6.92,-7.88 1.66,-0.49 z"
       class="cls-10" />
    <path
       style="fill:#878787"
       id="path413"
       transform="translate(-70.32,-87.45)"
       d="m 370.92,530.06 -1.44,0.5 -0.4,-1.17 v 0 a 3.75,3.75 0 0 1 -2.42,2.41 c -2.47,0.87 -4.76,-0.69 -5.58,-3 -0.82,-2.31 0,-5 2.49,-5.88 a 3.84,3.84 0 0 1 3.39,0.43 v 0 l -0.42,-1.2 1.43,-0.5 z m -8.45,-1.88 c 0.58,1.65 2.09,2.87 3.89,2.24 1.8,-0.63 2.29,-2.47 1.7,-4.17 a 3,3 0 0 0 -3.9,-2.06 3,3 0 0 0 -1.69,3.99 z"
       class="cls-10" />
    <path
       style="fill:#878787"
       id="path415"
       transform="translate(-70.32,-87.45)"
       d="m 376.48,527.88 -1.41,0.56 -2.77,-7 -0.87,0.34 -0.51,-1.31 0.86,-0.34 -1.18,-3 1.42,-0.56 1.18,3 1.48,-0.58 0.52,1.3 -1.49,0.59 z"
       class="cls-10" />
    <path
       style="fill:#878787"
       id="path417"
       transform="translate(-70.32,-87.45)"
       d="m 377.7,514.05 a 1.0865657,1.0865657 0 0 1 -2,0.85 1.0865657,1.0865657 0 0 1 2,-0.85 z m 4.54,11.43 -1.39,0.6 -3.52,-8.21 1.4,-0.6 z"
       class="cls-10" />
    <path
       style="fill:#878787"
       id="path419"
       transform="translate(-70.32,-87.45)"
       d="m 384,519.92 a 4.69,4.69 0 1 1 6.26,2.21 4.69,4.69 0 0 1 -6.26,-2.21 z m 1.37,-0.67 a 3.1711985,3.1711985 0 1 0 5.72,-2.74 3.1711985,3.1711985 0 1 0 -5.72,2.74 z"
       class="cls-10" />
    <path
       style="fill:#878787"
       id="path421"
       transform="translate(-70.32,-87.45)"
       d="m 395.24,510.53 v 0 a 3,3 0 0 1 1.59,-2.39 c 2.17,-1.19 3.52,0.11 4.53,1.94 l 2.54,4.65 -1.33,0.73 -2.38,-4.46 c -0.69,-1.26 -1.41,-2.34 -3,-1.49 -1.83,1 -1,2.76 -0.25,4.16 l 2,3.72 -1.33,0.73 -4.29,-7.83 1.33,-0.73 z"
       class="cls-10" />
    <path
       style="fill:#878787"
       id="path423"
       transform="translate(-70.32,-87.45)"
       d="m 420.93,504 -1.26,0.85 -0.69,-1 v 0 a 3.77,3.77 0 0 1 -1.73,2.95 4.41,4.41 0 0 1 -6.17,-1.51 c -1.42,-2.12 -1.29,-4.83 0.93,-6.33 a 3.88,3.88 0 0 1 3.39,-0.44 v 0 l -0.71,-1.06 1.26,-0.84 z m -8.65,0.31 c 1,1.45 2.75,2.25 4.33,1.2 1.58,-1.05 1.6,-3 0.59,-4.47 a 3,3 0 0 0 -4.29,-1 3,3 0 0 0 -0.63,4.26 z"
       class="cls-10" />
    <path
       style="fill:#878787"
       id="path425"
       transform="translate(-70.32,-87.45)"
       d="m 423.34,497.36 c 0.9,1.19 1.82,2.12 3.29,1 1.47,-1.12 0.83,-2.25 -0.08,-3.44 l -3,-4 1.21,-0.91 3.11,4.11 c 1.43,1.89 1.71,3.75 -0.39,5.34 -2.1,1.59 -3.82,0.81 -5.25,-1.08 l -3.11,-4.11 1.21,-0.92 z"
       class="cls-10" />
    <path
       style="fill:#878787"
       id="path427"
       transform="translate(-70.32,-87.45)"
       d="m 437.3,482.16 a 1.4,1.4 0 0 0 -1.51,0.13 1.08,1.08 0 0 0 -0.17,1.47 c 0.55,0.61 1.52,0.15 2.59,-0.22 a 2.72,2.72 0 0 1 3.25,0.54 2.93,2.93 0 0 1 -0.32,4.18 3.22,3.22 0 0 1 -3.86,0.41 l 0.63,-1.32 a 1.91,1.91 0 0 0 2.31,-0.15 1.37,1.37 0 0 0 0.17,-2 c -1.33,-1.49 -3.88,1.71 -5.76,-0.39 a 2.56,2.56 0 0 1 0.31,-3.66 2.72,2.72 0 0 1 2.87,-0.35 z"
       class="cls-10" />
    <path
       style="fill:#878787"
       id="path429"
       transform="translate(-70.32,-87.45)"
       d="m 443.64,480 a 2.89,2.89 0 0 0 4.18,0.07 3,3 0 0 0 0.64,-3.22 l 1.44,-0.37 a 4.51,4.51 0 0 1 -1.18,4.68 4.33,4.33 0 0 1 -6.34,-0.22 c -1.85,-1.88 -2.28,-4.52 -0.29,-6.48 1.99,-1.96 4.79,-1.38 6.55,0.62 z m 3,-4.72 a 2.72,2.72 0 0 0 -3.51,0.17 2.82,2.82 0 0 0 -0.3,3.57 z"
       class="cls-10" />
    <path
       style="fill:#878787"
       id="path431"
       transform="translate(-70.32,-87.45)"
       d="m 449.22,468.87 v 0 a 2.32,2.32 0 0 1 0.46,-2.28 2.71,2.71 0 0 1 1.24,-0.71 l 0.52,1.47 a 1.47,1.47 0 0 0 -0.91,0.39 c -1.14,1.23 0.37,2.75 1.22,3.54 l 3.27,3 -1,1.11 -6.53,-6.08 1,-1.12 z"
       class="cls-10" />
    <path
       style="fill:#878787"
       id="path433"
       transform="translate(-70.32,-87.45)"
       d="m 459.64,464.76 -2.85,-5.91 1.11,-1.31 4.41,9.5 -10.09,-2.83 1.12,-1.31 z"
       class="cls-10" />
    <path
       style="fill:#878787"
       id="path435"
       transform="translate(-70.32,-87.45)"
       d="m 458.23,451.68 a 1.08,1.08 0 0 1 0.18,1.52 1.0823123,1.0823123 0 1 1 -1.7,-1.34 1.1,1.1 0 0 1 1.52,-0.18 z m 9.44,7.88 -0.94,1.19 -7,-5.54 0.94,-1.19 z"
       class="cls-10" />
    <path
       style="fill:#878787"
       id="path437"
       transform="translate(-70.32,-87.45)"
       d="m 469.41,446.79 v 0 a 3.41,3.41 0 0 0 -2.85,1.35 3.19,3.19 0 0 0 0.8,4.5 3.14,3.14 0 0 0 4.49,-0.53 3.47,3.47 0 0 0 0.47,-3.26 v 0 l 1.64,1.2 a 4.87,4.87 0 0 1 -0.94,2.83 4.63,4.63 0 0 1 -6.61,1 4.71,4.71 0 0 1 -1,-6.63 4.9,4.9 0 0 1 2.35,-1.7 z"
       class="cls-10" />
    <path
       style="fill:#878787"
       id="path439"
       transform="translate(-70.32,-87.45)"
       d="m 473.73,444.27 a 2.9,2.9 0 0 0 4.11,-0.79 3.08,3.08 0 0 0 0,-3.29 l 1.33,-0.66 a 4.52,4.52 0 0 1 -0.18,4.82 4.32,4.32 0 0 1 -6.25,1.1 c -2.2,-1.46 -3.17,-3.95 -1.63,-6.28 1.54,-2.33 4.4,-2.34 6.54,-0.75 z m 1.92,-5.23 a 2.74,2.74 0 0 0 -3.4,0.89 2.84,2.84 0 0 0 0.45,3.56 z"
       class="cls-10" />
    <path
       style="fill:#878787"
       id="path441"
       transform="translate(-70.32,-87.45)"
       d="m 488.94,424.88 v 0 a 3.8,3.8 0 0 1 -0.2,3.41 4.4,4.4 0 0 1 -6.18,1.45 c -2.23,-1.23 -3.35,-3.71 -2.05,-6 a 3.85,3.85 0 0 1 2.82,-1.93 v 0 l -7,-3.9 0.74,-1.33 13.7,7.63 -0.74,1.33 z m -5.75,3.48 c 1.53,0.85 3.48,0.76 4.4,-0.9 0.92,-1.66 0.07,-3.38 -1.5,-4.26 a 3,3 0 0 0 -4.29,1.05 3,3 0 0 0 1.39,4.11 z"
       class="cls-10" />
    <path
       style="fill:#878787"
       id="path443"
       transform="translate(-70.32,-87.45)"
       d="m 489.44,417.72 a 2.89,2.89 0 0 0 4,-1.29 3,3 0 0 0 -0.43,-3.25 l 1.24,-0.83 a 4.53,4.53 0 0 1 0.4,4.81 4.33,4.33 0 0 1 -6.07,1.86 c -2.36,-1.18 -3.63,-3.53 -2.38,-6 1.25,-2.47 4.09,-2.87 6.4,-1.55 z m 1.26,-5.42 a 2.72,2.72 0 0 0 -3.26,1.3 2.81,2.81 0 0 0 0.88,3.47 z"
       class="cls-10" />
    <path
       style="fill:#878787"
       id="path445"
       transform="translate(-70.32,-87.45)"
       d="m 501.39,401.93 -0.6,1.39 -6.91,-3 -0.37,0.86 -1.29,-0.56 0.37,-0.85 -2.95,-1.27 0.6,-1.4 2.95,1.27 0.63,-1.47 1.29,0.56 -0.63,1.46 z"
       class="cls-10" />
    <path
       style="fill:#878787"
       id="path447"
       transform="translate(-70.32,-87.45)"
       d="m 498.7,396.94 a 4.7,4.7 0 1 1 6.09,-2.65 4.69,4.69 0 0 1 -6.09,2.65 z m 0.54,-1.43 a 3.17,3.17 0 1 0 -1.91,-4.16 3.16,3.16 0 0 0 1.91,4.16 z"
       class="cls-10" />
    <path
       style="fill:#878787"
       id="path449"
       transform="translate(-70.32,-87.45)"
       d="m 504.26,383.78 c 1.41,0.5 2.69,0.77 3.3,-1 0.61,-1.77 -0.55,-2.33 -2,-2.83 l -4.7,-1.64 0.51,-1.44 4.86,1.7 c 2.24,0.79 3.5,2.18 2.63,4.67 -0.87,2.49 -2.73,2.79 -5,2 l -4.86,-1.7 0.5,-1.43 z"
       class="cls-10" />
    <path
       style="fill:#878787"
       id="path451"
       transform="translate(-70.32,-87.45)"
       d="m 505.62,370.55 a 1.43,1.43 0 0 0 -1.23,0.88 1.08,1.08 0 0 0 0.61,1.35 c 0.77,0.25 1.37,-0.64 2.11,-1.5 a 2.73,2.73 0 0 1 3.07,-1.2 2.93,2.93 0 0 1 1.86,3.76 3.22,3.22 0 0 1 -3.11,2.32 l -0.14,-1.46 c 0.91,-0.11 1.61,-0.35 1.91,-1.3 a 1.35,1.35 0 0 0 -0.87,-1.79 c -1.9,-0.61 -2.46,3.44 -5.14,2.59 a 2.54,2.54 0 0 1 -1.61,-3.3 2.7,2.7 0 0 1 2.29,-1.76 z"
       class="cls-10" />
  </g>
</svg>
