<svg xmlns="http://www.w3.org/2000/svg" viewBox="80 50 1200 600">
<style type="text/css">  
	.st0{fill:#000091;}
	.st1{fill:#E1000F;}
	.st2{fill:#9D9D9C;}
	.st3{fill:none;}
</style>
<path d="M84 209.6h16.2l15.2 26 15.2-26h16.2v63.2H134v-44.9l-14.1 23.3h-9l-14.1-23.3v44.9H84V209.6z"/>
<path d="M164.4 209.6h12.8v63.2h-12.8V209.6z"/>
<path d="M194.9 209.6h16.4l28.2 45.2v-45.2h12.8v63.2h-16.4l-28.2-45.4v45.4h-12.8V209.6z"/>
<path d="M270.1 209.6h12.8v63.2h-12.8V209.6z"/>
<path d="M304.2 255.4c3.8 4.9 8.8 7.8 14 7.8 5.1 0 8.1-2.7 8.1-7.3 0-11.3-28.9-8.8-28.9-29.8 0-10 8.2-18.3 20.2-18.3 9.5 0 16.8 4.2 22.1 10.6l-9.4 8.4c-3.7-4.8-7.8-7.8-12.6-7.8 -4.4 0-7.3 2.9-7.3 6.6 0 11.3 28.9 8.7 28.9 30 -0.2 11.7-9.4 18.9-20.9 18.9 -10.6 0-17.9-3.9-23.5-10.6L304.2 255.4z"/>
<path d="M345.8 209.6h51.8v11.6h-19.5v51.5h-12.8v-51.5h-19.5V209.6z"/>
<path d="M408.8 209.6h36.8v10.9h-24v14.6H442V246h-20.4v15.8h24v10.9h-36.8L408.8 209.6 408.8 209.6zM409.9 192h13.2l10.2 12.2h-11.7L409.9 192z"/>
<path d="M460.5 209.6h19.3c13.9 0 22.5 7.1 22.5 18.9 0 7.6-3.7 13.3-10.1 16.3l19.8 28h-15.3l-16.8-25.5h-6.6v25.5h-12.8V209.6zM473.3 220.5v15.8h7.2c5.4 0 8.6-2.9 8.6-8 0-4.8-3.2-7.8-8.6-7.8H473.3z"/>
<path d="M520 209.6h36.8v10.9h-24v14.6h20.4V246h-20.4v15.8h24v10.9H520V209.6z"/>
<path d="M84 300.6h24.8c20 0 33.6 14.5 33.6 31.6s-13.5 31.6-33.6 31.6H84V300.6zM96.8 312.3v39.9H109c11.7 0 20.2-8.8 20.2-19.9 0-11.3-8.5-19.9-20.2-19.9H96.8V312.3z"/>
<path d="M154.7 300.6h36.8v10.9h-24v14.6h20.4V337h-20.4v15.8h24v10.9h-36.8V300.6z"/>
<path d="M229.9 300.6h12.8v51.5h24v11.6h-36.8L229.9 300.6 229.9 300.6z"/>
<path d="M264 326.6l8.1-26h13l-10.5 26H264z"/>
<path d="M295 300.6h12.8v63.2H295V300.6z"/>
<path d="M325.5 300.6H342l28.2 45.2v-45.2H383v63.2h-16.4l-28.2-45.4v45.4h-12.8v-63.2H325.5z"/>
<path d="M394.2 300.6H446v11.6h-19.5v51.5h-12.8v-51.5h-19.5V300.6z"/>
<path d="M457.3 300.6h36.8v10.9h-24v14.6h20.4V337h-20.4v15.8h24v10.9h-36.8V300.6zM469.7 295.2l10.2-12.2h13.2l-11.7 12.2H469.7z"/>
<path d="M509 300.6h19.3c13.9 0 22.5 7.1 22.5 18.9 0 7.6-3.7 13.3-10.1 16.3l19.8 28h-15.3l-16.8-25.5h-6.6v25.5H509V300.6zM521.8 311.6v15.8h7.2c5.4 0 8.6-2.9 8.6-8 0-4.8-3.2-7.8-8.6-7.8H521.8z"/>
<path d="M568.4 300.6h12.8v63.2h-12.8V300.6z"/>
<path d="M598.9 300.6h36.8v10.9h-24v14.6h20.4V337h-20.4v15.8h24v10.9h-36.8V300.6z"/>
<path d="M687.5 300.6h12.8V339c0 16.6-9.7 26.5-25.6 26.5 -15.8 0-25.5-9.9-25.5-26.5v-38.4H662v39.5c0 8.5 4.8 13.4 12.8 13.4 7.8 0 12.7-5 12.7-13.4V300.6z"/>
<path d="M716.2 300.6h19.3c13.9 0 22.5 7.1 22.5 18.9 0 7.6-3.7 13.3-10.1 16.3l19.8 28h-15.3l-16.8-25.5H729v25.5h-12.8V300.6zM729 311.6v15.8h7.2c5.4 0 8.6-2.9 8.6-8 0-4.8-3.2-7.8-8.6-7.8H729z"/>
<path d="M289.5 538.2c1.7 0 3.2 1.3 2.4 4.6l-8 1.9C285.4 540.9 287.7 538.2 289.5 538.2M293.9 551h-1.6c-2 2.4-4.1 4.2-6.3 4.2 -2.2 0-3.3-1.3-3.3-4.2 0-1.2 0.1-2.4 0.4-3.5l12.8-4.2c2.5-5.9-0.5-8.5-4-8.5 -6.1 0-13 10.1-13 19 0 4 1.9 6.2 4.9 6.2C287.3 560 291 556.6 293.9 551M291.4 532.4l9-8.4v-1h-4.9l-5.6 9.4H291.4zM263.7 538.3h4.3l-6.8 18.5c-0.6 1.6 0.2 3.1 1.9 3.1 3.8 0 10-3.8 12.2-9h-1.2c-1.7 1.8-5 4.2-7.8 4.7l6.2-17.4h6.3l0.8-2.6h-6.2l2.4-6.7h-2.5l-4.4 6.7 -5.2 0.7L263.7 538.3 263.7 538.3zM257.9 537.5c0.5-1.7-0.6-2.7-1.5-2.7 -3.7 0-8.1 3.3-9.9 8h1.2c1.2-1.7 3.2-3.6 5.1-3.9l-7.1 18.4c-0.6 1.7 0.6 2.7 1.5 2.7 3.5 0 7.6-3.4 9.4-8h-1.2c-1.2 1.7-3.2 3.6-5.1 3.9L257.9 537.5zM259.2 528.2c1.7 0 3.1-1.3 3.1-3.1 0-1.7-1.4-3.1-3.1-3.1s-3.1 1.4-3.1 3.1C256.2 526.9 257.5 528.2 259.2 528.2M218.4 556.5c-0.9 2.1 0 3.4 2.1 3.4 1.3 0 1.8-0.3 2.3-1.7l4.9-13c2.3-2.8 6.9-5.7 8.8-5.7 1.3 0 1.2 1.1 0.3 2.8l-7.5 14.5c-0.7 1.4 0.2 3.1 1.9 3.1 3.7 0 8.1-3.3 9.9-8h-1.2c-1.2 1.7-3.2 3.6-5.1 3.9l6.5-13.1c0.8-1.7 1.3-3.2 1.3-4.5 0-2.1-1.2-3.5-3.4-3.5 -3.2 0-6.4 3.6-10.3 8.1v-3.4c0-2.5-0.8-4.6-3-4.6 -1.4 0-2.7 1.2-4 2.9v0.5c2.4-0.1 3.5 3.5 1.8 7.3L218.4 556.5zM218.3 540.4c0.9-3 0.4-5.6-1.9-5.6 -2.7 0-3.4 2.1-6.2 8.1v-3.4c0-2.5-0.8-4.6-3-4.6 -2.6 0-5 4-6.8 8h1.2c1.3-1.8 2.4-2.9 3.3-2.9 1.1 0 1.7 1.7 0 5.5l-5 11.1c-0.9 2.1 0 3.4 2.1 3.4 1.3 0 1.8-0.3 2.3-1.7l4.9-13c1.4-1.7 2.6-3.2 4.2-4.9L218.3 540.4 218.3 540.4zM189.9 538.2c1.7 0 3.2 1.3 2.4 4.6l-8 1.9C185.7 540.9 188.1 538.2 189.9 538.2M194.3 551h-1.6c-2 2.4-4.1 4.2-6.3 4.2s-3.3-1.3-3.3-4.2c0-1.2 0.1-2.4 0.4-3.5l12.8-4.2c2.5-5.9-0.5-8.5-4-8.5 -6.1 0-13 10.1-13 19 0 4 1.9 6.2 4.9 6.2C187.7 560 191.3 556.6 194.3 551M164.1 538.3h4.3l-6.8 18.5c-0.6 1.6 0.2 3.1 1.9 3.1 3.8 0 10-3.8 12.2-9h-1.2c-1.7 1.8-5 4.2-7.8 4.7l6.2-17.4h6.3l0.8-2.6h-6.2l2.4-6.7h-2.5l-4.4 6.7 -5.2 0.7V538.3zM140.7 552.7c0-5.7 6.3-13.4 9.9-13.4 0.8 0 1.5 0.1 2.2 0.3l-3.7 9.9c-2.1 2.6-5.4 5.7-6.9 5.7C141.2 555.2 140.7 554.5 140.7 552.7M160.2 533.7l-1.9-0.1 -2.2 2.1h-0.5c-10.6 0-19.7 11.9-19.7 20.5 0 2.4 1.5 3.8 3.8 3.8 2.7 0 5.4-3.9 8.4-8.1l-0.1 1.5c-0.4 4.3 0.9 6.6 3.1 6.6 2.6 0 5-4 6.8-8h-1.2c-1.3 1.8-2.4 2.9-3.3 2.9 -1 0-1.7-1.8 0-5.5L160.2 533.7zM137.7 540.4c0.9-3 0.4-5.6-1.9-5.6 -2.7 0-3.4 2.1-6.2 8.1v-3.4c0-2.5-0.8-4.6-3-4.6 -2.6 0-5 4-6.8 8h1.2c1.3-1.8 2.4-2.9 3.3-2.9 1.1 0 1.7 1.7 0 5.5l-5 11.1c-0.9 2.1 0 3.4 2.1 3.4 1.3 0 1.8-0.3 2.3-1.7l4.9-13c1.4-1.7 2.6-3.2 4.2-4.9L137.7 540.4 137.7 540.4zM102.2 559l0.5-1.4c-6.2-1.2-6.9-1.2-4.5-7.9l2.5-6.9h6.8c3.1 0 3.1 1.3 2.6 4.6h1.8l4.1-11.2h-1.8c-1.5 2.6-2.7 4.6-6.1 4.6h-6.7l3.6-9.8c1.1-3.1 1.8-3.8 5.9-3.8h3c4.3 0 4.8 1.2 4.8 5.5h1.7l1.4-7.6H96.3l-0.5 1.4c5 1 5.4 1.5 3.1 7.9l-5.6 15.2c-2.3 6.3-3.3 6.9-9 7.9L84 559H102.2z"/>
<path d="M227.5 480.3c1.7 0 3.2 1.3 2.4 4.6l-8 1.9C223.3 483 225.7 480.3 227.5 480.3M231.9 493.1h-1.6c-2 2.4-4.1 4.2-6.3 4.2s-3.3-1.3-3.3-4.2c0-1.2 0.1-2.4 0.4-3.5l12.8-4.2c2.5-5.9-0.5-8.5-4-8.5 -6.1 0-13 10.1-13 19 0 4 1.9 6.2 4.9 6.2C225.3 502.1 229 498.7 231.9 493.1M229.4 474.5l9-8.4v-1h-4.9l-5.6 9.4H229.4zM201.7 480.5h4.3l-6.8 18.5c-0.6 1.6 0.2 3.1 1.9 3.1 3.8 0 10-3.8 12.2-9H212c-1.7 1.8-5 4.2-7.8 4.7l6.2-17.4h6.3l0.8-2.6h-6.2l2.4-6.7h-2.5l-4.4 6.7 -5.2 0.7L201.7 480.5 201.7 480.5zM195.9 479.6c0.5-1.7-0.6-2.7-1.5-2.7 -3.7 0-8.1 3.3-9.9 8h1.2c1.2-1.7 3.2-3.6 5.1-3.9l-7.1 18.4c-0.6 1.7 0.6 2.7 1.5 2.7 3.5 0 7.6-3.4 9.4-8h-1.2c-1.2 1.7-3.2 3.6-5.1 3.9L195.9 479.6zM197.2 470.3c1.7 0 3.1-1.3 3.1-3.1 0-1.7-1.4-3.1-3.1-3.1 -1.7 0-3.1 1.4-3.1 3.1C194.2 469 195.5 470.3 197.2 470.3M172.6 498l12.9-33.9 -0.4-0.5 -8.1 0.9v1l1.6 1.2c1.4 1.1 1 2.2-0.3 5.6l-10.1 26.6c-0.7 1.4 0.2 3.1 1.9 3.1 3.7 0 7.6-3.3 9.4-8h-1.2C177 495.8 174.5 497.7 172.6 498M148.1 494.9c0-5.7 6.3-13.4 9.9-13.4 0.8 0 1.5 0.1 2.2 0.3l-3.7 9.9c-2.1 2.6-5.4 5.7-6.9 5.7C148.6 497.3 148.1 496.6 148.1 494.9M167.5 475.8l-1.9-0.1 -2.2 2.1H163c-10.6 0-19.7 11.9-19.7 20.5 0 2.4 1.5 3.8 3.8 3.8 2.7 0 5.4-3.9 8.4-8.1l-0.1 1.5c-0.4 4.3 0.9 6.6 3.1 6.6 2.6 0 5-4 6.8-8h-1.2c-1.3 1.8-2.4 2.9-3.3 2.9 -1 0-1.7-1.8 0-5.5L167.5 475.8zM120.4 506.6c0-2.5 2.4-4 5.7-5.3 1.1 0.6 2.8 1.2 5 1.9 3.5 1.2 4.9 1.6 4.9 2.7 0 2.3-3.8 4-9.1 4C122.5 509.8 120.4 508.9 120.4 506.6M130 491.6c-1.5 0-2.1-1.3-2.1-2.8 0-4.1 2.2-10.2 5.7-10.2 1.5 0 2.1 1.3 2.1 2.8C135.7 485.5 133.5 491.6 130 491.6M140 504.3c0-3-2.6-4-6.9-5.3 -3.7-1.1-5.4-1.4-5.4-2.6 0-1 0.8-2.1 2.4-3 6.1-0.3 10-5.8 10-10.4 0-1-0.2-1.8-0.5-2.5h5.1l0.8-2.6h-8.2c-1-0.6-2.1-0.9-3.3-0.9 -6.4 0-10.6 5.6-10.6 10.2 0 3.5 2.2 5.6 4.9 6.2 -3 1.3-4.7 2.9-4.7 4.8 0 1.1 0.4 1.8 1.3 2.5 -6.9 2-9.7 4.4-9.7 7.6s4.2 4.5 9.2 4.5C133 512.7 140 508.1 140 504.3M107.7 484.5c3.1 0 3.1 1.3 2.6 4.6h1.8l4.1-11.2h-1.8c-1.5 2.6-2.7 4.6-6.1 4.6h-6.7l3.4-9.3c1.1-3.1 1.8-3.7 5.9-3.7h3c4.3 0 4.8 1.2 4.8 5.5h1.7l1.4-7.6H96.3l-0.5 1.4c5 1 5.4 1.5 3.1 7.9l-5.6 15.2c-2.3 6.3-3.3 6.9-9 7.9l-0.4 1.4h28.4l5.1-8.1h-1.9c-3.2 3.1-7.3 6-13 6 -7.5 0-6.9-0.3-4.4-7.2l2.7-7.4L107.7 484.5 107.7 484.5zM111.4 465.1l9-6.2v-1h-5.5l-5 7.2H111.4z"/>
<path d="M224.5 422.4c1.7 0 3.2 1.3 2.4 4.6l-8 1.9C220.3 425.2 222.7 422.4 224.5 422.4M228.9 435.3h-1.6c-2 2.4-4.1 4.2-6.3 4.2s-3.3-1.3-3.3-4.2c0-1.2 0.1-2.4 0.4-3.5l12.8-4.2c2.5-5.9-0.5-8.5-4-8.5 -6.1 0-13 10.1-13 19 0 4 1.9 6.2 4.9 6.2C222.3 444.2 225.9 440.8 228.9 435.3M226.4 416.6l9-8.4v-1h-4.9l-5.6 9.4H226.4zM199.8 422.6h3.4l-6.8 18.5c-0.6 1.6 0.2 3.1 1.9 3.1 3.8 0 10-3.8 12.2-9h-1.2c-1.7 1.8-5 4.2-7.8 4.7l6.2-17.4h6.3l0.8-2.6h-6.2l2.4-6.7h-2.5l-4.4 6.7 -4.4 0.7v2H199.8zM196.5 424.7c0.9-3 0.4-5.6-1.9-5.6 -2.7 0-3.4 2.1-6.2 8.1v-3.4c0-2.5-0.8-4.6-3-4.6 -2.6 0-5 4-6.8 8h1.2c1.3-1.8 2.4-2.9 3.3-2.9 1.1 0 1.7 1.7 0 5.5l-5 11.1c-0.9 2.1 0 3.4 2.1 3.4 1.3 0 1.8-0.3 2.3-1.7l4.9-13c1.4-1.7 2.6-3.2 4.2-4.9H196.5zM168.1 422.4c1.7 0 3.2 1.3 2.4 4.6l-8 1.9C163.9 425.2 166.2 422.4 168.1 422.4M172.5 435.3h-1.6c-2 2.4-4.1 4.2-6.3 4.2s-3.3-1.3-3.3-4.2c0-1.2 0.1-2.4 0.4-3.5l12.8-4.2c2.5-5.9-0.5-8.5-4-8.5 -6.1 0-13 10.1-13 19 0 4 1.9 6.2 4.9 6.2C165.9 444.2 169.5 440.8 172.5 435.3M141 440.4c-1.3 0-3.1-1.2-3.1-2.2 0-0.3 0.6-1.8 1.3-3.6l2.1-5.5c2.2-2.6 5.6-5.5 7.5-5.5 1.2 0 2 0.7 2 2.5C150.8 431.2 146.1 440.4 141 440.4M155.6 424.1c0-3.8-1.4-5.1-4-5.1 -3.2 0-6.3 3.4-9.4 7.6l7.7-20.3 -0.4-0.5 -8.1 0.9v1l1.6 1.2c1.4 1.1 1 2.3-0.3 5.6l-8.3 21.5c-0.6 1.6-1.3 3.4-1.3 3.9 0 2.2 3 4.3 5.7 4.3C145.1 444.2 155.6 432.8 155.6 424.1M130.4 421.7c0.5-1.7-0.6-2.7-1.5-2.7 -3.7 0-8.1 3.3-9.9 8h1.2c1.2-1.7 3.2-3.6 5.1-3.9l-7.1 18.4c-0.6 1.7 0.6 2.7 1.5 2.7 3.5 0 7.6-3.4 9.4-8H128c-1.2 1.7-3.2 3.6-5.1 3.9L130.4 421.7zM131.7 412.4c1.7 0 3.1-1.3 3.1-3.1 0-1.7-1.4-3.1-3.1-3.1 -1.7 0-3.1 1.4-3.1 3.1C128.7 411.1 130 412.4 131.7 412.4M113 409.5H96.2l-0.5 1.4c5 1 5.4 1.5 3.1 7.9L93.4 434c-2.3 6.3-3.3 6.9-9 7.9l-0.4 1.4h25.7l5.6-9.9h-1.9c-3.1 3.5-6.9 7.8-12.5 7.8 -4.3 0-4.8-0.7-2.5-7.2l5.5-15.2c2.3-6.3 3.3-6.9 9-7.9L113 409.5z"/>
<path class="st0" d="M179.1 157.8c0.9-0.9 1.8-1.9 2.7-2.8l0 0c1.7-1.9 3.3-3.7 5.3-5.4 0.6-0.5 1.2-1 1.7-1.4 0.2-0.2 0.2-0.5 0.3-0.6 -0.8 0.3-1.3 1-2.1 1.3 -0.2 0-0.3-0.2-0.2-0.3 0.6-0.4 1.1-0.8 1.7-1.3h-0.1c-0.2 0-0.2-0.2-0.2-0.3 -2.1-0.3-3.6 1.1-5.1 2.4 -0.3 0.2-0.6-0.2-0.8-0.2 -2.4 0.8-4.1 2.9-6.5 3.8 0-0.2 0-0.2 0-0.3 -1 0.3-1.9 0.9-2.9 1.1 -1.4 0.3-2.7 0.2-4 0.2 -1.9 0.2-3.8 0.6-5.8 1 -0.1 0-0.1 0-0.2 0 -1 0.3-2 0.7-3 1.2 0 0-0.1 0-0.1 0.1 -0.1 0.1-0.2 0.2-0.2 0.3 -0.3 0.4-0.6 0.7-1.1 0.9 -1 0.5-1.8 1.4-2.6 2.1 -0.1 0.1-0.2 0.1-0.3 0.1 -0.9 0.8-1.7 1.6-2.6 2.4 -0.1 0.1-0.3 0.1-0.5 0.1l0 0c0-0.1 0.1-0.1 0.1-0.2 0.1-0.2 0.3-0.4 0.4-0.7 0.2-0.2 0.3-0.5 0.5-0.7 0.2-0.3 0.4-0.7 0.7-1 0.1-0.1 0-0.2 0-0.2 -0.1-0.1-0.1-0.1-0.2-0.1 0.8-0.8 1.7-1.4 2.7-2l0 0c-0.1 0-0.3 0-0.2-0.2 0.1-0.1 0.2-0.3 0.3-0.4 0 0 0-0.1 0.1-0.1l-0.1-0.1c-0.3 0.2-0.5 0.3-0.7 0.5 -0.4 0.3-0.7 1-1.3 1 0 0-0.1 0-0.2 0 -0.1 0-0.1 0-0.2-0.1l0 0 0 0 0 0c0 0 0-0.1 0.1-0.1l0.1-0.1c0 0 0-0.1 0.1-0.1 0-0.1 0.1-0.1 0.1-0.2l0.1-0.1c0.1-0.1 0.1-0.2 0.2-0.3 0-0.1 0.1-0.1 0.1-0.2 0.1-0.1 0.1-0.2 0.2-0.3 0.1-0.1 0-0.2-0.1-0.3 0.3-0.4 0.7-0.7 1.1-0.9l0 0c0.6-0.3 1.2-0.7 1.8-1 0.1-0.1 0.2-0.2 0.3-0.2 -0.9 0.3-1.7 0.7-2.5 1.2 0 0-0.2 0.1-0.3 0.1 0 0-0.2 0.1-0.4-0.1v-0.1c0.2-0.3 0.6-0.5 1-0.8 0.2 0 0.3 0 0.3 0.2 5.1-4 12-3 17.9-5.1 0.5-0.3 1-0.6 1.4-1 0.8-0.3 1.4-1.1 2.4-1.6 1.3-1 2.2-2.1 2.7-3.6 0-0.2-0.2-0.3-0.2-0.3 -2.1 2.2-4.4 4-7 5.2 -3.3 1.7-7 1.4-10.5 1.9 0.2-0.3 0.5-0.3 0.8-0.3 0-0.5 0.3-0.6 0.6-1 0.2 0 0.3 0 0.5 0s0.2-0.3 0.3-0.3c0.3 0 0.8-0.2 0.6-0.2 -0.5-0.6-1.4 0.5-2.2 0 0.3-0.3 0.2-0.8 0.5-1 0.2 0 0.5 0 0.6 0 0-0.3 0.3-0.6 0.3-0.6 2.4-1.4 4.6-2.5 6.8-3.8 -0.5 0-0.8 0.5-1.3 0.2 0.3 0 0-0.5 0.3-0.5 1.7-0.5 3.2-1.4 4.9-2.1 -0.6 0-1.1 0.5-1.7 0 0.3-0.2 0.5-0.5 1-0.5 0-0.2 0-0.3 0-0.5s0.2-0.2 0.3-0.2c-0.2 0-0.3-0.2-0.3-0.2 0.2-0.3 0.6-0.2 1-0.5 -0.2 0-0.5 0-0.5-0.2 0.5-0.6 1.3-0.8 2.1-1 -0.2-0.3-0.6 0-0.6-0.3 0-0.2 0.2-0.2 0.3-0.2 -0.2 0-0.2 0-0.3 0 -0.3-0.2-0.2-0.5-0.2-0.6 1-1.1 1-2.5 1.4-3.8 -0.2 0-0.3 0-0.3-0.2 -1.6 1.7-4.1 2.4-6.5 3 -0.2 0-0.6 0-0.8 0 -0.8 0.3-1.9 0.3-2.7-0.2 -0.6-0.3-1-0.8-1.6-1.3 -1.3-0.8-2.5-1.4-4-1.9 -4-1.3-8.1-1.9-12.2-1.7 1.7-1 3.7-1 5.5-1.6 2.7-0.8 5.2-1.7 8.1-1.6 -0.5-0.2-1.1 0-1.6 0 -2.2-0.2-4.4 0.5-6.8 1 -1.6 0.3-3 1-4.6 1.3 -1 0.3-1.4 1.3-2.5 1.1 0 0 0-0.3 0-0.5 1.6-1.9 3.5-3.8 6-4 2.9-0.5 5.5 0 8.4 0.3 2.1 0.2 4 0.6 6 1.1 0.8 0 1 1.3 1.6 1.4 1 0.3 1.9 0 2.9 0.6 0-0.3-0.2-0.6 0-1 0.6-0.6 1.4 0.2 2.1-0.2 1.3-0.8-1.1-2.2-1.7-3.3 0-0.2 0.2-0.3 0.2-0.3 1.3 1.1 2.2 2.4 3.8 3.2 0.8 0.3 2.7 0.8 2.4-0.2 -0.8-1.7-2.4-3.2-3.6-4.8 0-0.2 0-0.5 0-0.6 -0.3 0-0.3-0.2-0.5-0.3 0-0.2 0-0.5 0-0.6 -0.6-0.3-0.5-1-0.8-1.4 -0.5-0.8-0.2-1.9-0.5-2.9s-0.5-1.7-0.6-2.7c-0.5-2.7-1.1-5.1-1.4-7.6 -0.3-3 1.7-5.4 3.2-8.1 1.1-1.9 2.4-3.8 4.4-5.1 0.5-1.9 1.7-3.5 3-5.1 1.3-1.5 3.4-2.5 4.9-3.2 2.2-1 4.2-1.6 4.2-1.6H83.8v83.9h77c3-2.2 6-3.2 10.2-5.3C173 161.4 177.6 159.3 179.1 157.8zM154.8 146.4c-0.3 0-1 0.2-0.8-0.2 0.2-0.8 1.3-0.8 1.9-1.1 0.3-0.2 0.8-0.5 1.1-0.3 0.3 0.5 0.8 0.3 1.1 0.6C157.1 146.4 155.9 145.9 154.8 146.4zM130.5 142.9c0 0-0.2-0.2-0.2-0.3 2.1-2.7 3.6-5.2 5.1-8.1 2.1-1.1 3.8-2.7 5.4-4.4 2.7-2.9 5.5-5.4 8.9-7 1.3-0.5 2.9-0.3 4.1 0.2 -0.5 0.6-1.3 0.5-1.9 1 -0.2 0-0.3 0-0.5-0.2 0.2-0.2 0.2-0.3 0.2-0.5 -1.6 1.7-3.8 2.5-5.1 4.6 -1 1.6-1.6 3.6-3.6 4.1 -0.6 0.2 0.2-0.5-0.2-0.3C137.8 135 134.3 138.6 130.5 142.9zM143.7 132.5c-0.2 0.3-0.3 0.4-0.5 0.6 -0.2 0.3-0.3 0.5-0.6 0.6 -0.2 0-0.3 0-0.3-0.2 0.2-0.6 0.6-1.3 1.3-1.4C143.7 132.1 143.7 132.3 143.7 132.5zM151 156.2c-0.1 0.2-0.2 0.3-0.4 0.5 0.2 0 0.3 0.1 0.2 0.2 -0.4 0.3-0.7 0.7-1.2 0.8 0 0-0.1 0-0.2 0 -0.2 0.2-0.4 0.4-0.6 0.6 -0.2 0.2-1.1 0-0.8-0.2 0.4-0.4 0.8-0.7 1.2-1.1 0.2-0.2 0.5-0.4 0.7-0.6 0.1-0.1 0.2-0.3 0.3-0.4C150.3 156 151.2 155.9 151 156.2zM148.2 154.9L148.2 154.9c-0.6 0.4-1.2 0.9-1.8 1.2 -0.7 0.4-1.4 0.7-2.1 1l0 0c-0.1-0.1-0.2-0.1-0.3-0.1 -0.6 0.3-1.1 0.8-1.6 1.2 -0.1 0.1-0.1 0.1-0.2 0.2l0 0 0 0c-0.1 0.1-0.2 0.1-0.2 0.2l0 0 0 0c-0.1 0.1-0.2 0.2-0.3 0.4 -0.1 0.1-0.1 0.2-0.2 0.2 -0.1 0.1-0.4 0.1-0.3-0.1l0 0c-0.1 0-0.2 0.1-0.3 0.1s-0.2 0.1-0.2 0.1h-0.1 -0.1c-0.2 0.2-0.4 0.3-0.6 0.5 -0.3 0.3-0.6 0.6-0.9 1l0 0 0 0c0 0 0 0 0 0.1 0 0 0 0-0.1 0.1l0 0c0 0.1-0.1 0.1-0.1 0.2l0 0 -0.1 0.1c0 0 0-0.1-0.1-0.1v-0.1c0-0.1-0.1-0.2-0.1-0.3l0 0v-0.1c0.2-0.2 0.3-0.4 0.5-0.6l0 0c0.1-0.1 0.1-0.1 0.2-0.2 0.1-0.1 0.2-0.2 0.3-0.3l0.1-0.1c0.2-0.2 0.3-0.4 0.5-0.7l0 0c0 0 0-0.1 0.1-0.1 0.1-0.1 0.1-0.2 0.2-0.3 0.1-0.1 0.1-0.2 0.2-0.3l0 0 0 0c0 0 0 0 0-0.1 0.1-0.1 0.1-0.2 0.2-0.4l0 0v-0.1c0-0.1 0-0.1 0-0.2l0 0 0 0c0-0.1 0-0.2 0.1-0.2V157c0.2-0.3 0.4-0.6 0.6-0.9 0 0 0 0-0.1 0 -0.2 0.1-0.4 0.3-0.6 0.5 -0.2 0.1-0.5-0.1-0.3-0.2 0.1-0.1 0.2-0.2 0.4-0.3l0 0c0.3-0.3 0.5-0.6 0.8-0.8 0.2-0.1 0.3-0.2 0.5-0.4 0 0 0 0 0.1-0.1s0.2-0.3 0.4-0.4l0 0c1.5-1.5 4.1-1.4 6.1-2.3 0.8-0.3 1.7 0.2 2.5 0 0.5 0 1 0 1.4 0.3C150.8 153.2 149.5 154.1 148.2 154.9zM151.4 143.9c-0.2-0.2 0.5 0 0.6-0.3 -0.5 0-0.8 0-1.3 0 -0.2 0-0.2-0.2-0.2-0.3 -0.8 0.2-1.7 0.5-2.5 0.6 -1.1 0.3-2.1 1.1-3.3 1.4 -1.7 0.6-3.2 2.1-5.1 2.7 -0.2 0-0.2-0.2-0.2-0.3 0.2-0.5 0.8-0.6 1.1-1.1 0-0.2 0-0.3-0.2-0.3 1.3-1.7 3-2.7 4.6-4.1 0-0.2 0-0.3 0-0.5 0.5-0.6 1.3-1 1.6-1.7 0.2-0.5 0.8-1.1 1.6-1.4 -0.2-0.2-0.5-0.2-0.5-0.5 -0.6 0-1.3 0.3-1.9-0.2 0.3-0.3 0.6-0.5 1-0.6 -0.1 0-0.3-0.1-0.4-0.2 -0.2-0.3 0.3-0.7 0.8-0.8 0.6-0.2 1.4-0.2 1.9-0.6 -1.1-0.2-2.4 0.3-3.5-0.3 0.8-2.1 2.1-3.8 4-4.8 0.2 0 0.5 0 0.5 0.2 0 0.8-0.5 1.4-1.3 1.6 1.3 0.3 2.5 0.3 3.8 1 -0.2 0.3-0.5 0.2-0.6 0.2 0.8 0.5 1.7 0.2 2.5 0.8 -0.5 0.5-1 0-1.4 0 4.9 1.4 10.1 2.5 14.3 5.7 -3.5 1.7-7.1 2.5-10.9 3.3 -0.5 0-0.8 0-1.3-0.2 0 0.2 0 0.5-0.2 0.5 -0.6 0-1.1 0-1.6 0.3C152.9 144.2 151.9 144.3 151.4 143.9z"/>
<path class="st1" d="M314.4 83.8h-90.2c0 0 0.2 0 0.9 0.4s1.7 0.9 2.3 1.2c1.2 0.6 2.3 1.4 3 2.5 0.3 0.5 0.8 1.4 0.5 2.1 -0.3 0.8-0.5 2.1-1.3 2.4 -1 0.5-2.2 0.5-3.3 0.3 -0.6 0-1.3-0.2-1.9-0.3 2.4 1 4.6 2.1 6.2 4.3 0.2 0.3 0.8 0.5 1.4 0.5 0.2 0 0.2 0.3 0.2 0.5 -0.3 0.3-0.6 0.5-0.5 1 0.2 0 0.3 0 0.5 0 0.8-0.3 0.6-1.9 1.7-1.4 0.8 0.5 1.1 1.6 0.6 2.4 -0.6 0.6-1.3 1.1-1.9 1.6 -0.2 0.3-0.2 0.8 0 1.1 0.5 0.6 0.6 1.3 0.8 1.9 0.5 1.1 0.6 2.4 1.1 3.5 0.6 2.4 1.3 4.8 1.1 7.1 0 1.3-0.6 2.4-0.2 3.6 0.3 1.3 1.1 2.2 1.7 3.3 0.6 1 1.3 1.6 1.7 2.5 1 1.6 2.7 3.2 1.9 5.1 -0.5 1.1-2.2 1-3.3 1.6 -1 0.8-0.2 2.1 0.3 2.9 0.8 1.4-1 2.4-2.1 2.9 0.3 0.5 1 0.3 1.1 0.6 0.2 0.8 1 1.3 0.5 2.1 -0.6 1-2.5 1.4-1.6 2.9 0.6 1.1 0.2 2.3-0.2 3.5 -0.5 1.4-1.7 2.1-2.9 2.4 -1 0.3-2.1 0.3-3 0.2 -0.3-0.2-0.6-0.3-1-0.3 -2.7-0.3-5.4-1.1-8.1-1.1 -0.8 0.2-1.6 0.3-2.2 0.6 -0.7 0.5-1.4 1.1-1.9 1.7l0 0c-0.1 0.1-0.2 0.3-0.3 0.4 -0.1 0.1-0.1 0.2-0.2 0.2 0 0.1-0.1 0.1-0.1 0.2 -0.5 0.6-0.9 1.2-1.2 1.8 0 0 0 0.1-0.1 0.1 0 0.1-0.1 0.1-0.1 0.2 -0.5 1-0.9 1.9-1.2 2.9 -1.1 3.6-0.6 6.7 0.1 7.5 0.2 0.2 5.2 1.8 8.7 3.3 1.6 0.7 2.8 1.3 3.7 1.9h88.6V83.8H314.4z"/>
<path class="st2" d="M229.6 114.4c0.6 0.2 1.6 0.2 1.6 0.5 -0.3 1.3-2.2 1.6-3.2 2.9h-0.5c-0.5 0.3-0.3 1.1-0.8 1.1 -0.5-0.2-1 0-1.4 0.2 0.6 0.6 1.4 1.1 2.4 1 0.2 0 0.5 0.3 0.5 0.6 0 0 0.2 0 0.3-0.2 0.2 0 0.3 0 0.3 0.2v0.6c-0.5 0.6-1.3 0.3-1.9 0.5 1.3 0.3 2.5 0.3 3.6 0 1-0.3 0-1.9 0.6-2.7 -0.3 0 0-0.5-0.3-0.5 0.3-0.3 0.6-0.8 1-1 0.3 0 0.8-0.2 1-0.5 0-0.3-0.6-0.5-0.5-0.8 1-0.6 1.7-1.6 1.4-2.5 -0.2-0.5-1.4-0.5-2.2-0.8s-1.7 0-2.7 0.2c-0.8 0-1.6 0.5-2.4 0.6 -1.1 0.3-2.1 1-3 1.6 1.1-0.5 2.2-0.6 3.5-1C227.8 114.4 228.6 114.1 229.6 114.4z"/><rect x="83.8" y="83.8" class="st3" width="684" height="475.3"/></svg>
