<?xml version="1.0" standalone="no"?>
<!DOCTYPE svg PUBLIC "-//W3C//DTD SVG 20010904//EN"
 "http://www.w3.org/TR/2001/REC-SVG-20010904/DTD/svg10.dtd">
<svg version="1.0" xmlns="http://www.w3.org/2000/svg"
 width="1024.000000pt" height="1024.000000pt" viewBox="0 0 1024.000000 1024.000000"
 preserveAspectRatio="xMidYMid meet">
<metadata>
Created by potrace 1.11, written by Peter Selinger 2001-2013
</metadata>
<g transform="translate(0.000000,1024.000000) scale(0.100000,-0.100000)"
fill="#000000" stroke="none">
<path d="M4858 10236 c-1 -2 -50 -6 -108 -10 -58 -3 -116 -8 -130 -11 -14 -2
-52 -7 -85 -10 -105 -9 -381 -52 -395 -60 -3 -2 -26 -6 -50 -10 -25 -4 -126
-27 -225 -52 -661 -165 -1268 -457 -1830 -879 -82 -62 -161 -123 -175 -136
-14 -13 -55 -48 -90 -78 -243 -205 -529 -511 -739 -790 -39 -52 -75 -100 -80
-106 -22 -27 -153 -228 -218 -334 -178 -293 -340 -637 -453 -965 -69 -202
-140 -458 -174 -635 -2 -14 -9 -47 -15 -75 -13 -62 -20 -106 -55 -360 -37
-258 -43 -912 -11 -1106 2 -13 6 -51 10 -84 3 -33 8 -76 10 -95 11 -75 27
-176 32 -205 3 -16 7 -39 8 -50 7 -43 16 -89 20 -94 2 -4 6 -24 9 -46 6 -38
50 -211 95 -375 93 -339 299 -812 504 -1155 105 -175 101 -169 107 -175 3 -3
27 -39 54 -80 50 -77 254 -351 301 -405 14 -16 49 -57 78 -90 149 -172 466
-486 549 -543 13 -9 32 -25 43 -35 92 -87 397 -307 599 -432 309 -190 707
-377 1035 -485 206 -68 328 -103 400 -117 14 -2 28 -6 31 -8 5 -3 121 -28 231
-50 56 -11 257 -45 299 -50 289 -35 363 -39 675 -39 245 -1 407 5 510 19 17 2
59 7 95 10 36 4 74 9 85 11 11 1 40 6 65 9 81 11 257 44 377 71 65 14 124 27
133 29 8 2 56 15 105 30 50 15 106 31 125 36 56 14 255 83 380 132 260 103
475 207 735 357 160 92 510 340 675 478 218 182 544 511 671 677 13 17 26 32
29 35 14 11 143 183 212 280 66 94 228 346 228 355 0 2 20 37 44 77 45 77 188
360 220 438 11 25 27 63 37 85 125 284 284 828 325 1115 3 19 7 46 9 60 12 62
23 148 31 225 3 33 7 71 10 85 25 158 25 830 -1 1020 -8 63 -16 129 -21 174
-3 27 -6 52 -8 55 -2 3 -7 31 -11 61 -3 30 -8 62 -10 70 -2 8 -7 29 -9 45 -3
17 -10 55 -16 85 -6 30 -14 66 -16 80 -44 226 -187 679 -284 895 -10 22 -32
74 -50 115 -51 118 -200 404 -280 535 -221 366 -482 698 -781 995 -113 113
-258 245 -332 303 -15 12 -39 32 -52 44 -36 32 -280 213 -350 260 -387 258
-753 444 -1160 588 -242 86 -581 177 -780 209 -36 6 -82 14 -110 20 -11 2 -45
7 -75 11 -30 4 -62 9 -71 10 -29 6 -116 15 -294 32 -50 4 -642 12 -647 9z"/>
</g>
</svg>
