<?xml version="1.0" encoding="utf-8"?>
<!-- Generator: Adobe Illustrator 24.1.0, SVG Export Plug-In . SVG Version: 6.00 Build 0)  -->
<svg version="1.1" id="flag_EN" xmlns="http://www.w3.org/2000/svg" xmlns:xlink="http://www.w3.org/1999/xlink" x="0px" y="0px"
	 viewBox="0 0 207 133.5" style="enable-background:new 0 0 207 133.5;" xml:space="preserve">
<style type="text/css">
	.st0{fill-rule:evenodd;clip-rule:evenodd;fill:#EDEDED;}
	.st1{fill-rule:evenodd;clip-rule:evenodd;fill:#CE0100;}
	.st2{fill-rule:evenodd;clip-rule:evenodd;fill:#1E359B;}
	.st3{fill:#EDEDED;}
	.st4{fill:#CC0B1B;}
	.st5{fill:#2C4DB5;}
</style>
<g>
	<g>
		<rect x="9.7" y="38.3" class="st0" width="138.6" height="92.4"/>
		<polygon class="st1" points="148.3,76.8 148.3,92.3 85.8,92.3 85.8,130.7 72.2,130.7 72.2,92.3 9.7,92.3 9.7,76.8 72.2,76.8 
			72.2,38.3 85.8,38.3 85.8,76.8 		"/>
		<path class="st2" d="M22.5,38.3h46.2v30.5L22.5,38.3z M89.3,38.3h46.2L89.3,68.8V38.3z M148.3,47.8l-37.6,24.8h37.6V47.8z
			 M110.7,96.5h37.6v24.8L110.7,96.5z M135.6,130.7l-46.2-30.5v30.5H135.6z M9.7,96.5h37.6L9.7,121.3V96.5z M68.7,100.3l-46.2,30.5
			h46.2V100.3z M47.3,72.6L9.7,47.8v24.8H47.3z"/>
		<g>
			<polygon class="st1" points="52.3,72.6 9.7,44.5 9.7,38.8 61,72.6 			"/>
			<polygon class="st1" points="68.7,97.2 17.8,130.7 9.7,130.7 9.7,130.4 61.1,96.5 68.7,96.5 			"/>
			<polygon class="st1" points="148.3,39 97.4,72.6 89.3,72.6 89.3,72.1 140.7,38.3 148.3,38.3 			"/>
			<polygon class="st1" points="148.3,130 97.4,96.5 106.1,96.5 148.3,124.3 			"/>
		</g>
	</g>
</g>
<g>
	<rect x="64" y="4.4" class="st3" width="138.6" height="92.4"/>
	<path class="st4" d="M64,89.7h138.6v7.1H64V89.7z M64,4.4h138.6v7.1H64V4.4z M64,18.6h138.6v7.1H64V18.6z M64,32.9h138.6V40H64
		V32.9z M64,47.1h138.6v7.1H64V47.1z M64,61.3h138.6v7.1H64V61.3z M64,75.5h138.6v7.1H64V75.5z"/>
	<rect x="64" y="4.4" class="st5" width="70.2" height="49.8"/>
	<path class="st3" d="M128.9,18.4l-0.6-2l-0.6,2h-2.1l1.7,1.2l-0.6,2l1.7-1.2l1.7,1.2l-0.6-2l1.7-1.2H128.9z M71.1,9.7l1.7-1.2h-2.1
		l-0.6-2l-0.6,2h-2.1L69,9.7l-0.6,2l1.7-1.2l1.7,1.2L71.1,9.7z M82.7,9.7l1.7-1.2h-2.1l-0.6-2l-0.6,2H79l1.7,1.2l-0.6,2l1.7-1.2
		l1.7,1.2L82.7,9.7z M94.3,9.7L96,8.5H94l-0.6-2l-0.6,2h-2.1l1.7,1.2l-0.6,2l1.7-1.2l1.7,1.2L94.3,9.7z M106,9.7l1.7-1.2h-2.1
		l-0.6-2l-0.6,2h-2.1l1.7,1.2l-0.6,2l1.7-1.2l1.7,1.2L106,9.7z M77.2,44.4l1.7-1.2h-2.1l-0.6-2l-0.6,2h-2.1l1.7,1.2l-0.6,2l1.7-1.2
		l1.7,1.2L77.2,44.4z M77,34.7l1.7-1.2h-2.1l-0.6-2l-0.6,2h-2.1l1.7,1.2l-0.6,2l1.7-1.2l1.7,1.2L77,34.7z M77,25l1.7-1.2h-2.1
		l-0.6-2l-0.6,2h-2.1L75,25l-0.6,2l1.7-1.2l1.7,1.2L77,25z M117.6,9.7l1.7-1.2h-2.1l-0.6-2l-0.6,2h-2.1l1.7,1.2l-0.6,2l1.7-1.2
		l1.7,1.2L117.6,9.7z M129.3,9.7l1.7-1.2h-2.1l-0.6-2l-0.6,2h-2.1l1.7,1.2l-0.6,2l1.7-1.2l1.7,1.2L129.3,9.7z M88.7,25l1.7-1.2h-2.1
		l-0.6-2l-0.6,2h-2.1l1.7,1.2L86,27l1.7-1.2l1.7,1.2L88.7,25z M88.6,34.7l1.7-1.2h-2.1l-0.6-2l-0.6,2h-2.1l1.7,1.2l-0.6,2l1.7-1.2
		l1.7,1.2L88.6,34.7z M88.8,44.4l1.7-1.2h-2.1l-0.6-2l-0.6,2h-2.1l1.7,1.2l-0.6,2l1.7-1.2l1.7,1.2L88.8,44.4z M100.5,44.4l1.7-1.2
		h-2.1l-0.6-2l-0.6,2h-2.1l1.7,1.2l-0.6,2l1.7-1.2l1.7,1.2L100.5,44.4z M100.3,34.7l1.7-1.2h-2.1l-0.6-2l-0.6,2h-2.1l1.7,1.2l-0.6,2
		l1.7-1.2l1.7,1.2L100.3,34.7z M100.3,25l1.7-1.2h-2.1l-0.6-2l-0.6,2h-2.1l1.7,1.2l-0.6,2l1.7-1.2l1.7,1.2L100.3,25z M76.9,14.7
		l1.7-1.2h-2.1l-0.6-2l-0.6,2h-2.1l1.7,1.2l-0.6,2l1.7-1.2l1.7,1.2L76.9,14.7z M88.5,14.7l1.7-1.2h-2.1l-0.6-2l-0.6,2h-2.1l1.7,1.2
		l-0.6,2l1.7-1.2l1.7,1.2L88.5,14.7z M112,25l1.7-1.2h-2.1l-0.6-2l-0.6,2h-2.1l1.7,1.2l-0.6,2l1.7-1.2l1.7,1.2L112,25z M111.9,34.7
		l1.7-1.2h-2.1l-0.6-2l-0.6,2h-2.1l1.7,1.2l-0.6,2l1.7-1.2l1.7,1.2L111.9,34.7z M112.1,44.4l1.7-1.2h-2.1l-0.6-2l-0.6,2h-2.1
		l1.7,1.2l-0.6,2l1.7-1.2l1.7,1.2L112.1,44.4z M123.8,44.4l1.7-1.2h-2.1l-0.6-2l-0.6,2H120l1.7,1.2l-0.6,2l1.7-1.2l1.7,1.2
		L123.8,44.4z M123.5,34.7l1.7-1.2h-2.1l-0.6-2l-0.6,2h-2.1l1.7,1.2l-0.6,2l1.7-1.2l1.7,1.2L123.5,34.7z M123.6,25l1.7-1.2h-2.1
		l-0.6-2l-0.6,2h-2.1l1.7,1.2l-0.6,2l1.7-1.2l1.7,1.2L123.6,25z M100.2,14.7l1.7-1.2h-2.1l-0.6-2l-0.6,2h-2.1l1.7,1.2l-0.6,2
		l1.7-1.2l1.7,1.2L100.2,14.7z M111.8,14.7l1.7-1.2h-2.1l-0.6-2l-0.6,2h-2.1l1.7,1.2l-0.6,2l1.7-1.2l1.7,1.2L111.8,14.7z
		 M123.5,14.7l1.7-1.2h-2.1l-0.6-2l-0.6,2h-2.1l1.7,1.2l-0.6,2l1.7-1.2l1.7,1.2L123.5,14.7z M71.4,49.4l1.7-1.2H71l-0.6-2l-0.6,2
		h-2.1l1.7,1.2l-0.6,2l1.7-1.2l1.7,1.2L71.4,49.4z M71.1,39.7l1.7-1.2h-2.1l-0.6-2l-0.6,2h-2.1l1.7,1.2l-0.6,2l1.7-1.2l1.7,1.2
		L71.1,39.7z M71.2,30l1.7-1.2h-2.1l-0.6-2l-0.6,2h-2.1l1.7,1.2l-0.6,2l1.7-1.2l1.7,1.2L71.2,30z M82.8,30l1.7-1.2h-2.1l-0.6-2
		l-0.6,2h-2.1l1.7,1.2l-0.6,2l1.7-1.2l1.7,1.2L82.8,30z M82.8,39.7l1.7-1.2h-2.1l-0.6-2l-0.6,2H79l1.7,1.2l-0.6,2l1.7-1.2l1.7,1.2
		L82.8,39.7z M83,49.4l1.7-1.2h-2.1l-0.6-2l-0.6,2h-2.1l1.7,1.2l-0.6,2l1.7-1.2l1.7,1.2L83,49.4z M94.7,49.4l1.7-1.2h-2.1l-0.6-2
		l-0.6,2h-2.1l1.7,1.2l-0.6,2l1.7-1.2l1.7,1.2L94.7,49.4z M94.4,39.7l1.7-1.2H94l-0.6-2l-0.6,2h-2.1l1.7,1.2l-0.6,2l1.7-1.2l1.7,1.2
		L94.4,39.7z M94.5,30l1.7-1.2h-2.1l-0.6-2l-0.6,2h-2.1l1.7,1.2l-0.6,2l1.7-1.2l1.7,1.2L94.5,30z M71.1,19.7l1.7-1.2h-2.1l-0.6-2
		l-0.6,2h-2.1l1.7,1.2l-0.6,2l1.7-1.2l1.7,1.2L71.1,19.7z M82.7,19.7l1.7-1.2h-2.1l-0.6-2l-0.6,2H79l1.7,1.2l-0.6,2l1.7-1.2l1.7,1.2
		L82.7,19.7z M106.1,30l1.7-1.2h-2.1l-0.6-2l-0.6,2h-2.1l1.7,1.2l-0.6,2l1.7-1.2l1.7,1.2L106.1,30z M106.1,39.7l1.7-1.2h-2.1l-0.6-2
		l-0.6,2h-2.1l1.7,1.2l-0.6,2l1.7-1.2l1.7,1.2L106.1,39.7z M106.3,49.4l1.7-1.2h-2.1l-0.6-2l-0.6,2h-2.1l1.7,1.2l-0.6,2l1.7-1.2
		l1.7,1.2L106.3,49.4z M117.9,49.4l1.7-1.2h-2.1l-0.6-2l-0.6,2h-2.1l1.7,1.2l-0.6,2l1.7-1.2l1.7,1.2L117.9,49.4z M129.6,49.4
		l1.7-1.2h-2.1l-0.6-2l-0.6,2h-2.1l1.7,1.2l-0.6,2l1.7-1.2l1.7,1.2L129.6,49.4z M117.7,39.7l1.7-1.2h-2.1l-0.6-2l-0.6,2H114l1.7,1.2
		l-0.6,2l1.7-1.2l1.7,1.2L117.7,39.7z M129.4,39.7l1.7-1.2H129l-0.6-2l-0.6,2h-2.1l1.7,1.2l-0.6,2l1.7-1.2l1.7,1.2L129.4,39.7z
		 M117.8,30l1.7-1.2h-2.1l-0.6-2l-0.6,2H114l1.7,1.2l-0.6,2l1.7-1.2l1.7,1.2L117.8,30z M129.4,30l1.7-1.2H129l-0.6-2l-0.6,2h-2.1
		l1.7,1.2l-0.6,2l1.7-1.2l1.7,1.2L129.4,30z M94.3,19.7l1.7-1.2H94l-0.6-2l-0.6,2h-2.1l1.7,1.2l-0.6,2l1.7-1.2l1.7,1.2L94.3,19.7z
		 M106,19.7l1.7-1.2h-2.1l-0.6-2l-0.6,2h-2.1l1.7,1.2l-0.6,2l1.7-1.2l1.7,1.2L106,19.7z M117.6,19.7l1.7-1.2h-2.1l-0.6-2l-0.6,2
		h-2.1l1.7,1.2l-0.6,2l1.7-1.2l1.7,1.2L117.6,19.7z"/>
</g>
</svg>
