<?xml version="1.0" encoding="UTF-8"?>
<svg width="85px" height="91px" viewBox="0 0 85 91" version="1.1" xmlns="http://www.w3.org/2000/svg" xmlns:xlink="http://www.w3.org/1999/xlink">
    <!-- Generator: Sketch 64 (93537) - https://sketch.com -->
    <title>Artboard</title>
    <desc>Created with Sketch.</desc>
    <g id="Artboard" stroke="none" stroke-width="1" fill="none" fill-rule="evenodd">
        <g id="logo_dnum_dark" transform="translate(1.000000, 1.000000)">
            <g id="Marianne" transform="translate(0.584347, 0.841866)">
                <path d="M54.4880389,51.0569116 C53.0699254,52.4750251 51.8351054,63.3600918 51.8351054,65.2653804 C51.8351054,66.5275336 52.1341634,65.6496538 52.1566731,65.4567132 C52.9203964,58.5896349 54.3803137,53.332003 54.7115285,52.3206726 C55.2035271,50.8157358 57.2712074,50.5440111 58.1844596,50.3719724 C59.0977119,50.1999336 60.1283364,50.1131104 61.4226464,49.0857016 C62.5561725,48.1869198 62.2892713,46.9665704 61.8069198,46.3748859 C61.4178229,45.8925343 61.1091179,45.7044172 61.5223324,45.119164 C61.9355469,44.5339108 62.1654678,44.1126571 62.192801,43.4228944 C62.2201343,42.7331317 61.5786067,42.4662305 61.3229604,42.4388972 C61.0673141,42.411564 60.5528057,42.6945435 61.1364511,42.1092903 C61.7200965,41.5240371 61.6509594,40.9114506 61.5786067,40.6976081 C61.506254,40.4837656 60.6669623,39.8936889 60.3373554,39.5849839 C59.9450428,39.2087497 59.3533582,38.8003587 59.953082,37.9771454 C60.8084521,36.7953841 60.8808048,36.1651114 60.8663343,35.6795442 C60.8438245,34.9511933 58.7761442,34.4672339 57.513991,33.7967653 C56.2856024,33.1407672 54.3320786,32.4992396 54.1375301,30.3029322 C53.9429817,28.1066248 53.78059,27.178902 51.9974971,25.038869 C50.2144042,22.8988359 49.3027598,22.3987981 48.9168785,22.2428378 C48.5309973,22.0868775 48.8606042,21.8006822 49.1162505,21.5434281 C49.3718968,21.2861739 49.6307588,21.0015865 49.5021317,20.6591169 C49.3735047,20.3166473 48.1033122,20.4308038 47.6756272,20.4597449 C46.791316,20.5192349 47.8042543,19.8744917 47.6756272,18.8052791 C47.5952353,18.1315948 46.9199431,17.3919891 45.4085749,16.2230905 C43.8972067,15.0541919 41.3889787,14.2824294 39.3888276,14.1907826 C33.3562175,13.9110187 30.4878336,15.4770534 27.7914885,17.0575586 C25.0951433,18.6380639 24.7365953,20.3745295 24.5758115,21.3987226 C24.4150276,22.4229157 23.7911863,23.4889126 23.7911863,23.4889126 L25.0597709,23.4889126 C27.3847053,17.8968503 32.5201415,16.4706976 36.7149921,16.0140715 C40.1830998,15.6362294 44.9873212,16.5269719 46.214102,18.2811237 C47.5727255,20.2233927 44.7027338,20.9919395 42.9614447,21.6768787 C47.3411968,20.8215086 48.026136,21.3199385 47.9650381,21.6768787 C47.9039403,22.0338188 47.1707659,21.5916632 45.6015155,21.7910352 C44.0322652,21.9904072 43.3039143,23.0885609 42.3777993,24.7430267 C41.4516844,26.3974925 39.8052577,26.0292975 39.0672599,26.0132191 C38.6251043,26.0132191 38.4016147,26.7962364 39.0672599,26.8557265 C41.1574499,27.0406279 42.0353297,26.5341588 42.9903858,24.8716538 C43.9454419,23.2091487 44.8876352,22.718758 46.045279,22.4470333 C47.2029227,22.1753086 48.3123312,23.0033454 48.8975845,23.445501 C49.4828377,23.8876566 51.5939296,25.7559649 52.3078099,27.1113728 C53.5474534,29.4668562 52.9911413,31.2194002 53.5345907,32.0040253 C54.7099206,33.7067263 58.7407718,35.1425261 59.3115544,35.3563686 C59.8823371,35.5702111 60.052768,36.4545223 59.6813573,37.253618 C59.3099466,38.0527138 58.7166542,38.2376152 58.6973601,38.937025 C58.6780661,39.6364347 60.1669245,40.7490589 60.4949236,40.977372 C60.8229226,41.2056851 60.7811188,41.9179575 60.3100221,42.3745837 C59.8389255,42.8312098 58.9112026,43.2733654 58.7118307,43.3730514 C58.5124587,43.4727374 58.5413998,43.615835 58.7118307,43.5338352 C59.1073589,43.3216005 60.261787,42.6479162 60.9258243,43.257287 C61.5898616,43.8666578 60.9579811,44.5146167 60.6942955,44.9230077 C60.3855905,45.4053592 60.1604932,45.7108486 60.6010409,46.1948079 C60.9349604,46.5276605 61.1024692,46.9924385 61.057667,47.4617847 C61.0370087,47.7907229 60.9035617,48.1024777 60.679825,48.344488 C60.1669245,48.9184864 59.554338,49.2127208 57.7487354,49.6436215 C56.7985029,49.8510327 55.3659187,50.1726004 54.4880389,51.0569116 L54.4880389,51.0569116 Z" id="path6" fill="#164194" fill-rule="nonzero"></path>
                <g id="path8" transform="translate(0.109333, 0.088431)"></g>
                <path d="M49.9909146,32.1133584 C50.4443251,32.5619453 49.3333087,33.2645707 49.1660935,34.0202548 L48.9570745,34.1151173 C48.812369,34.3514696 49.0422899,34.6730373 48.8316631,34.7695076 C48.5872716,34.795233 48.4120172,34.9624482 48.2319393,35.1280555 C48.6419381,35.2791924 49.0873094,35.3290354 49.479622,35.0653498 C49.6190658,35.0536993 49.7519806,35.126486 49.8172681,35.2502513 C49.8685319,35.2203128 49.9073331,35.1729526 49.9266011,35.1168007 C49.9957382,35.0846439 50.0664831,35.0524871 50.0986398,35.1168007 L50.2272669,35.3981724 C50.1452671,35.7760145 49.7304448,35.7953085 49.4812298,35.9946805 C50.0724986,35.8915845 50.6266712,35.6361109 51.0890683,35.253467 C51.4476163,34.9222522 50.7031871,34.4109596 50.823775,33.9318237 C50.6806774,33.9977451 50.7273047,33.7228047 50.584207,33.7871182 C50.6629911,33.5829227 50.7064028,33.3047667 50.8157358,33.1713161 C50.9838466,33.0992667 51.1046141,32.9477035 51.1373035,32.7677486 C51.07299,32.6278667 50.7594614,32.6873567 50.7691085,32.5121023 C51.0553037,32.0410056 51.2659306,31.4043016 50.8848728,31.1020279 C50.5536581,30.8383424 48.6338989,31.1743807 46.5806892,33.7276282 C46.5083365,33.8176672 46.522807,33.9977451 46.8652766,33.6842166 C47.0373153,33.5234327 47.8203327,32.7870427 48.5711932,32.4220634 C49.3220538,32.057084 49.8655032,31.9895548 49.9909146,32.1133584 L49.9909146,32.1133584 Z" id="path10" fill="#164194" fill-rule="nonzero"></path>
                <path d="M57.6394024,38.2376152 C57.5766967,38.2022428 57.4464618,37.8629888 57.7503432,37.5269506 C58.0542247,37.1909123 58.1957145,37.1089126 58.3179102,37.1619713 C58.440106,37.2150299 58.200538,37.5591074 58.0670874,37.7407931 C57.9336368,37.9224789 57.8902252,38.3823207 57.6394024,38.2376152 L57.6394024,38.2376152 Z" id="path12" fill="#444D9B" fill-rule="nonzero"></path>
                <circle id="circle14" fill="#164194" fill-rule="nonzero" cx="32.3625733" cy="30.7917151" r="1.3586235"></circle>
                <path d="M36.9127563,29.8189728 C36.8483518,29.5147347 36.752993,29.2178831 36.6281689,28.9330538 C36.8870309,28.6838388 37.243971,28.2899184 37.2504024,28.0230172 L36.5558161,27.0583141 C36.2969541,26.9763144 35.8113869,27.188549 35.4930349,27.3541564 C35.2604934,27.1433045 35.0073232,26.9563895 34.7373508,26.7962364 C34.8016643,26.442512 34.86437,25.9167488 34.7100175,25.6916514 L33.5845306,25.3122015 C33.3256686,25.3974169 33.0571596,25.8540431 32.8947679,26.1740029 C32.7564938,26.1595324 32.6166118,26.1482775 32.4735142,26.1450618 L32.4735142,26.7881972 L31.7033595,26.7881972 L31.7033595,27.3541564 C32.9993223,27.1060593 34.3248925,27.6061023 35.1341069,28.6483324 C35.9433213,29.6905625 36.0993104,31.0986985 35.537827,32.2927704 C34.9763436,33.4868424 33.7923561,34.2648868 32.4735142,34.3064501 L32.4735142,35.4496232 C32.6166118,35.4496232 32.7564938,35.4351527 32.8947679,35.4190743 C33.0555517,35.740642 33.3256686,36.1972682 33.5845306,36.2824836 L34.7100175,35.9030337 C34.8708014,35.6779363 34.8016643,35.1521731 34.7373508,34.7984487 C35.0073232,34.6382956 35.2604934,34.4513806 35.4930349,34.2405287 C35.8146026,34.4013125 36.2969541,34.6183707 36.5558161,34.536371 L37.2504024,33.5716679 C37.2504024,33.2999432 36.8870309,32.9108463 36.6281689,32.6616313 C36.7538308,32.372675 36.8492029,32.0714717 36.9127563,31.7628496 C37.2680886,31.7113987 37.7858126,31.6020657 37.9482043,31.3850075 L37.9482043,30.195207 C37.7858126,29.9781488 37.2680886,29.8688158 36.9127563,29.8189728 Z" id="path16" fill="#E30613" fill-rule="nonzero"></path>
                <path d="M62.9902889,78.9513017 L60.9000989,76.8402098 C57.7342649,78.978635 49.5809158,85.0916369 34.6923313,80.7488651 C34.2935874,80.6314929 33.878765,81.0270212 34.3932734,81.4321965 C34.9077817,81.8373718 48.9393883,87.381199 62.9902889,78.9513017 Z" id="path18" fill="#164194" fill-rule="nonzero"></path>
                <path d="M69.4377213,69.9634845 C70.4924634,68.9087424 77.8418931,61.2361371 81.477216,45.4857512 C81.5624314,45.1143405 82.4178015,45.0580661 82.3325861,45.6577899 C82.2473706,46.2575136 80.0510632,61.6686457 71.4635978,71.6468914 L69.4377213,69.9634845 Z" id="path20" fill="#E30613" fill-rule="nonzero"></path>
                <path d="M38.9531033,53.6889432 C38.0687922,53.2146308 36.4143263,52.6036522 31.7933985,56.7116796 L32.4268869,56.7116796 L32.4268869,57.3274817 C33.1262966,56.7566991 36.735894,53.5361985 38.5157713,54.2179221 C38.9981228,54.4028235 39.215181,55.3016052 38.8019665,57.0991687 C38.388752,58.8967321 36.2294249,63.1333865 34.5797826,64.8167935 L36.1635035,64.8167935 C36.7616195,63.8038552 38.9305936,59.8678665 39.5721212,57.7423041 C40.2136487,55.6167416 39.822944,54.1520007 38.9531033,53.6889432 L38.9531033,53.6889432 Z" id="path22" fill="#164194" fill-rule="nonzero"></path>
                <rect id="rect24" fill="#2F52A0" fill-rule="nonzero" x="18.732926" y="37.2262848" width="1" height="1"></rect>
                <rect id="rect26" fill="#4565AD" fill-rule="nonzero" x="17.6203021" y="51.9894595" width="1" height="1"></rect>
                <rect id="rect28" fill="#164194" fill-rule="nonzero" x="20.6157054" y="53.9896074" width="1" height="1"></rect>
                <rect id="rect30" fill="#2F52A0" fill-rule="nonzero" x="18.2521827" y="47.392646" width="1" height="1"></rect>
                <rect id="rect32" fill="#2F52A0" fill-rule="nonzero" x="19.0866507" y="55.6939194" width="1" height="1"></rect>
                <rect id="rect34" fill="#2F52A0" fill-rule="nonzero" x="20.0384914" y="54.3433351" width="1" height="1"></rect>
                <rect id="rect36" fill="#2F52A0" fill-rule="nonzero" x="19.4387678" y="38.7456922" width="1" height="1"></rect>
                <rect id="rect38" fill="#2F52A0" fill-rule="nonzero" x="19.4387678" y="54.9334102" width="1" height="1"></rect>
                <rect id="rect40" fill="#2F52A0" fill-rule="nonzero" x="20.2732356" y="55.160117" width="1" height="1"></rect>
                <rect id="rect42" fill="#164194" fill-rule="nonzero" x="20.6157054" y="44.9503426" width="1" height="1"></rect>
                <rect id="rect44" fill="#2F52A0" fill-rule="nonzero" x="18.5689272" y="52.2049083" width="1" height="1"></rect>
                <rect id="rect46" fill="#164194" fill-rule="nonzero" x="21.3006444" y="45.5066531" width="1" height="1"></rect>
                <rect id="rect48" fill="#164194" fill-rule="nonzero" x="21.5948791" y="51.3431068" width="1" height="1"></rect>
                <rect id="rect50" fill="#E30613" fill-rule="nonzero" x="24.3587533" y="34.6537432" width="1" height="1"></rect>
                <rect id="rect52" fill="#164194" fill-rule="nonzero" x="21.8151528" y="46.3845345" width="1" height="1"></rect>
                <rect id="rect54" fill="#2F52A0" fill-rule="nonzero" x="19.6542181" y="37.8469105" width="1" height="1"></rect>
                <rect id="rect56" fill="#164194" fill-rule="nonzero" x="21.1511153" y="41.5063493" width="1" height="1"></rect>
                <rect id="rect58" fill="#2F52A0" fill-rule="nonzero" x="20.4018626" y="39.1814164" width="1" height="1"></rect>
                <polygon id="polygon60" fill="#164194" fill-rule="nonzero" points="22.1994262 45.378026 22.7348364 45.378026 22.7348364 44.8442236 22.1994262 44.8442236 22.1994262 44.3088134 21.5788005 44.3088134 21.5788005 44.929439 22.1994262 44.929439"></polygon>
                <rect id="rect62" fill="#164194" fill-rule="nonzero" x="22.006486" y="42.4196031" width="1" height="1"></rect>
                <rect id="rect64" fill="#2F52A0" fill-rule="nonzero" x="19.6542181" y="55.7566235" width="1" height="1"></rect>
                <rect id="rect66" fill="#164194" fill-rule="nonzero" x="23.921421" y="56.9255205" width="1" height="1"></rect>
                <rect id="rect68" fill="#164194" fill-rule="nonzero" x="23.6979315" y="51.6260864" width="1" height="1"></rect>
                <rect id="rect70" fill="#164194" fill-rule="nonzero" x="23.11911" y="57.3821498" width="1" height="1"></rect>
                <rect id="rect72" fill="#164194" fill-rule="nonzero" x="20.8842141" y="54.7083112" width="1" height="1"></rect>
                <rect id="rect74" fill="#164194" fill-rule="nonzero" x="22.8570328" y="50.8607553" width="1" height="1"></rect>
                <rect id="rect76" fill="#164194" fill-rule="nonzero" x="24.4246753" y="45.9777514" width="1" height="1"></rect>
                <rect id="rect78" fill="#164194" fill-rule="nonzero" x="24.1207927" y="50.8607553" width="1" height="1"></rect>
                <rect id="rect80" fill="#164194" fill-rule="nonzero" x="24.5324002" y="45.1432816" width="1" height="1"></rect>
                <rect id="rect82" fill="#164194" fill-rule="nonzero" x="24.1465186" y="50.1291888" width="1" height="1"></rect>
                <rect id="rect84" fill="#164194" fill-rule="nonzero" x="22.8682875" y="45.2236735" width="1" height="1"></rect>
                <rect id="rect86" fill="#164194" fill-rule="nonzero" x="22.0836615" y="53.9896074" width="1" height="1"></rect>
                <rect id="rect88" fill="#164194" fill-rule="nonzero" x="21.3360171" y="53.790237" width="1" height="1"></rect>
                <rect id="rect90" fill="#164194" fill-rule="nonzero" x="21.4951927" y="58.2857551" width="1" height="1"></rect>
                <rect id="rect92" fill="#164194" fill-rule="nonzero" x="20.9742534" y="51.5762434" width="1" height="1"></rect>
                <rect id="rect94" fill="#164194" fill-rule="nonzero" x="23.3120501" y="50.4073432" width="1" height="1"></rect>
                <rect id="rect96" fill="#164194" fill-rule="nonzero" x="23.6175396" y="51.1903622" width="1" height="1"></rect>
                <rect id="rect98" fill="#164194" fill-rule="nonzero" x="23.11911" y="52.4830643" width="1" height="1"></rect>
                <rect id="rect100" fill="#164194" fill-rule="nonzero" x="22.1994262" y="51.1903622" width="1" height="1"></rect>
                <rect id="rect102" fill="#164194" fill-rule="nonzero" x="22.5853076" y="53.1889054" width="1" height="1"></rect>
                <rect id="rect104" fill="#164194" fill-rule="nonzero" x="21.1511153" y="46.9617469" width="1" height="1"></rect>
                <rect id="rect106" fill="#E30613" fill-rule="nonzero" x="27.4747438" y="30.2514814" width="1" height="1"></rect>
                <rect id="rect108" fill="#E30613" fill-rule="nonzero" x="27.5390578" y="29.0954453" width="1" height="1"></rect>
                <rect id="rect110" fill="#E30613" fill-rule="nonzero" x="27.4747438" y="28.1034093" width="1" height="1"></rect>
                <rect id="rect112" fill="#E30613" fill-rule="nonzero" x="27.5036854" y="32.455828" width="1" height="1"></rect>
                <rect id="rect114" fill="#E30613" fill-rule="nonzero" x="26.4360803" y="26.0357288" width="1" height="1"></rect>
                <rect id="rect116" fill="#E30613" fill-rule="nonzero" x="27.5036854" y="34.546018" width="1" height="1"></rect>
                <rect id="rect118" fill="#164194" fill-rule="nonzero" x="26.201336" y="54.9334102" width="1" height="1"></rect>
                <rect id="rect120" fill="#E30613" fill-rule="nonzero" x="25.5196128" y="32.5330042" width="1" height="1"></rect>
                <rect id="rect122" fill="#E30613" fill-rule="nonzero" x="26.4360803" y="29.0037985" width="1" height="1"></rect>
                <rect id="rect124" fill="#E30613" fill-rule="nonzero" x="26.4360803" y="31.2772823" width="1" height="1"></rect>
                <rect id="rect126" fill="#E30613" fill-rule="nonzero" x="25.4729854" y="27.9587035" width="1" height="1"></rect>
                <rect id="rect128" fill="#E30613" fill-rule="nonzero" x="29.6437184" y="33.5218249" width="1" height="1"></rect>
                <rect id="rect130" fill="#E30613" fill-rule="nonzero" x="29.5922676" y="32.4108085" width="1" height="1"></rect>
                <rect id="rect132" fill="#E30613" fill-rule="nonzero" x="30.4492455" y="35.6859755" width="1" height="1"></rect>
                <rect id="rect134" fill="#E30613" fill-rule="nonzero" x="29.5922676" y="26.9666675" width="1" height="1"></rect>
                <rect id="rect136" fill="#E30613" fill-rule="nonzero" x="28.4474866" y="27.9394091" width="1.00489906" height="1.00489906"></rect>
                <rect id="rect138" fill="#E30613" fill-rule="nonzero" x="28.4474866" y="30.2514814" width="1.00489906" height="1.00489906"></rect>
                <rect id="rect140" fill="#E30613" fill-rule="nonzero" x="29.5922676" y="34.5009985" width="1" height="1"></rect>
                <rect id="rect142" fill="#E30613" fill-rule="nonzero" x="28.4474866" y="33.3530018" width="1" height="1"></rect>
                <rect id="rect144" fill="#E30613" fill-rule="nonzero" x="27.4747438" y="26.9666675" width="1" height="1"></rect>
                <rect id="rect146" fill="#2F52A0" fill-rule="nonzero" x="18.8728085" y="33.2677864" width="1" height="1"></rect>
                <rect id="rect148" fill="#2F52A0" fill-rule="nonzero" x="18.2521827" y="46.4166897" width="1" height="1"></rect>
                <rect id="rect150" fill="#2F52A0" fill-rule="nonzero" x="18.8728085" y="47.392646" width="1" height="1"></rect>
                <rect id="rect152" fill="#2F52A0" fill-rule="nonzero" x="18.1267716" y="36.2213857" width="1" height="1"></rect>
                <rect id="rect154" fill="#2F52A0" fill-rule="nonzero" x="19.3969635" y="51.9894595" width="1" height="1"></rect>
                <rect id="rect156" fill="#2F52A0" fill-rule="nonzero" x="20.4018626" y="40.4564323" width="1" height="1"></rect>
                <rect id="rect158" fill="#4565AD" fill-rule="nonzero" x="17.8566545" y="35.0444496" width="1" height="1"></rect>
                <rect id="rect160" fill="#2F52A0" fill-rule="nonzero" x="19.6542181" y="47.3042181" width="1" height="1"></rect>
                <rect id="rect162" fill="#2F52A0" fill-rule="nonzero" x="20.1671183" y="51.6260864" width="1" height="1"></rect>
                <rect id="rect164" fill="#2F52A0" fill-rule="nonzero" x="20.2523336" y="43.8586186" width="1" height="1"></rect>
                <rect id="rect166" fill="#2F52A0" fill-rule="nonzero" x="18.732926" y="30.1646583" width="1" height="1"></rect>
                <rect id="rect168" fill="#E30613" fill-rule="nonzero" x="25.4729854" y="33.6150795" width="1" height="1"></rect>
                <rect id="rect170" fill="#2F52A0" fill-rule="nonzero" x="18.6268087" y="31.4059094" width="1" height="1"></rect>
                <rect id="rect172" fill="#164194" fill-rule="nonzero" x="24.7028306" y="49.6146804" width="1" height="1"></rect>
                <rect id="rect174" fill="#E30613" fill-rule="nonzero" x="25.4729854" y="31.4059094" width="1" height="1"></rect>
                <rect id="rect176" fill="#164194" fill-rule="nonzero" x="25.3668675" y="45.8603775" width="1" height="1"></rect>
                <rect id="rect178" fill="#E30613" fill-rule="nonzero" x="25.4729854" y="29.0954453" width="1" height="1"></rect>
                <rect id="rect180" fill="#2F52A0" fill-rule="nonzero" x="18.8728085" y="34.2630384" width="1" height="1"></rect>
                <rect id="rect182" fill="#2F52A0" fill-rule="nonzero" x="20.5063724" y="47.392646" width="1" height="1"></rect>
                <rect id="rect184" fill="#164194" fill-rule="nonzero" x="24.8041241" y="57.1039922" width="1" height="1"></rect>
                <rect id="rect186" fill="#164194" fill-rule="nonzero" x="23.7895783" y="23.7107945" width="1.27662379" height="1.27662379"></rect>
                <rect id="rect188" fill="#2F52A0" fill-rule="nonzero" x="19.0110827" y="59.1025354" width="1" height="1"></rect>
                <rect id="rect190" fill="#2F52A0" fill-rule="nonzero" x="18.1862614" y="59.0816319" width="1" height="1"></rect>
                <rect id="rect192" fill="#2F52A0" fill-rule="nonzero" x="18.2521827" y="56.0990931" width="1" height="1"></rect>
                <rect id="rect194" fill="#4565AD" fill-rule="nonzero" x="17.6203021" y="56.7486615" width="1" height="1"></rect>
                <rect id="rect196" fill="#4565AD" fill-rule="nonzero" x="17.7698311" y="56.269524" width="1" height="1"></rect>
                <rect id="rect198" fill="#4565AD" fill-rule="nonzero" x="21.8891132" y="61.7940555" width="1" height="1"></rect>
                <rect id="rect200" fill="#4565AD" fill-rule="nonzero" x="17.3099893" y="59.2118668" width="1" height="1"></rect>
                <rect id="rect202" fill="#4565AD" fill-rule="nonzero" x="21.3360171" y="61.8342514" width="1" height="1"></rect>
                <rect id="rect204" fill="#164194" fill-rule="nonzero" x="20.7025282" y="58.6748488" width="1" height="1"></rect>
                <rect id="rect206" fill="#2F52A0" fill-rule="nonzero" x="19.8455506" y="58.8886945" width="1" height="1"></rect>
                <rect id="rect208" fill="#5C79BB" fill-rule="nonzero" x="14.1136065" y="59.7922981" width="1" height="1"></rect>
                <rect id="rect210" fill="#5C79BB" fill-rule="nonzero" x="13.9833714" y="49.9362481" width="1" height="1"></rect>
                <rect id="rect212" fill="#5C79BB" fill-rule="nonzero" x="13.5556864" y="60.5913955" width="1" height="1"></rect>
                <rect id="rect214" fill="#4565AD" fill-rule="nonzero" x="22.5853076" y="62.0159372" width="1" height="1"></rect>
                <rect id="rect216" fill="#5C79BB" fill-rule="nonzero" x="13.4479612" y="60.0318661" width="1" height="1"></rect>
                <rect id="rect218" fill="#5C79BB" fill-rule="nonzero" x="14.8934079" y="59.7922981" width="1" height="1"></rect>
                <rect id="rect220" fill="#5C79BB" fill-rule="nonzero" x="15.4818771" y="60.0784934" width="1" height="1"></rect>
                <rect id="rect222" fill="#4565AD" fill-rule="nonzero" x="15.9513656" y="59.5061045" width="1" height="1"></rect>
                <rect id="rect224" fill="#4565AD" fill-rule="nonzero" x="16.5076779" y="59.3935526" width="1" height="1"></rect>
                <rect id="rect226" fill="#5C79BB" fill-rule="nonzero" x="14.1939984" y="60.546376" width="1" height="1"></rect>
                <rect id="rect228" fill="#164194" fill-rule="nonzero" x="30.6518332" y="57.5172083" width="1" height="1"></rect>
                <polygon id="polygon230" fill="#164194" fill-rule="nonzero" points="29.8093258 58.8886929 29.3028567 58.8886929 29.3028567 59.2215155 28.6404272 59.2215155 28.6404272 59.8855528 29.3028567 59.8855528 29.3028567 59.3935542 29.8093258 59.3935542"></polygon>
                <rect id="rect232" fill="#164194" fill-rule="nonzero" x="29.8993647" y="58.6748488" width="1" height="1"></rect>
                <rect id="rect234" fill="#2F52A0" fill-rule="nonzero" x="27.8702726" y="59.8855512" width="1" height="1"></rect>
                <rect id="rect236" fill="#2F52A0" fill-rule="nonzero" x="27.270549" y="60.5495901" width="1" height="1"></rect>
                <rect id="rect238" fill="#164194" fill-rule="nonzero" x="30.0521094" y="58.0670858" width="1" height="1"></rect>
                <rect id="rect240" fill="#E30613" fill-rule="nonzero" x="31.4187721" y="35.5123289" width="1" height="1"></rect>
                <rect id="rect242" fill="#E30613" fill-rule="nonzero" x="26.4360803" y="34.6537432" width="1" height="1"></rect>
                <rect id="rect244" fill="#164194" fill-rule="nonzero" x="31.5072032" y="56.9078359" width="1" height="1"></rect>
                <rect id="rect246" fill="#748FC9" fill-rule="nonzero" x="12.7983945" y="60.2457102" width="1" height="1"></rect>
                <rect id="rect248" fill="#164194" fill-rule="nonzero" x="25.6016129" y="55.5910161" width="1" height="1"></rect>
                <rect id="rect250" fill="#4565AD" fill-rule="nonzero" x="25.0099283" y="61.197549" width="1" height="1"></rect>
                <rect id="rect252" fill="#4565AD" fill-rule="nonzero" x="23.7702837" y="61.8197809" width="1" height="1"></rect>
                <rect id="rect254" fill="#4565AD" fill-rule="nonzero" x="24.3217725" y="61.5593126" width="1" height="1"></rect>
                <rect id="rect256" fill="#E30613" fill-rule="nonzero" x="24.2751462" y="32.4108085" width="1" height="1"></rect>
                <rect id="rect258" fill="#2F52A0" fill-rule="nonzero" x="26.4232173" y="60.7232382" width="1" height="1"></rect>
                <rect id="rect260" fill="#164194" fill-rule="nonzero" x="24.8636144" y="56.269524" width="1" height="1"></rect>
                <rect id="rect262" fill="#164194" fill-rule="nonzero" x="22.3296606" y="57.981872" width="1" height="1"></rect>
                <rect id="rect264" fill="#2F52A0" fill-rule="nonzero" x="25.6868282" y="61.0753517" width="1" height="1"></rect>
                <rect id="rect266" fill="#164194" fill-rule="nonzero" x="25.4729854" y="46.4488464" width="1" height="1"></rect>
                <rect id="rect268" fill="#4565AD" fill-rule="nonzero" x="23.11911" y="61.699193" width="1" height="1"></rect>
                <rect id="rect270" fill="#4565AD" fill-rule="nonzero" x="17.7698311" y="32.1760641" width="1" height="1"></rect>
                <rect id="rect272" fill="#4565AD" fill-rule="nonzero" x="17.6203021" y="32.9896303" width="1" height="1"></rect>
                <rect id="rect274" fill="#4565AD" fill-rule="nonzero" x="17.7698311" y="30.9348127" width="1" height="1"></rect>
                <rect id="rect276" fill="#2F52A0" fill-rule="nonzero" x="18.0913988" y="29.0954453" width="1" height="1"></rect>
                <rect id="rect278" fill="#4565AD" fill-rule="nonzero" x="17.0864997" y="51.7547135" width="1" height="1"></rect>
                <rect id="rect280" fill="#2F52A0" fill-rule="nonzero" x="18.8406515" y="28.1323504" width="1" height="1"></rect>
                <rect id="rect282" fill="#4565AD" fill-rule="nonzero" x="16.5076779" y="46.1063752" width="1" height="1"></rect>
                <rect id="rect284" fill="#4565AD" fill-rule="nonzero" x="16.9353632" y="56.6248547" width="1" height="1"></rect>
                <rect id="rect286" fill="#4565AD" fill-rule="nonzero" x="17.1926171" y="46.005083" width="1" height="1"></rect>
                <rect id="rect288" fill="#4565AD" fill-rule="nonzero" x="17.6203021" y="33.9897059" width="1" height="1"></rect>
                <rect id="rect290" fill="#164194" fill-rule="nonzero" x="22.7348367" y="43.5386571" width="1" height="1"></rect>
                <rect id="rect292" fill="#164194" fill-rule="nonzero" x="23.6979315" y="44.2879115" width="1" height="1"></rect>
                <rect id="rect294" fill="#164194" fill-rule="nonzero" x="23.6979315" y="45.8812794" width="1" height="1"></rect>
                <rect id="rect296" fill="#E30613" fill-rule="nonzero" x="24.4246753" y="30.3575987" width="1" height="1"></rect>
                <rect id="rect298" fill="#2F52A0" fill-rule="nonzero" x="19.0110827" y="35.2582889" width="1" height="1"></rect>
                <rect id="rect300" fill="#2F52A0" fill-rule="nonzero" x="20.0384914" y="27.4908232" width="1" height="1"></rect>
                <rect id="rect302" fill="#164194" fill-rule="nonzero" x="22.5209939" y="24.1947537" width="1" height="1"></rect>
                <rect id="rect304" fill="#2F52A0" fill-rule="nonzero" x="20.5095881" y="26.0357288" width="1" height="1"></rect>
                <rect id="rect306" fill="#164194" fill-rule="nonzero" x="21.7926432" y="25.2446726" width="1" height="1"></rect>
                <rect id="rect308" fill="#4565AD" fill-rule="nonzero" x="16.3308156" y="51.3833028" width="1" height="1"></rect>
                <rect id="rect310" fill="#748FC9" fill-rule="nonzero" x="13.1054916" y="50.0005617" width="1" height="1"></rect>
                <rect id="rect312" fill="#5C79BB" fill-rule="nonzero" x="13.2341187" y="46.005083" width="1" height="1"></rect>
                <rect id="rect314" fill="#5C79BB" fill-rule="nonzero" x="14.5927422" y="50.4073432" width="1" height="1"></rect>
                <rect id="rect316" fill="#5C79BB" fill-rule="nonzero" x="13.9833714" y="45.9777514" width="1" height="1"></rect>
                <rect id="rect318" fill="#748FC9" fill-rule="nonzero" x="12.3996505" y="45.8812794" width="1" height="1"></rect>
                <rect id="rect320" fill="#748FC9" fill-rule="nonzero" x="11.4156533" y="49.4442496" width="1" height="1"></rect>
                <rect id="rect322" fill="#748FC9" fill-rule="nonzero" x="11.6503978" y="45.8812794" width="1" height="1"></rect>
                <rect id="rect324" fill="#748FC9" fill-rule="nonzero" x="12.1005926" y="60.3132378" width="1" height="1"></rect>
                <rect id="rect326" fill="#748FC9" fill-rule="nonzero" x="12.2501215" y="49.6146804" width="1" height="1"></rect>
                <rect id="rect328" fill="#5C79BB" fill-rule="nonzero" x="14.6683106" y="46.1063752" width="1" height="1"></rect>
                <rect id="rect330" fill="#4565AD" fill-rule="nonzero" x="15.8500719" y="50.8607553" width="1" height="1"></rect>
                <rect id="rect332" fill="#5C79BB" fill-rule="nonzero" x="15.3709361" y="57.3821498" width="1" height="1"></rect>
                <rect id="rect334" fill="#5C79BB" fill-rule="nonzero" x="15.1812111" y="58.9224575" width="1" height="1"></rect>
                <rect id="rect336" fill="#5C79BB" fill-rule="nonzero" x="15.1168976" y="58.2857551" width="1" height="1"></rect>
                <rect id="rect338" fill="#5C79BB" fill-rule="nonzero" x="15.1168976" y="50.8607553" width="1" height="1"></rect>
                <rect id="rect340" fill="#5C79BB" fill-rule="nonzero" x="15.7809349" y="46.005083" width="1" height="1"></rect>
                <rect id="rect342" fill="#748FC9" fill-rule="nonzero" x="11.9928674" y="60.9869221" width="1" height="1"></rect>
                <rect id="rect344" fill="#5C79BB" fill-rule="nonzero" x="15.1812111" y="46.005083" width="1" height="1"></rect>
                <rect id="rect346" fill="#4565AD" fill-rule="nonzero" x="16.229522" y="57.2245801" width="1" height="1"></rect>
                <rect id="rect348" fill="#E30613" fill-rule="nonzero" x="30.5987745" y="25.7366709" width="1" height="1"></rect>
            </g>
            <g id="Texte" transform="translate(24.541140, 60.171106)" fill-rule="nonzero">
                <path d="M0.0498429935,15.4641907 L0.0498429935,7.64527207 L3.19959861,7.64527207 C3.74428979,7.63238062 4.28900222,7.67005835 4.82673118,7.75782076 C5.30888775,7.84357239 5.76619451,8.03462011 6.16606065,8.31734856 C6.64110996,8.65581219 7.0151528,9.11711315 7.24813596,9.65185452 C7.49640469,10.238926 7.61855918,10.8716096 7.60668394,11.508908 C7.61604557,12.0446523 7.53393988,12.5780674 7.36390033,13.0861976 C7.22628808,13.5001568 7.01493929,13.8858139 6.74005899,14.2245472 C6.50606319,14.5073696 6.22414879,14.7468336 5.90719865,14.9319961 C5.56696447,15.119823 5.19898233,15.2522532 4.81708415,15.3243087 C4.33354333,15.4183624 3.84170201,15.4630752 3.3491276,15.4577593 L0.0498429935,15.4641907 Z M1.26054538,14.5412914 L3.21085348,14.5412914 C3.68830175,14.5554937 4.16556421,14.5073891 4.63057488,14.3981938 C4.92943385,14.3238298 5.2086343,14.1856009 5.44896468,13.9930185 C5.75263762,13.725554 5.9833493,13.3852957 6.11943333,13.0041978 C6.29183145,12.5216886 6.37359576,12.0114793 6.36060911,11.499261 C6.36060911,10.682479 6.20357688,10.0543501 5.88951243,9.61487423 C5.61265964,9.20565329 5.21118687,8.89665459 4.74473141,8.73377873 C4.42316371,8.62766139 3.89900836,8.57299488 3.18030455,8.57299488 L1.26054538,8.57299488 L1.26054538,14.5412914 Z" id="path351" fill="#FFFFFF"></path>
                <polygon id="path353" fill="#FFFFFF" points="9.25954192 15.4641907 9.25954192 7.64527207 10.4991854 7.64527207 15.3001912 13.7791759 15.3001912 7.64527207 16.4594427 7.64527207 16.4594427 15.4577593 15.2230149 15.4577593 10.4220092 9.31903195 10.4220092 15.4577593"></polygon>
                <path d="M24.490596,7.64527207 L25.6996906,7.64527207 L25.6996906,12.1584747 C25.6996906,12.9447078 25.5951811,13.5669413 25.3877699,14.0299988 C25.1501533,14.5212693 24.7535535,14.9178691 24.262283,15.1554857 C23.7199054,15.4448966 23.0081689,15.5896021 22.1270734,15.5896021 C21.2695596,15.5896021 20.5690779,15.4631188 20.0256285,15.2101522 C19.5195795,14.9948601 19.1064585,14.6068113 18.8599456,14.1152142 C18.627345,13.6371502 18.5110447,12.9843678 18.5110447,12.1568669 L18.5110447,7.64527207 L19.7249627,7.64527207 L19.7249627,12.1472199 C19.7249627,12.8257277 19.7989233,13.3257655 19.9468444,13.6473332 C20.1033413,13.9779318 20.3731631,14.2414787 20.707352,14.3901546 C21.1212114,14.5765387 21.5721008,14.6661667 22.0257796,14.6522323 C22.9154502,14.6522323 23.5494746,14.4796576 23.9278526,14.1345083 C24.3062306,13.7893589 24.4954195,13.1269295 24.4954195,12.1472199 L24.490596,7.64527207 Z" id="path355" fill="#FFFFFF"></path>
                <path d="M27.6757241,15.4641907 L27.6757241,7.64527207 L29.4957973,7.64527207 L31.6599479,13.1762365 C31.8593199,13.6923527 32.0040253,14.0766261 32.0956721,14.3322724 C32.2001816,14.0492928 32.3625733,13.6312548 32.5780237,13.081374 L34.7711154,7.64527207 L36.398248,7.64527207 L36.398248,15.4577593 L35.2325651,15.4577593 L35.2325651,8.93154287 L32.5764158,15.470622 L31.4846935,15.470622 L28.841407,8.81417066 L28.841407,15.4641907 L27.6757241,15.4641907 Z" id="path357" fill="#FFFFFF"></path>
                <path d="M4.30257583,16.6218344 L4.61128082,16.6218344 C4.84343171,16.6021035 5.07413336,16.673621 5.25441622,16.8212064 C5.42716046,16.9806959 5.52540315,17.2051126 5.52540315,17.4402242 C5.52540315,17.6753359 5.42716046,17.8997525 5.25441622,18.059242 C5.07675138,18.2122289 4.84485114,18.2870167 4.61128082,18.2666532 L4.3057915,18.2666532 L4.30257583,16.6218344 Z M4.62414353,18.0962223 C4.81261177,18.1137214 4.99994327,18.0526351 5.14186752,17.9273993 C5.27485397,17.7993725 5.34932618,17.6222821 5.34780566,17.4376908 C5.34628514,17.2530995 5.26890577,17.07726 5.13382833,16.9514413 C4.99157532,16.8331122 4.80854558,16.7753741 4.62414353,16.7906575 L4.49069293,16.7906575 L4.49069293,18.0962223 L4.62414353,18.0962223 Z" id="path359" fill="#FFFFFF"></path>
                <polygon id="path361" fill="#FFFFFF" points="5.96990435 18.2666532 5.78661076 18.2666532 5.78661076 16.6218344 5.96990435 16.6218344"></polygon>
                <path d="M6.48602051,18.2666532 L6.30272692,18.2666532 L6.30272692,16.6218344 L6.54068702,16.6218344 C6.85260769,16.6218344 7.14201862,16.705442 7.14201862,17.0768527 C7.14813509,17.191706 7.10808104,17.304238 7.03077303,17.3893976 C6.95346503,17.4745572 6.84531981,17.5252759 6.73041196,17.5302632 L7.25456731,18.2666532 L7.02303857,18.2666532 L6.54068702,17.5447337 L6.4940597,17.5447337 L6.48602051,18.2666532 Z M6.48602051,17.3839499 L6.54068702,17.3839499 C6.74809818,17.3839499 6.95711719,17.3437539 6.95711719,17.0897154 C6.95711719,16.8356769 6.75935305,16.7922653 6.53907918,16.7922653 L6.48441267,16.7922653 L6.48602051,17.3839499 Z" id="path363" fill="#FFFFFF"></path>
                <polygon id="path365" fill="#FFFFFF" points="7.48609606 16.6218344 8.33825046 16.6218344 8.33825046 16.7922653 7.66617397 16.7922653 7.66617397 17.2746168 8.30930937 17.2746168 8.30930937 17.4530869 7.66617397 17.4530869 7.66617397 18.0962223 8.33503478 18.0962223 8.33503478 18.2666532 7.48288038 18.2666532"></polygon>
                <path d="M9.90428516,16.9819902 C9.77338451,16.8444572 9.59249503,16.7656079 9.40263955,16.7633242 C9.03942931,16.7809789 8.75401368,17.0806047 8.75401368,17.4442438 C8.75401368,17.8078829 9.03942931,18.1075087 9.40263955,18.1251634 C9.59054029,18.120363 9.76900548,18.0418152 9.89946164,17.9064974 L9.89946164,18.1332026 C9.75912072,18.2352861 9.59063293,18.2914487 9.41711009,18.2939865 C9.11323905,18.2939865 8.83245061,18.1318732 8.68051508,17.8687132 C8.52857954,17.6055532 8.52857954,17.2813266 8.68051508,17.0181666 C8.83245061,16.7550065 9.11323905,16.5928817 9.41711009,16.5928817 C9.59120623,16.5919488 9.76075143,16.6484639 9.89946164,16.7536772 L9.90428516,16.9819902 Z" id="path367" fill="#FFFFFF"></path>
                <polygon id="path369" fill="#FFFFFF" points="10.6519301 18.2666532 10.4686365 18.2666532 10.4686365 16.7922653 10.0779317 16.7922653 10.0779317 16.6218344 11.0587132 16.6218344 11.0587132 16.7922653 10.6583614 16.7922653"></polygon>
                <polygon id="path371" fill="#FFFFFF" points="11.4285161 18.2666532 11.2452225 18.2666532 11.2452225 16.6218344 11.4285161 16.6218344"></polygon>
                <path d="M13.3933084,17.4530869 C13.3952481,17.8001344 13.1876952,18.114097 12.8676241,18.248262 C12.547553,18.3824271 12.1781632,18.3103031 11.932068,18.0655931 C11.6859729,17.8208831 11.6117651,17.4519063 11.7441214,17.131083 C11.8764777,16.8102597 12.1892638,16.600938 12.5363168,16.6009188 C12.7631568,16.5996485 12.9811468,16.6888616 13.1420015,16.848811 C13.3028562,17.0087603 13.3933084,17.2262433 13.3933084,17.4530869 Z M11.8626304,17.4530869 C11.8670598,17.8240737 12.1706108,18.1216537 12.5416124,18.1187109 C12.9126139,18.1157681 13.2114062,17.8134103 13.2099533,17.4423999 C13.2084897,17.0713895 12.90733,16.7713898 12.5363168,16.7713634 C12.1625857,16.7748966 11.8617322,17.0793402 11.8626304,17.4530869 L11.8626304,17.4530869 Z" id="path373" fill="#FFFFFF"></path>
                <polygon id="path375" fill="#FFFFFF" points="13.6537645 16.5526974 14.9400353 17.8968503 14.9400353 16.6218344 15.1217211 16.6218344 15.1217211 18.3406138 13.8354503 16.9996765 13.8354503 18.2666532 13.6521567 18.2666532"></polygon>
                <path d="M16.1346593,16.6218344 L16.4433643,16.6218344 C16.6754966,16.6022751 16.9061352,16.673773 17.0864997,16.8212064 C17.259244,16.9806959 17.3574867,17.2051126 17.3574867,17.4402242 C17.3574867,17.6753359 17.259244,17.8997525 17.0864997,18.059242 C16.9088349,18.2122289 16.6769347,18.2870167 16.4433643,18.2666532 L16.137875,18.2666532 L16.1346593,16.6218344 Z M16.456227,18.0962223 C16.6452126,18.1139817 16.8331409,18.0528905 16.9755589,17.9273993 C17.1085453,17.7993725 17.1830175,17.6222821 17.181497,17.4376908 C17.1799765,17.2530995 17.1025971,17.07726 16.9675197,16.9514413 C16.8247733,16.8328613 16.6411494,16.775118 16.456227,16.7906575 L16.3243843,16.7906575 L16.3243843,18.0962223 L16.456227,18.0962223 Z" id="path377" fill="#FFFFFF"></path>
                <path d="M17.7955565,17.6010081 C17.7802461,17.7277825 17.8055807,17.8561443 17.8679093,17.9675952 C17.9478097,18.069154 18.0699022,18.1284222 18.199124,18.1283791 C18.3221195,18.1269999 18.438848,18.0738885 18.5206917,17.9820658 C18.5907168,17.8693413 18.6191529,17.7356917 18.6010836,17.6042237 L18.6010836,16.6250501 L18.7843772,16.6250501 L18.7843772,17.6556746 C18.8045076,17.8211645 18.751695,17.9872306 18.6396717,18.1106929 C18.5247193,18.2319557 18.3646004,18.3000791 18.1975161,18.29881 C18.0395517,18.2993687 17.8874775,18.2388846 17.7730468,18.1299869 C17.6498748,18.0047057 17.590663,17.8300311 17.6122629,17.6556746 L17.6122629,16.6250501 L17.7955565,16.6250501 L17.7955565,17.6010081 Z" id="path379" fill="#FFFFFF"></path>
                <polygon id="path381" fill="#FFFFFF" points="19.7908841 16.5526974 21.0771549 17.8968503 21.0771549 16.6218344 21.2604485 16.6218344 21.2604485 18.3406138 19.9741777 16.9996765 19.9741777 18.2666532 19.7908841 18.2666532"></polygon>
                <path d="M21.7781725,17.6010081 C21.7636324,17.7277525 21.7889206,17.8558793 21.8505252,17.9675952 C21.9305791,18.0689633 22.0525731,18.1281837 22.1817399,18.1283791 C22.3047355,18.1269999 22.4214639,18.0738885 22.5033076,17.9820658 C22.5733328,17.8693413 22.6017689,17.7356917 22.5836996,17.6042237 L22.5836996,16.6250501 L22.7669932,16.6250501 L22.7669932,17.6556746 C22.7869102,17.8208648 22.7347768,17.9866371 22.6238955,18.1106929 C22.3886765,18.3539741 22.0014568,18.362579 21.7556627,18.1299869 C21.6324907,18.0047057 21.573279,17.8300311 21.5948789,17.6556746 L21.5948789,16.6250501 L21.7781725,16.6250501 L21.7781725,17.6010081 Z" id="path383" fill="#FFFFFF"></path>
                <polygon id="path385" fill="#FFFFFF" points="23.3088347 16.5285798 23.9053428 17.9097131 24.5050666 16.5285798 24.839497 18.2666532 24.6513799 18.2666532 24.440753 17.154029 24.440753 17.154029 23.9101663 18.3341824 23.3827953 17.154029 23.3827953 17.154029 23.1721685 18.2666532 22.9840514 18.2666532"></polygon>
                <path d="M25.048516,16.6218344 L25.9022782,16.6218344 L25.9022782,16.7922653 L25.2318096,16.7922653 L25.2318096,17.2746168 L25.8829842,17.2746168 L25.8829842,17.4530869 L25.2318096,17.4530869 L25.2318096,18.0962223 L25.9022782,18.0962223 L25.9022782,18.2666532 L25.048516,18.2666532 L25.048516,16.6218344 Z M25.775259,16.1619926 L25.4424364,16.4980308 L25.3331034,16.436933 L25.5919654,16.0799928 L25.775259,16.1619926 Z" id="path387" fill="#FFFFFF"></path>
                <path d="M26.3974925,18.2666532 L26.2141989,18.2666532 L26.2141989,16.6218344 L26.452159,16.6218344 C26.7640797,16.6218344 27.0534906,16.705442 27.0534906,17.0768527 C27.0596071,17.191706 27.019553,17.304238 26.942245,17.3893976 C26.864937,17.4745572 26.7567918,17.5252759 26.6418839,17.5302632 L27.1660393,18.2666532 L26.9409419,18.2666532 L26.4441198,17.5447337 L26.3974925,17.5447337 L26.3974925,18.2666532 Z M26.3974925,17.3839499 L26.4537668,17.3839499 C26.661178,17.3839499 26.870197,17.3437539 26.870197,17.0897154 C26.870197,16.8356769 26.6724329,16.7922653 26.452159,16.7922653 L26.3974925,16.7922653 L26.3974925,17.3839499 Z" id="path389" fill="#FFFFFF"></path>
                <polygon id="path391" fill="#FFFFFF" points="27.5840773 18.2666532 27.4007837 18.2666532 27.4007837 16.6218344 27.5840773 16.6218344"></polygon>
                <path d="M29.1870923,18.1332026 C28.8667838,18.3550755 28.4362294,18.3288753 28.1451877,18.0698003 C27.854146,17.8107253 27.7782523,17.3861034 27.9615317,17.042252 C28.144811,16.6984005 28.539633,16.5246789 28.9169668,16.6218607 C29.2943006,16.7190425 29.5560856,17.0618722 29.5504638,17.4514791 C29.5513881,17.6688825 29.4657707,17.8777195 29.3125037,18.0319088 L29.558503,18.2827316 L29.3253664,18.2827316 L29.1870923,18.1332026 Z M29.1870923,17.900066 C29.3054225,17.7813954 29.3719088,17.620672 29.3719937,17.4530869 C29.3693317,17.0805639 29.0654985,16.7805634 28.6929717,16.7826199 C28.3204448,16.7846977 28.0199596,17.0880515 28.0214265,17.4605812 C28.0229042,17.8331108 28.3257779,18.1340801 28.6983094,18.1332045 C28.8295907,18.1306836 28.9569555,18.0880417 29.0632887,18.0110069 L28.6661526,17.6122629 L28.9073284,17.6122629 L29.1870923,17.900066 Z" id="path393" fill="#FFFFFF"></path>
                <path d="M29.9781488,17.6010081 C29.9628385,17.7277825 29.988173,17.8561443 30.0505016,17.9675952 C30.130402,18.069154 30.2524945,18.1284222 30.3817163,18.1283791 C30.5047118,18.1269999 30.6214403,18.0738885 30.703284,17.9820658 C30.7733091,17.8693413 30.8017452,17.7356917 30.7836759,17.6042237 L30.7836759,16.6250501 L30.9669695,16.6250501 L30.9669695,17.6556746 C30.9870999,17.8211645 30.9342874,17.9872306 30.822264,18.1106929 C30.7073116,18.2319557 30.5471927,18.3000791 30.3801085,18.29881 C30.2217453,18.2989571 30.0693163,18.2385607 29.9540313,18.1299869 C29.8314748,18.0043275 29.7723662,17.8299569 29.7932474,17.6556746 L29.7932474,16.6250501 L29.976541,16.6250501 L29.9781488,17.6010081 Z" id="path395" fill="#FFFFFF"></path>
                <polygon id="path397" fill="#FFFFFF" points="31.3013999 16.6218344 32.1551622 16.6218344 32.1551622 16.7922653 31.4846935 16.7922653 31.4846935 17.2746168 32.1278289 17.2746168 32.1278289 17.4530869 31.4846935 17.4530869 31.4846935 18.0962223 32.1551622 18.0962223 32.1551622 18.2666532 31.3013999 18.2666532"></polygon>
                <polygon id="path399" fill="#878787" points="24.5356155 28.363879 24.2928319 28.3799574 24.1159697 25.8669058 24.3603611 25.8492196"></polygon>
                <polygon id="path401" fill="#878787" points="25.4713775 26.0148269 25.1964371 26.8187462 25.0308298 26.7785502 25.2430645 25.9569447"></polygon>
                <path d="M26.4344728,26.193297 C26.4393868,26.2403373 26.4250794,26.2873668 26.394801,26.3237008 C26.3645227,26.3600348 26.3208442,26.3825884 26.2736889,26.3862376 C26.2277495,26.392116 26.1813803,26.3792238 26.1450681,26.3504765 C26.1087558,26.3217293 26.0855678,26.2795555 26.0807483,26.233493 C26.073568,26.1717422 26.0998767,26.1108515 26.1497643,26.0737578 C26.1996518,26.0366641 26.265539,26.0290028 26.3226069,26.0536599 C26.3796748,26.0783169 26.4192533,26.1315463 26.4264336,26.193297 L26.4344728,26.193297 Z M26.6129429,28.1628992 L26.3701592,28.1918403 L26.2093754,26.7656875 L26.452159,26.7367464 L26.6129429,28.1628992 Z" id="path403" fill="#878787"></path>
                <path d="M27.4120386,26.7865894 L27.4120386,26.7865894 C27.4821712,26.6385502 27.622644,26.536223 27.7850571,26.5148647 C28.1773697,26.4553747 28.3108203,26.7254915 28.3622711,27.0583141 L28.4892904,27.9008215 L28.2481146,27.9361939 L28.1259189,27.1322747 C28.0921543,26.9023538 28.0423113,26.6997661 27.7625474,26.7415699 C27.4297248,26.7914129 27.4554502,27.1033336 27.4940384,27.3573721 L27.5953322,28.0310564 L27.3541564,28.0664289 L27.138706,26.6483153 L27.3814897,26.611335 L27.4120386,26.7865894 Z" id="path405" fill="#878787"></path>
                <path d="M29.1983472,26.4891393 L29.1983472,26.4891393 C29.261815,26.3383291 29.3974078,26.2299759 29.558503,26.2013362 C29.9492077,26.1241599 30.0939132,26.3878455 30.1598346,26.7174524 L30.3206184,27.5535284 L30.0810505,27.6017635 L29.9202666,26.8074913 C29.8752472,26.5791782 29.817365,26.3781984 29.5376011,26.4344728 C29.2079942,26.4987863 29.2481902,26.8090991 29.2964253,27.0615298 L29.4282681,27.7287828 L29.1887001,27.7770179 L28.9105441,26.3669436 L29.1517198,26.3203162 L29.1983472,26.4891393 Z" id="path407" fill="#878787"></path>
                <path d="M30.74348,26.7335307 C30.644675,26.3291947 30.8921665,25.9212703 31.2964247,25.8221474 C31.700683,25.7230244 32.1088018,25.970195 32.2082427,26.3743752 C32.3076836,26.7785553 32.0608341,27.1868685 31.6567322,27.2866272 C31.4622192,27.3355345 31.2562242,27.3045885 31.084667,27.2006877 C30.9131098,27.0967869 30.7902518,26.9285683 30.74348,26.7335307 L30.74348,26.7335307 Z M30.9798322,26.6724329 C31.0597962,26.9397585 31.3393207,27.0936075 31.6079524,27.0181474 C31.8765842,26.9426873 32.0351091,26.6657879 31.9641742,26.3959259 C31.8932394,26.1260639 31.6190432,25.9629079 31.3480272,26.0292975 C31.2114644,26.0617852 31.0944278,26.1493248 31.0246844,26.2711473 C30.9549411,26.3929697 30.9387064,26.5382184 30.9798322,26.6724329 Z" id="path409" fill="#878787"></path>
                <polygon id="path411" fill="#878787" points="33.2742178 26.3187084 33.4092762 25.2703977 33.6729617 25.1932215 33.4350016 26.86055 32.3223774 25.5935732 32.5892786 25.5147892"></polygon>
                <path d="M35.790485,25.984278 L35.5589563,26.0646699 L35.4946427,25.8765528 L35.4946427,25.8765528 C35.4347021,26.0607096 35.2899492,26.2048644 35.1055458,26.2640419 C34.7084097,26.4039238 34.3402147,26.153101 34.2083719,25.7816903 C34.0765292,25.4102797 34.2083719,24.9777711 34.6087237,24.8362813 C34.791218,24.7727633 34.9929247,24.7983485 35.153781,24.9054184 L35.153781,24.9054184 L35.0862517,24.7124777 L35.3161727,24.6320858 L35.790485,25.984278 Z M34.4318615,25.6820044 C34.5251161,25.9472977 34.7678997,26.143454 35.0573107,26.0421602 C35.3467216,25.9408664 35.4255057,25.6450241 35.3306432,25.3716915 C35.2961426,25.2414871 35.2087701,25.1316399 35.0896665,25.0687288 C34.9705629,25.0058177 34.8305792,24.9955742 34.7035862,25.0404768 C34.5806297,25.0872051 34.4820896,25.1821205 34.4307882,25.3032403 C34.3794868,25.4243601 34.3798745,25.5611772 34.4318615,25.6820044 L34.4318615,25.6820044 Z" id="path413" fill="#878787"></path>
                <polygon id="path415" fill="#878787" points="36.6844432 25.6337692 36.457738 25.7238082 36.0123667 24.5983212 35.8724848 24.6529877 35.790485 24.4423609 35.9287591 24.3876944 35.7390342 23.9053428 35.9673472 23.8153039 36.1570722 24.2976554 36.3950323 24.2044008 36.4786399 24.4134198 36.239072 24.5082823"></polygon>
                <path d="M36.8805995,23.4101286 C36.9183237,23.4989237 36.87693,23.6014886 36.7881398,23.6392244 C36.6993496,23.6769602 36.5967793,23.6355801 36.5590318,23.5467948 C36.5213076,23.4579997 36.5627013,23.3554348 36.6514915,23.317699 C36.7402817,23.2799631 36.842852,23.3213433 36.8805995,23.4101286 L36.8805995,23.4101286 Z M37.6105582,25.247888 L37.3870686,25.3443583 L36.8211095,24.0243229 L37.0462069,23.9278526 L37.6105582,25.247888 Z" id="path417" fill="#878787"></path>
                <path d="M37.8935378,24.3539298 C37.7142991,23.9782055 37.8734318,23.528313 38.249048,23.348848 C38.6246642,23.169383 39.0746525,23.3282447 39.2543438,23.7037527 C39.434035,24.0792607 39.2754444,24.5293447 38.9000447,24.7092621 C38.7194816,24.7958003 38.5119144,24.8069729 38.3231054,24.7403167 C38.1342964,24.6736605 37.9797496,24.5346489 37.8935378,24.3539298 L37.8935378,24.3539298 Z M38.1138116,24.2462046 C38.1925079,24.4104902 38.3528716,24.5203125 38.5344953,24.5343023 C38.716119,24.5482922 38.8914097,24.4643243 38.9943371,24.3140285 C39.0972645,24.1637327 39.1121915,23.9699425 39.0334953,23.8056568 C38.9118414,23.5516932 38.6073432,23.444435 38.3533796,23.5660889 C38.099416,23.6877428 37.9921577,23.992241 38.1138116,24.2462046 Z" id="path419" fill="#878787"></path>
                <path d="M39.7007482,22.8441694 L39.7007482,22.8441694 C39.7151747,22.6809751 39.8114496,22.53626 39.9563946,22.459896 C40.3052955,22.2685632 40.5223537,22.4775822 40.6847454,22.7718167 L41.0931364,23.5194616 L40.8792939,23.6368338 L40.4966283,22.9197378 C40.3856874,22.7171502 40.2699231,22.5435036 40.0142767,22.6801699 C39.7200423,22.8409537 39.8534929,23.1239333 39.9740808,23.3490307 L40.2956485,23.9471466 L40.081806,24.0645188 L39.3920433,22.8055813 L39.6058858,22.6882091 L39.7007482,22.8441694 Z" id="path421" fill="#878787"></path>
                <path d="M43.8312853,21.7942509 L43.6286977,21.9309171 L43.5177568,21.7701333 L43.5177568,21.7701333 C43.5062053,21.9636163 43.4028211,22.1399074 43.2396008,22.2444456 C43.0767963,22.3474397 42.8790921,22.3797557 42.691967,22.3339601 C42.5048418,22.2881645 42.3444057,22.1681998 42.2475644,22.001662 C42.0192514,21.6608003 42.0401533,21.225076 42.3970934,20.9839003 C42.5580413,20.8772404 42.7593069,20.8511175 42.9421507,20.9131554 L42.9421507,20.9131554 L42.8279941,20.7427245 L43.0305818,20.6076661 L43.8312853,21.7942509 Z M42.440505,21.8440939 C42.6012889,22.0772304 42.8826606,22.2058575 43.1366991,22.0370345 C43.3907376,21.8682114 43.3939533,21.5546829 43.2315616,21.3183307 C43.165058,21.2014613 43.052789,21.117657 42.9218335,21.0871313 C42.790878,21.0566055 42.6531245,21.0821295 42.5417989,21.1575468 C42.4358839,21.2337131 42.3653376,21.3495332 42.3462521,21.4785876 C42.3271666,21.6076419 42.3611697,21.7389236 42.440505,21.842486 L42.440505,21.8440939 Z" id="path423" fill="#878787"></path>
                <path d="M44.2187744,20.7266461 C44.3634799,20.9179789 44.511401,21.0675079 44.7477533,20.88743 C44.9841056,20.707352 44.8812039,20.5256663 44.7348906,20.3343335 L44.252539,19.6911981 L44.4470875,19.5448848 L44.9471253,20.2057064 C45.1770462,20.5095879 45.2220657,20.8086459 44.8844196,21.0642922 C44.5467735,21.3199385 44.2702253,21.1945271 44.0403044,20.8906456 L43.5402666,20.229824 L43.734815,20.0819029 L44.2187744,20.7266461 Z" id="path425" fill="#878787"></path>
                <path d="M46.463317,18.2827316 C46.3852887,18.2415045 46.2903669,18.2496766 46.2205334,18.3036335 C46.1503999,18.362818 46.1384261,18.4663562 46.1932001,18.5399857 C46.2816312,18.6380639 46.4375916,18.5641033 46.6096303,18.5046133 C46.7835225,18.412777 46.997327,18.4483014 47.1321778,18.5914366 C47.2159085,18.6867517 47.2576556,18.8118097 47.2479715,18.9383088 C47.2382874,19.0648079 47.1779906,19.182054 47.080727,19.2635131 C46.9118359,19.4217258 46.658459,19.4486389 46.4601013,19.3294344 L46.5613951,19.1171998 C46.6765227,19.1936455 46.8285314,19.1837748 46.9328058,19.0930822 C46.9810253,19.0553546 47.011367,18.9992601 47.0165524,18.9382551 C47.0217378,18.8772502 47.0012991,18.8168394 46.9601391,18.7715145 C46.7462965,18.5319466 46.3362977,19.0464549 46.0340241,18.7088088 C45.961033,18.6248396 45.9251436,18.5148985 45.9345335,18.4040367 C45.9439234,18.2931749 45.9977929,18.1908363 46.0838671,18.1203399 C46.2141531,18.0146155 46.3934406,17.9927512 46.5453167,18.0640655 L46.463317,18.2827316 Z" id="path427" fill="#878787"></path>
                <path d="M47.4826866,17.9354385 C47.5688148,18.0287282 47.6893663,18.0827105 47.8163172,18.0848365 C47.943268,18.0869625 48.0655595,18.0370469 48.1547631,17.9466933 C48.2888245,17.809862 48.3292112,17.6066668 48.2576647,17.4289693 L48.4891935,17.3694793 C48.576775,17.6358871 48.5028924,17.9289131 48.2994685,18.1219477 C48.1629121,18.2590418 47.9754593,18.333118 47.7820752,18.3264076 C47.5886911,18.3196971 47.4068239,18.2328053 47.2800989,18.0865753 C46.9826488,17.7843016 46.9135118,17.3598323 47.2334716,17.0446959 C47.5534315,16.7295596 48.0036263,16.8228142 48.2866058,17.1443819 L47.4826866,17.9354385 Z M47.9650381,17.1765387 C47.795491,17.0465998 47.5568832,17.0581563 47.4006868,17.2038719 C47.2495257,17.3591026 47.2293167,17.5995895 47.3524517,17.7778703 L47.9650381,17.1765387 Z" id="path429" fill="#878787"></path>
                <path d="M48.3798605,16.1459142 L48.3798605,16.1459142 C48.3370552,16.0192929 48.3652698,15.8794466 48.453821,15.779327 C48.5088693,15.7241244 48.57772,15.6847018 48.653193,15.6651705 L48.7368006,15.9015228 C48.6822461,15.9048781 48.6305408,15.9270375 48.5904873,15.9642285 C48.4071937,16.1619926 48.6499773,16.4063841 48.7866436,16.5334033 L49.3124068,17.0157548 L49.1516229,17.1942249 L48.1017044,16.2166591 L48.2624883,16.0365812 L48.3798605,16.1459142 Z" id="path431" fill="#878787"></path>
                <polygon id="path433" fill="#878787" points="50.0552282 15.4850926 49.5969942 14.53486 49.7754643 14.3242332 50.4845211 15.8516798 48.862212 15.3966615 49.0422899 15.1860346"></polygon>
                <path d="M49.828523,13.3820398 C49.8648542,13.4105513 49.888331,13.452361 49.8937621,13.4982235 C49.8991932,13.5440859 49.886131,13.5902226 49.857464,13.6264313 C49.8189775,13.6752574 49.7573661,13.6998424 49.6958382,13.6909252 C49.6343102,13.682008 49.5822133,13.6409434 49.5591719,13.5832 C49.5361304,13.5254566 49.545645,13.4598071 49.5841315,13.4109809 C49.6444277,13.3369462 49.7526024,13.3241361 49.828523,13.3820398 Z M51.3463225,14.6490166 L51.1951857,14.8403494 L50.0696987,13.9496068 L50.2208355,13.758274 L51.3463225,14.6490166 Z" id="path435" fill="#878787"></path>
                <path d="M51.6260864,12.5958068 L51.6260864,12.5958068 C51.4470513,12.5889417 51.2759565,12.6699866 51.1678524,12.812865 C51.0871482,12.925274 51.0552895,13.0655239 51.0795106,13.2017674 C51.1037317,13.3380109 51.1819772,13.4586867 51.2964795,13.5363923 C51.4025499,13.6232619 51.5393888,13.6632567 51.6755466,13.6471846 C51.8117043,13.6311125 51.9354702,13.5603559 52.018399,13.4511769 C52.1301877,13.3003072 52.1585871,13.1033244 52.0939674,12.9270215 L52.0939674,12.9270215 L52.3576529,13.1199622 C52.3560924,13.2837072 52.3032347,13.4428426 52.2065161,13.5749805 C52.0896033,13.7408264 51.9100578,13.8517613 51.7094283,13.8821138 C51.5087987,13.9124662 51.3044733,13.8596055 51.1437348,13.7357643 C50.9799264,13.6165642 50.8707079,13.4367002 50.8404934,13.2363781 C50.8102789,13.0360561 50.8615879,12.8319798 50.982951,12.6697674 C51.0784292,12.5426144 51.2101483,12.4473282 51.360793,12.3964348 L51.6260864,12.5958068 Z" id="path437" fill="#878787"></path>
                <path d="M52.3206726,12.1906315 C52.4243242,12.2640366 52.5534351,12.2919813 52.6781635,12.2680067 C52.8028919,12.2440321 52.9124424,12.1702134 52.9814943,12.0636123 C53.0835566,11.9020551 53.0835566,11.6961906 52.9814943,11.5346334 L53.1953368,11.4285161 C53.3358452,11.6708332 53.3245859,11.9723318 53.1663957,12.2034942 C53.0615729,12.3664384 52.8934563,12.478195 52.7026403,12.5117786 C52.5118243,12.5453622 52.3156535,12.4977202 52.1614966,12.3803564 C51.8077721,12.145612 51.6518118,11.7452602 51.8994189,11.3706339 C52.1470261,10.9960075 52.6068679,10.9943997 52.9509453,11.250046 L52.3206726,12.1906315 Z M52.6293776,11.349732 C52.4365339,11.2588916 52.2063155,11.3191547 52.0827125,11.4928296 C51.9679743,11.6766279 51.9982008,11.9157536 52.1550653,12.0652201 L52.6293776,11.349732 Z" id="path439" fill="#878787"></path>
                <path d="M54.766195,9.07303266 L54.766195,9.07303266 C54.8428506,9.25058016 54.8309235,9.45393643 54.7340382,9.62130558 C54.6359,9.78704943 54.4744219,9.90561097 54.2868953,9.94960993 C54.0993687,9.9936089 53.902009,9.95924067 53.740394,9.85444217 C53.381846,9.65667803 53.2017681,9.25793408 53.4107871,8.88973907 C53.505225,8.72122003 53.6729205,8.60644971 53.8641976,8.57942624 L53.8641976,8.57942624 L52.7387106,7.95236922 L52.8576907,7.7385267 L55.0604294,8.96530748 L54.9414494,9.17915 L54.766195,9.07303266 Z M53.8416878,9.63256045 C54.0876871,9.76922673 54.4012156,9.75475618 54.5491368,9.48785499 C54.6970579,9.2209538 54.5603917,8.94440558 54.307961,8.80291579 C54.1956239,8.72814469 54.0571017,8.70385098 53.926025,8.73593269 C53.7949483,8.7680144 53.6833044,8.85353758 53.6181983,8.97173883 C53.5571,9.08847658 53.5464159,9.22512708 53.5886283,9.34994222 C53.6308408,9.47475735 53.7222749,9.57687152 53.8416878,9.63256045 L53.8416878,9.63256045 Z" id="path441" fill="#878787"></path>
                <path d="M54.8465869,7.92182029 C54.9586719,7.98336983 55.0911676,7.99600884 55.2128679,7.95676051 C55.3345682,7.91751217 55.4347154,7.8298458 55.4897223,7.71440912 C55.5723,7.54192195 55.5451791,7.33693841 55.4205853,7.19186161 L55.6199572,7.05841101 C55.788379,7.28236613 55.8133867,7.58308296 55.6842708,7.83178133 C55.5999154,8.00614429 55.4467327,8.13748187 55.261536,8.19423079 C55.0763392,8.25097971 54.8758727,8.2280091 54.7083128,8.13083929 C54.3288629,7.94111435 54.1246674,7.5632723 54.3256472,7.16613619 C54.5266271,6.76900008 54.9832532,6.70468654 55.3546639,6.91692123 L54.8465869,7.92182029 Z M55.0491746,7.05037182 C54.8468632,6.98292852 54.6254063,7.07123956 54.5250192,7.25939083 C54.4322914,7.45523144 54.491659,7.68932854 54.666509,7.81731079 L55.0491746,7.05037182 Z" id="path443" fill="#878787"></path>
                <polygon id="path445" fill="#878787" points="56.7679539 5.3830433 56.6714836 5.60653285 55.5604672 5.1241813 55.5009772 5.26245541 55.293566 5.17241645 55.353056 5.03575018 54.8787437 4.83155469 54.975214 4.6064573 55.4495263 4.81065279 55.5508202 4.57430053 55.7582313 4.66433949 55.6569375 4.89908391"></polygon>
                <path d="M56.3354454,4.58073189 C56.0508481,4.46897455 55.861639,4.19673342 55.8560986,3.8910299 C55.8505583,3.58532639 56.0297787,3.30640816 56.3101397,3.18441201 C56.5905006,3.06241586 56.916749,3.12138463 57.1366649,3.33380487 C57.3565807,3.5462251 57.4268233,3.87023328 57.314619,4.15465468 C57.2414945,4.34117807 57.0971502,4.49093485 56.9134436,4.57087283 C56.7297371,4.65081081 56.5217713,4.65435813 56.3354454,4.58073189 L56.3354454,4.58073189 Z M56.4222686,4.35081098 C56.6855676,4.44207969 56.9733552,4.30496564 57.0683534,4.04298914 C57.1633516,3.78101264 57.0303378,3.49130716 56.7697366,3.39259863 C56.5091354,3.29389011 56.2175704,3.42277687 56.1151715,3.68195016 C56.0636349,3.81113803 56.0673133,3.95580552 56.1253487,4.08220732 C56.1833842,4.20860913 56.2907018,4.30569225 56.4222686,4.35081098 L56.4222686,4.35081098 Z" id="path447" fill="#878787"></path>
                <path d="M57.2294036,2.46481642 C57.4561088,2.54520835 57.6619121,2.58861998 57.7599903,2.30403257 C57.8580684,2.01944516 57.6715592,1.9294062 57.4384226,1.84901427 L56.6827385,1.58532876 L56.7647382,1.35380002 L57.5461478,1.62713256 C57.9063036,1.7541518 58.1088912,1.97764136 57.9690093,2.37799314 C57.8291273,2.77834493 57.5300694,2.82658008 57.16509,2.69956084 L56.3836805,2.4262283 L56.4640724,2.19630739 L57.2294036,2.46481642 Z" id="path449" fill="#878787"></path>
                <path d="M57.4480696,0.337646085 C57.360561,0.343239023 57.2838528,0.398119697 57.2503055,0.479135873 C57.2204049,0.566042835 57.2634007,0.661197447 57.3483836,0.69619407 C57.4721872,0.736390033 57.5686575,0.593292406 57.6876375,0.455018295 C57.7904008,0.287423864 57.9920668,0.208596764 58.181244,0.262077675 C58.3020284,0.301243894 58.4018881,0.387509443 58.4581886,0.501321243 C58.5144891,0.615133042 58.5224626,0.746852884 58.4803019,0.866624951 C58.4156584,1.08870131 58.2115539,1.24095931 57.9802641,1.23965195 L57.9577544,1.00489906 C58.1040677,0.987212839 58.2166164,0.948624715 58.2648516,0.795880057 C58.2872138,0.739299815 58.2848038,0.675931789 58.2582089,0.621213417 C58.2316139,0.566495045 58.1832755,0.525449809 58.1249696,0.508076966 C57.8194803,0.409998817 57.7294413,1.06117341 57.2985406,0.924507137 C57.1923317,0.890596181 57.1046042,0.814737127 57.0557178,0.714535249 C57.0068314,0.614333372 57.0010368,0.498501025 57.0396786,0.393920432 C57.0974049,0.23636126 57.2407659,0.12617983 57.4078736,0.110940856 L57.4480696,0.337646085 Z" id="path451" fill="#878787"></path>
            </g>
        </g>
    </g>
</svg>