<svg xmlns="http://www.w3.org/2000/svg" width="86.119" height="86.119" version="1.1" id="svg228"><circle id="path3939" cx="43.059" cy="43.059" r="43.059" fill="#fff" stroke-width=".861"/><g id="Artboard" transform="translate(-4.304 -6.585)" fill="none" fill-rule="evenodd" stroke="none" stroke-width="1"><g id="logo_dnum_dark" transform="translate(1 1)" fill-rule="nonzero"><g id="Marianne" transform="translate(.584 .842)"><path d="M54.488 51.057c-1.418 1.418-2.653 12.303-2.653 14.208 0 1.263.3.385.322.192.763-6.867 2.223-12.125 2.555-13.136.492-1.505 2.56-1.777 3.472-1.949.914-.172 1.944-.259 3.239-1.286 1.133-.9.866-2.12.384-2.711-.39-.482-.698-.67-.285-1.256.414-.585.643-1.006.67-1.696.028-.69-.613-.957-.869-.984-.256-.027-.77.256-.187-.33.584-.585.515-1.198.443-1.411-.073-.214-.912-.804-1.242-1.113-.392-.376-.984-.785-.384-1.608.855-1.182.928-1.812.913-2.297-.022-.729-2.09-1.213-3.352-1.883-1.228-.656-3.182-1.298-3.376-3.494-.195-2.196-.357-3.124-2.14-5.264-1.784-2.14-2.695-2.64-3.081-2.796-.386-.156-.056-.442.2-.7.255-.257.514-.541.385-.884-.128-.342-1.399-.228-1.826-.2-.885.06.128-.585 0-1.654-.08-.673-.756-1.413-2.267-2.582-1.512-1.169-4.02-1.94-6.02-2.032-6.033-.28-8.901 1.286-11.598 2.867-2.696 1.58-3.054 3.317-3.215 4.34-.161 1.025-.785 2.09-.785 2.09h1.269c2.325-5.591 7.46-7.017 11.655-7.474 3.468-.378 8.272.513 9.5 2.267 1.358 1.942-1.512 2.71-3.254 3.396 4.38-.855 5.065-.357 5.004 0-.061.357-.794-.085-2.363.114-1.57.2-2.298 1.298-3.224 2.952-.926 1.654-2.573 1.286-3.31 1.27-.443 0-.666.783 0 .843 2.09.185 2.967-.322 3.922-1.984.955-1.663 1.898-2.153 3.055-2.425 1.158-.272 2.267.556 2.853.999.585.442 2.696 2.31 3.41 3.665 1.24 2.356.683 4.108 1.227 4.893 1.175 1.703 5.206 3.139 5.777 3.352.57.214.74 1.099.37 1.898-.372.799-.965.984-.985 1.683-.019.7 1.47 1.812 1.798 2.04.328.229.286.941-.185 1.398-.471.456-1.399.898-1.598.998-.2.1-.17.243 0 .16.395-.211 1.55-.885 2.214-.276.664.61.032 1.258-.232 1.666-.308.482-.534.788-.093 1.272.334.333.501.797.457 1.267-.021.329-.154.64-.378.882-.513.574-1.126.869-2.931 1.3-.95.207-2.383.529-3.261 1.413z" id="path6" fill="#164194"/><path d="M49.99 32.113c.454.449-.657 1.152-.824 1.907l-.209.095c-.145.236.085.558-.125.655-.245.025-.42.192-.6.358.41.151.855.201 1.248-.063a.349.349 0 01.337.185.248.248 0 00.11-.133c.069-.032.14-.065.172 0l.128.281c-.082.378-.497.397-.746.597a3.452 3.452 0 001.608-.742c.359-.33-.386-.842-.265-1.321-.143.066-.097-.21-.24-.145.079-.204.122-.482.232-.616a.545.545 0 00.321-.403c-.064-.14-.378-.08-.368-.256.286-.471.497-1.108.116-1.41-.331-.264-2.251.072-4.304 2.626-.073.09-.058.27.284-.044.172-.16.955-.897 1.706-1.262s1.295-.432 1.42-.309z" id="path10" fill="#164194"/><path d="M57.64 38.238c-.063-.036-.194-.375.11-.711.304-.336.446-.418.568-.365.122.053-.117.397-.25.579-.134.181-.178.641-.429.497z" id="path12" fill="#444d9b"/><circle id="circle14" cx="32.363" cy="30.792" r="1.359" fill="#164194"/><path d="M36.913 29.819a4.56 4.56 0 00-.285-.886c.259-.25.616-.643.622-.91l-.694-.965c-.259-.082-.745.13-1.063.296a4.679 4.679 0 00-.756-.558c.065-.353.127-.88-.027-1.104l-1.125-.38c-.26.085-.528.542-.69.862a5.143 5.143 0 00-.421-.029v.643h-.77v.566a3.508 3.508 0 11.77 6.952v1.144c.143 0 .282-.015.42-.03.162.32.432.777.69.862l1.126-.379c.16-.225.092-.75.027-1.105.27-.16.523-.347.756-.557.322.16.804.377 1.063.295l.694-.964c0-.272-.363-.661-.622-.91a4.56 4.56 0 00.285-.9c.355-.05.873-.16 1.035-.377v-1.19c-.162-.217-.68-.326-1.035-.376z" id="path16" fill="#e30613"/><path d="M62.99 78.951l-2.09-2.11c-3.166 2.138-11.32 8.25-26.208 3.908-.398-.118-.813.278-.299.683.515.405 14.546 5.95 28.597-2.48z" id="path18" fill="#164194"/><path d="M69.438 69.963c1.054-1.054 8.404-8.727 12.04-24.477.084-.372.94-.428.855.172-.086.6-2.282 16.01-10.87 25.989z" id="path20" fill="#e30613"/><path d="M38.953 53.689c-.884-.474-2.539-1.085-7.16 3.023h.634v.615c.7-.57 4.309-3.79 6.089-3.11.482.186.7 1.085.286 2.882-.413 1.798-2.573 6.034-4.222 7.718h1.584c.598-1.013 2.767-4.95 3.408-7.075.642-2.125.25-3.59-.619-4.053z" id="path22" fill="#164194"/><path id="rect24" d="M18.733 37.226h1v1h-1z" fill="#2f52a0"/><path id="rect26" d="M17.62 51.989h1v1h-1z" fill="#4565ad"/><path id="rect28" d="M20.616 53.99h1v1h-1z" fill="#164194"/><path id="rect30" d="M18.252 47.393h1v1h-1z" fill="#2f52a0"/><path id="rect32" d="M19.087 55.694h1v1h-1z" fill="#2f52a0"/><path id="rect34" d="M20.038 54.343h1v1h-1z" fill="#2f52a0"/><path id="rect36" d="M19.439 38.746h1v1h-1z" fill="#2f52a0"/><path id="rect38" d="M19.439 54.933h1v1h-1z" fill="#2f52a0"/><path id="rect40" d="M20.273 55.16h1v1h-1z" fill="#2f52a0"/><path id="rect42" d="M20.616 44.95h1v1h-1z" fill="#164194"/><path id="rect44" d="M18.569 52.205h1v1h-1z" fill="#2f52a0"/><path id="rect46" d="M21.301 45.507h1v1h-1z" fill="#164194"/><path id="rect48" d="M21.595 51.343h1v1h-1z" fill="#164194"/><path id="rect50" d="M24.359 34.654h1v1h-1z" fill="#e30613"/><path id="rect52" d="M21.815 46.385h1v1h-1z" fill="#164194"/><path id="rect54" d="M19.654 37.847h1v1h-1z" fill="#2f52a0"/><path id="rect56" d="M21.151 41.506h1v1h-1z" fill="#164194"/><path id="rect58" d="M20.402 39.181h1v1h-1z" fill="#2f52a0"/><path id="polygon60" d="M22.2 45.378h.535v-.534h-.536v-.535h-.62v.62h.62z" fill="#164194"/><path id="rect62" d="M22.006 42.42h1v1h-1z" fill="#164194"/><path id="rect64" d="M19.654 55.757h1v1h-1z" fill="#2f52a0"/><path id="rect66" d="M23.921 56.926h1v1h-1z" fill="#164194"/><path id="rect68" d="M23.698 51.626h1v1h-1z" fill="#164194"/><path id="rect70" d="M23.119 57.382h1v1h-1z" fill="#164194"/><path id="rect72" d="M20.884 54.708h1v1h-1z" fill="#164194"/><path id="rect74" d="M22.857 50.861h1v1h-1z" fill="#164194"/><path id="rect76" d="M24.425 45.978h1v1h-1z" fill="#164194"/><path id="rect78" d="M24.121 50.861h1v1h-1z" fill="#164194"/><path id="rect80" d="M24.532 45.143h1v1h-1z" fill="#164194"/><path id="rect82" d="M24.147 50.129h1v1h-1z" fill="#164194"/><path id="rect84" d="M22.868 45.224h1v1h-1z" fill="#164194"/><path id="rect86" d="M22.084 53.99h1v1h-1z" fill="#164194"/><path id="rect88" d="M21.336 53.79h1v1h-1z" fill="#164194"/><path id="rect90" d="M21.495 58.286h1v1h-1z" fill="#164194"/><path id="rect92" d="M20.974 51.576h1v1h-1z" fill="#164194"/><path id="rect94" d="M23.312 50.407h1v1h-1z" fill="#164194"/><path id="rect96" d="M23.618 51.19h1v1h-1z" fill="#164194"/><path id="rect98" d="M23.119 52.483h1v1h-1z" fill="#164194"/><path id="rect100" d="M22.199 51.19h1v1h-1z" fill="#164194"/><path id="rect102" d="M22.585 53.189h1v1h-1z" fill="#164194"/><path id="rect104" d="M21.151 46.962h1v1h-1z" fill="#164194"/><path id="rect106" d="M27.475 30.251h1v1h-1z" fill="#e30613"/><path id="rect108" d="M27.539 29.095h1v1h-1z" fill="#e30613"/><path id="rect110" d="M27.475 28.103h1v1h-1z" fill="#e30613"/><path id="rect112" d="M27.504 32.456h1v1h-1z" fill="#e30613"/><path id="rect114" d="M26.436 26.036h1v1h-1z" fill="#e30613"/><path id="rect116" d="M27.504 34.546h1v1h-1z" fill="#e30613"/><path id="rect118" d="M26.201 54.933h1v1h-1z" fill="#164194"/><path id="rect120" d="M25.52 32.533h1v1h-1z" fill="#e30613"/><path id="rect122" d="M26.436 29.004h1v1h-1z" fill="#e30613"/><path id="rect124" d="M26.436 31.277h1v1h-1z" fill="#e30613"/><path id="rect126" d="M25.473 27.959h1v1h-1z" fill="#e30613"/><path id="rect128" d="M29.644 33.522h1v1h-1z" fill="#e30613"/><path id="rect130" d="M29.592 32.411h1v1h-1z" fill="#e30613"/><path id="rect132" d="M30.449 35.686h1v1h-1z" fill="#e30613"/><path id="rect134" d="M29.592 26.967h1v1h-1z" fill="#e30613"/><path id="rect136" d="M28.447 27.939h1.005v1.005h-1.005z" fill="#e30613"/><path id="rect138" d="M28.447 30.251h1.005v1.005h-1.005z" fill="#e30613"/><path id="rect140" d="M29.592 34.501h1v1h-1z" fill="#e30613"/><path id="rect142" d="M28.447 33.353h1v1h-1z" fill="#e30613"/><path id="rect144" d="M27.475 26.967h1v1h-1z" fill="#e30613"/><path id="rect146" d="M18.873 33.268h1v1h-1z" fill="#2f52a0"/><path id="rect148" d="M18.252 46.417h1v1h-1z" fill="#2f52a0"/><path id="rect150" d="M18.873 47.393h1v1h-1z" fill="#2f52a0"/><path id="rect152" d="M18.127 36.221h1v1h-1z" fill="#2f52a0"/><path id="rect154" d="M19.397 51.989h1v1h-1z" fill="#2f52a0"/><path id="rect156" d="M20.402 40.456h1v1h-1z" fill="#2f52a0"/><path id="rect158" d="M17.857 35.044h1v1h-1z" fill="#4565ad"/><path id="rect160" d="M19.654 47.304h1v1h-1z" fill="#2f52a0"/><path id="rect162" d="M20.167 51.626h1v1h-1z" fill="#2f52a0"/><path id="rect164" d="M20.252 43.859h1v1h-1z" fill="#2f52a0"/><path id="rect166" d="M18.733 30.165h1v1h-1z" fill="#2f52a0"/><path id="rect168" d="M25.473 33.615h1v1h-1z" fill="#e30613"/><path id="rect170" d="M18.627 31.406h1v1h-1z" fill="#2f52a0"/><path id="rect172" d="M24.703 49.615h1v1h-1z" fill="#164194"/><path id="rect174" d="M25.473 31.406h1v1h-1z" fill="#e30613"/><path id="rect176" d="M25.367 45.86h1v1h-1z" fill="#164194"/><path id="rect178" d="M25.473 29.095h1v1h-1z" fill="#e30613"/><path id="rect180" d="M18.873 34.263h1v1h-1z" fill="#2f52a0"/><path id="rect182" d="M20.506 47.393h1v1h-1z" fill="#2f52a0"/><path id="rect184" d="M24.804 57.104h1v1h-1z" fill="#164194"/><path id="rect186" d="M23.79 23.711h1.277v1.277H23.79z" fill="#164194"/><path id="rect188" d="M19.011 59.103h1v1h-1z" fill="#2f52a0"/><path id="rect190" d="M18.186 59.082h1v1h-1z" fill="#2f52a0"/><path id="rect192" d="M18.252 56.099h1v1h-1z" fill="#2f52a0"/><path id="rect194" d="M17.62 56.749h1v1h-1z" fill="#4565ad"/><path id="rect196" d="M17.77 56.27h1v1h-1z" fill="#4565ad"/><path id="rect198" d="M21.889 61.794h1v1h-1z" fill="#4565ad"/><path id="rect200" d="M17.31 59.212h1v1h-1z" fill="#4565ad"/><path id="rect202" d="M21.336 61.834h1v1h-1z" fill="#4565ad"/><path id="rect204" d="M20.703 58.675h1v1h-1z" fill="#164194"/><path id="rect206" d="M19.846 58.889h1v1h-1z" fill="#2f52a0"/><path id="rect208" d="M14.114 59.792h1v1h-1z" fill="#5c79bb"/><path id="rect210" d="M13.983 49.936h1v1h-1z" fill="#5c79bb"/><path id="rect212" d="M13.556 60.591h1v1h-1z" fill="#5c79bb"/><path id="rect214" d="M22.585 62.016h1v1h-1z" fill="#4565ad"/><path id="rect216" d="M13.448 60.032h1v1h-1z" fill="#5c79bb"/><path id="rect218" d="M14.893 59.792h1v1h-1z" fill="#5c79bb"/><path id="rect220" d="M15.482 60.078h1v1h-1z" fill="#5c79bb"/><path id="rect222" d="M15.951 59.506h1v1h-1z" fill="#4565ad"/><path id="rect224" d="M16.508 59.394h1v1h-1z" fill="#4565ad"/><path id="rect226" d="M14.194 60.546h1v1h-1z" fill="#5c79bb"/><path id="rect228" d="M30.652 57.517h1v1h-1z" fill="#164194"/><path id="polygon230" d="M29.81 58.889h-.507v.333h-.663v.664h.663v-.492h.506z" fill="#164194"/><path id="rect232" d="M29.899 58.675h1v1h-1z" fill="#164194"/><path id="rect234" d="M27.87 59.886h1v1h-1z" fill="#2f52a0"/><path id="rect236" d="M27.271 60.55h1v1h-1z" fill="#2f52a0"/><path id="rect238" d="M30.052 58.067h1v1h-1z" fill="#164194"/><path id="rect240" d="M31.419 35.512h1v1h-1z" fill="#e30613"/><path id="rect242" d="M26.436 34.654h1v1h-1z" fill="#e30613"/><path id="rect244" d="M31.507 56.908h1v1h-1z" fill="#164194"/><path id="rect246" d="M12.798 60.246h1v1h-1z" fill="#748fc9"/><path id="rect248" d="M25.602 55.591h1v1h-1z" fill="#164194"/><path id="rect250" d="M25.01 61.198h1v1h-1z" fill="#4565ad"/><path id="rect252" d="M23.77 61.82h1v1h-1z" fill="#4565ad"/><path id="rect254" d="M24.322 61.559h1v1h-1z" fill="#4565ad"/><path id="rect256" d="M24.275 32.411h1v1h-1z" fill="#e30613"/><path id="rect258" d="M26.423 60.723h1v1h-1z" fill="#2f52a0"/><path id="rect260" d="M24.864 56.27h1v1h-1z" fill="#164194"/><path id="rect262" d="M22.33 57.982h1v1h-1z" fill="#164194"/><path id="rect264" d="M25.687 61.075h1v1h-1z" fill="#2f52a0"/><path id="rect266" d="M25.473 46.449h1v1h-1z" fill="#164194"/><path id="rect268" d="M23.119 61.699h1v1h-1z" fill="#4565ad"/><path id="rect270" d="M17.77 32.176h1v1h-1z" fill="#4565ad"/><path id="rect272" d="M17.62 32.99h1v1h-1z" fill="#4565ad"/><path id="rect274" d="M17.77 30.935h1v1h-1z" fill="#4565ad"/><path id="rect276" d="M18.091 29.095h1v1h-1z" fill="#2f52a0"/><path id="rect278" d="M17.086 51.755h1v1h-1z" fill="#4565ad"/><path id="rect280" d="M18.841 28.132h1v1h-1z" fill="#2f52a0"/><path id="rect282" d="M16.508 46.106h1v1h-1z" fill="#4565ad"/><path id="rect284" d="M16.935 56.625h1v1h-1z" fill="#4565ad"/><path id="rect286" d="M17.193 46.005h1v1h-1z" fill="#4565ad"/><path id="rect288" d="M17.62 33.99h1v1h-1z" fill="#4565ad"/><path id="rect290" d="M22.735 43.539h1v1h-1z" fill="#164194"/><path id="rect292" d="M23.698 44.288h1v1h-1z" fill="#164194"/><path id="rect294" d="M23.698 45.881h1v1h-1z" fill="#164194"/><path id="rect296" d="M24.425 30.358h1v1h-1z" fill="#e30613"/><path id="rect298" d="M19.011 35.258h1v1h-1z" fill="#2f52a0"/><path id="rect300" d="M20.038 27.491h1v1h-1z" fill="#2f52a0"/><path id="rect302" d="M22.521 24.195h1v1h-1z" fill="#164194"/><path id="rect304" d="M20.51 26.036h1v1h-1z" fill="#2f52a0"/><path id="rect306" d="M21.793 25.245h1v1h-1z" fill="#164194"/><path id="rect308" d="M16.331 51.383h1v1h-1z" fill="#4565ad"/><path id="rect310" d="M13.105 50.001h1v1h-1z" fill="#748fc9"/><path id="rect312" d="M13.234 46.005h1v1h-1z" fill="#5c79bb"/><path id="rect314" d="M14.593 50.407h1v1h-1z" fill="#5c79bb"/><path id="rect316" d="M13.983 45.978h1v1h-1z" fill="#5c79bb"/><path id="rect318" d="M12.4 45.881h1v1h-1z" fill="#748fc9"/><path id="rect320" d="M11.416 49.444h1v1h-1z" fill="#748fc9"/><path id="rect322" d="M11.65 45.881h1v1h-1z" fill="#748fc9"/><path id="rect324" d="M12.101 60.313h1v1h-1z" fill="#748fc9"/><path id="rect326" d="M12.25 49.615h1v1h-1z" fill="#748fc9"/><path id="rect328" d="M14.668 46.106h1v1h-1z" fill="#5c79bb"/><path id="rect330" d="M15.85 50.861h1v1h-1z" fill="#4565ad"/><path id="rect332" d="M15.371 57.382h1v1h-1z" fill="#5c79bb"/><path id="rect334" d="M15.181 58.922h1v1h-1z" fill="#5c79bb"/><path id="rect336" d="M15.117 58.286h1v1h-1z" fill="#5c79bb"/><path id="rect338" d="M15.117 50.861h1v1h-1z" fill="#5c79bb"/><path id="rect340" d="M15.781 46.005h1v1h-1z" fill="#5c79bb"/><path id="rect342" d="M11.993 60.987h1v1h-1z" fill="#748fc9"/><path id="rect344" d="M15.181 46.005h1v1h-1z" fill="#5c79bb"/><path id="rect346" d="M16.23 57.225h1v1h-1z" fill="#4565ad"/><path id="rect348" d="M30.599 25.737h1v1h-1z" fill="#e30613"/></g><g id="Texte" transform="translate(24.541 60.171)"><path d="M.05 15.464V7.645H3.2a8.808 8.808 0 011.627.113c.482.086.94.277 1.34.56.474.338.848.8 1.081 1.334.248.587.37 1.22.359 1.857a4.714 4.714 0 01-.243 1.577c-.138.414-.35.8-.624 1.139a3.13 3.13 0 01-.833.707 3.66 3.66 0 01-1.09.392 7.277 7.277 0 01-1.468.134l-3.3.006zm1.21-.923h1.95c.478.014.956-.034 1.42-.143.3-.074.579-.212.819-.405.304-.267.534-.608.67-.989a4.16 4.16 0 00.242-1.505c0-.817-.157-1.445-.471-1.884a2.296 2.296 0 00-1.145-.881c-.322-.106-.846-.161-1.565-.161H1.26z" id="path351" fill="#fff"/><path id="path353" d="M9.26 15.464V7.645h1.24l4.8 6.134V7.645h1.16v7.813h-1.237l-4.801-6.139v6.139z" fill="#fff"/><path d="M24.49 7.645h1.21v4.513c0 .787-.105 1.409-.312 1.872a2.421 2.421 0 01-1.126 1.125c-.542.29-1.254.435-2.135.435-.857 0-1.558-.127-2.101-.38a2.32 2.32 0 01-1.166-1.095c-.233-.478-.349-1.13-.349-1.958V7.645h1.214v4.502c0 .679.074 1.179.222 1.5.156.33.426.594.76.743a2.98 2.98 0 001.319.262c.89 0 1.523-.172 1.902-.517.378-.346.567-1.008.567-1.988l-.004-4.502z" id="path355" fill="#fff"/><path d="M27.676 15.464V7.645h1.82l2.164 5.531c.2.516.344.9.436 1.156.104-.283.267-.7.482-1.25l2.193-5.437h1.627v7.813h-1.165V8.932l-2.657 6.539h-1.091L28.84 8.814v6.65h-1.165z" id="path357" fill="#fff"/><path d="M4.303 16.622h.308a.896.896 0 01.643.2.843.843 0 010 1.237.87.87 0 01-.643.208h-.305zm.321 1.474a.687.687 0 00.518-.169.672.672 0 00-.008-.976.706.706 0 00-.51-.16h-.133v1.305z" id="path359" fill="#fff"/><path id="path361" d="M5.97 18.267h-.183v-1.645h.183z" fill="#fff"/><path d="M6.486 18.267h-.183v-1.645h.238c.312 0 .601.083.601.455a.43.43 0 01-.412.453l.525.737h-.232l-.482-.722h-.047zm0-.883h.055c.207 0 .416-.04.416-.294s-.198-.298-.418-.298h-.055z" id="path363" fill="#fff"/><path id="path365" d="M7.486 16.622h.852v.17h-.672v.483h.643v.178h-.643v.643h.669v.17h-.852z" fill="#fff"/><path d="M9.904 16.982a.704.704 0 00-.501-.219.682.682 0 000 1.362.715.715 0 00.496-.219v.227a.84.84 0 01-.482.161.85.85 0 010-1.701.789.789 0 01.482.16z" id="path367" fill="#fff"/><path id="path369" d="M10.652 18.267h-.183v-1.475h-.391v-.17h.98v.17h-.4z" fill="#fff"/><path id="path371" d="M11.429 18.267h-.184v-1.645h.184z" fill="#fff"/><path d="M13.393 17.453a.857.857 0 11-1.714.01.857.857 0 011.714-.01zm-1.53 0a.674.674 0 10.673-.682.68.68 0 00-.673.682z" id="path373" fill="#fff"/><path id="path375" d="M13.654 16.553l1.286 1.344v-1.275h.182v1.719L13.835 17v1.267h-.183z" fill="#fff"/><path d="M16.135 16.622h.308a.897.897 0 01.643.2.843.843 0 010 1.237.87.87 0 01-.643.208h-.305zm.321 1.474a.688.688 0 00.52-.169.672.672 0 00-.008-.976.707.707 0 00-.512-.16h-.132v1.305z" id="path377" fill="#fff"/><path d="M17.796 17.601a.603.603 0 00.072.367.421.421 0 00.653.014.57.57 0 00.08-.378v-.979h.183v1.03a.574.574 0 01-.144.456.613.613 0 01-.867.02.576.576 0 01-.16-.475v-1.03h.183z" id="path379" fill="#fff"/><path id="path381" d="M19.79 16.553l1.287 1.344v-1.275h.183v1.719L19.974 17v1.267h-.183z" fill="#fff"/><path d="M21.778 17.601a.614.614 0 00.073.367.423.423 0 00.652.014.57.57 0 00.08-.378v-.979h.184v1.03a.579.579 0 01-.143.456.617.617 0 01-.868.019.576.576 0 01-.161-.474v-1.03h.183z" id="path383" fill="#fff"/><path id="path385" d="M23.309 16.529l.596 1.38.6-1.38.334 1.738h-.188l-.21-1.113-.53 1.18-.528-1.18-.21 1.113h-.189z" fill="#fff"/><path d="M25.049 16.622h.853v.17h-.67v.483h.651v.178h-.651v.643h.67v.17h-.853zm.726-.46l-.333.336-.109-.061.259-.357z" id="path387" fill="#fff"/><path d="M26.397 18.267h-.183v-1.645h.238c.312 0 .601.083.601.455a.43.43 0 01-.411.453l.524.737h-.225l-.497-.722h-.047zm0-.883h.057c.207 0 .416-.04.416-.294s-.198-.298-.418-.298h-.055z" id="path389" fill="#fff"/><path id="path391" d="M27.584 18.267h-.183v-1.645h.183z" fill="#fff"/><path d="M29.187 18.133a.844.844 0 11.363-.682.818.818 0 01-.237.58l.246.252h-.234zm0-.233a.633.633 0 00.185-.447.675.675 0 10-.674.68.643.643 0 00.365-.122l-.397-.399h.241z" id="path393" fill="#fff"/><path d="M29.978 17.601a.603.603 0 00.073.367.421.421 0 00.652.014.57.57 0 00.08-.378v-.979h.184v1.03a.574.574 0 01-.145.456.62.62 0 01-.868.02.58.58 0 01-.16-.475v-1.03h.183z" id="path395" fill="#fff"/><path id="path397" d="M31.301 16.622h.854v.17h-.67v.483h.643v.178h-.643v.643h.67v.17h-.854z" fill="#fff"/><path id="path399" d="M24.536 28.364l-.243.016-.177-2.513.244-.018z" fill="#878787"/><path id="path401" d="M25.471 26.015l-.275.804-.165-.04.212-.822z" fill="#878787"/><path d="M26.434 26.193a.175.175 0 01-.16.193.172.172 0 01-.193-.153.174.174 0 11.345-.04zm.179 1.97l-.243.029-.16-1.426.242-.03.16 1.427z" id="path403" fill="#878787"/><path d="M27.412 26.787c.07-.148.21-.25.373-.272.392-.06.526.21.577.543l.127.843-.24.035-.123-.804c-.034-.23-.084-.432-.363-.39-.333.05-.308.361-.269.615l.101.674-.24.035-.216-1.418.242-.037z" id="path405" fill="#878787"/><path d="M29.198 26.49c.064-.152.2-.26.36-.289.391-.077.536.187.602.516l.16.837-.239.048-.16-.795c-.046-.228-.104-.429-.383-.373-.33.065-.29.375-.242.628l.132.667-.24.048-.277-1.41.24-.047z" id="path407" fill="#878787"/><path d="M30.743 26.734a.755.755 0 111.466-.358.755.755 0 01-1.466.358zm.237-.062a.511.511 0 10.98-.293.511.511 0 00-.98.293z" id="path409" fill="#878787"/><path id="path411" d="M33.274 26.319l.135-1.049.264-.077-.238 1.668-1.113-1.267.267-.08z" fill="#878787"/><path d="M35.79 25.984l-.231.08-.064-.187a.603.603 0 01-.39.387c-.397.14-.765-.11-.897-.482-.131-.372 0-.804.4-.946a.617.617 0 01.546.07l-.068-.194.23-.08zm-1.358-.302c.093.265.336.461.625.36.29-.101.369-.397.274-.67a.482.482 0 00-.627-.332.482.482 0 00-.272.642z" id="path413" fill="#878787"/><path id="path415" d="M36.684 25.634l-.226.09-.446-1.126-.14.055-.082-.21.139-.055-.19-.483.228-.09.19.483.238-.094.084.21-.24.094z" fill="#878787"/><path d="M36.88 23.41a.175.175 0 11-.321.137.175.175 0 01.322-.137zm.73 1.838l-.223.096-.566-1.32.225-.096.565 1.32z" id="path417" fill="#878787"/><path d="M37.894 24.354a.754.754 0 111.36-.65.754.754 0 01-1.36.65zm.22-.108a.51.51 0 10.92-.44.51.51 0 00-.92.44z" id="path419" fill="#878787"/><path d="M39.7 22.844a.482.482 0 01.256-.384c.35-.191.566.018.729.312l.408.747-.214.118-.382-.717c-.111-.203-.227-.376-.483-.24-.294.161-.16.444-.04.669l.322.598-.214.118-.69-1.26.214-.117.095.156z" id="path421" fill="#878787"/><path d="M43.831 21.794l-.202.137-.111-.16a.606.606 0 01-.278.473.71.71 0 01-.992-.242c-.229-.341-.208-.777.15-1.018a.624.624 0 01.544-.07l-.114-.171.203-.135zm-1.39.05c.16.233.442.362.696.193.254-.169.257-.482.095-.719a.482.482 0 00-.69-.16.482.482 0 00-.101.684z" id="path423" fill="#878787"/><path d="M44.219 20.727c.144.191.292.34.529.16.236-.18.133-.361-.013-.553l-.482-.643.194-.146.5.66c.23.305.275.604-.063.86-.337.255-.614.13-.844-.174l-.5-.661.195-.148z" id="path425" fill="#878787"/><path d="M46.463 18.283a.225.225 0 00-.242.02.174.174 0 00-.028.237c.089.098.245.024.417-.035a.437.437 0 01.522.086.471.471 0 01-.051.673.518.518 0 01-.62.065l.1-.212a.307.307 0 00.372-.024.22.22 0 00.027-.321c-.214-.24-.624.274-.926-.063a.412.412 0 01.05-.589.437.437 0 01.461-.056z" id="path427" fill="#878787"/><path d="M47.483 17.935a.465.465 0 00.672.012.482.482 0 00.103-.518l.231-.06a.725.725 0 01-.19.753.696.696 0 01-1.019-.035c-.297-.303-.366-.727-.047-1.042.32-.315.77-.222 1.054.1zm.482-.758a.437.437 0 00-.564.027.453.453 0 00-.049.574z" id="path429" fill="#878787"/><path d="M48.38 16.146a.373.373 0 01.074-.367.436.436 0 01.2-.114l.083.237a.236.236 0 00-.147.062c-.183.198.06.442.197.57l.525.482-.16.178-1.05-.977.16-.18z" id="path431" fill="#878787"/><path id="path433" d="M50.055 15.485l-.458-.95.178-.21.71 1.527-1.623-.455.18-.211z" fill="#878787"/><path d="M49.829 13.382a.174.174 0 01-.133.309.174.174 0 01-.112-.28.177.177 0 01.245-.029zm1.517 1.267l-.15.191-1.126-.89.15-.192z" id="path435" fill="#878787"/><path d="M51.626 12.596a.548.548 0 00-.458.217.513.513 0 00.128.723.505.505 0 00.722-.085.558.558 0 00.076-.524l.264.193a.783.783 0 01-.649.762.744.744 0 01-.565-.146.757.757 0 01-.161-1.066.788.788 0 01.378-.274z" id="path437" fill="#878787"/><path d="M52.32 12.19a.466.466 0 00.661-.126.495.495 0 000-.53l.214-.105c.14.242.13.543-.029.774a.695.695 0 01-1.005.177c-.353-.234-.51-.635-.262-1.01.248-.374.708-.376 1.052-.12l-.63.94zm.31-.84a.44.44 0 00-.547.143.457.457 0 00.072.572l.474-.715z" id="path439" fill="#878787"/><path d="M54.766 9.073a.611.611 0 01-.032.548.707.707 0 01-.994.233c-.358-.197-.538-.596-.33-.964a.619.619 0 01.454-.31l-1.125-.628.119-.213 2.202 1.226-.119.214zm-.924.56c.246.136.56.122.707-.145.148-.267.011-.544-.241-.685a.482.482 0 00-.69.169.482.482 0 00.224.66z" id="path441" fill="#878787"/><path d="M54.847 7.922a.465.465 0 00.643-.208.482.482 0 00-.07-.522l.2-.134a.728.728 0 01.064.774.696.696 0 01-.976.299c-.38-.19-.583-.568-.382-.965.2-.397.657-.461 1.029-.25zm.202-.872a.437.437 0 00-.524.21.452.452 0 00.142.557z" id="path443" fill="#878787"/><path id="path445" d="M56.768 5.383l-.097.224-1.11-.483-.06.138-.207-.09.06-.136-.475-.204.096-.226.475.205.1-.237.208.09-.101.235z" fill="#878787"/><path d="M56.335 4.58a.756.756 0 11.553-1.406.756.756 0 01-.553 1.407zm.087-.23a.51.51 0 10.334-.962.51.51 0 00-.334.963z" id="path447" fill="#878787"/><path d="M57.23 2.465c.226.08.432.124.53-.161.098-.285-.088-.375-.322-.455l-.755-.264.082-.231.781.273c.36.127.563.35.423.751-.14.4-.439.449-.804.322l-.781-.274.08-.23.765.269z" id="path449" fill="#878787"/><path d="M57.448.338a.23.23 0 00-.198.141.174.174 0 00.098.217c.124.04.22-.103.34-.241a.439.439 0 01.493-.193.471.471 0 01.3.605.518.518 0 01-.5.373l-.023-.235c.146-.018.259-.056.307-.21a.217.217 0 00-.14-.287c-.306-.098-.396.553-.826.417a.408.408 0 01-.26-.531.434.434 0 01.369-.283z" id="path451" fill="#878787"/></g></g></g></svg>