<svg xmlns="http://www.w3.org/2000/svg" height="73.551" width="71.048" id="svg454" version="1.1"><defs id="defs4"><style id="style2">.cls-1{fill:#164194}.cls-4{fill:#e30613}.cls-5{fill:#2f52a0}.cls-6{fill:#4565ad}.cls-7{fill:#5c79bb}.cls-8{fill:#748fc9}.cls-9{fill:#1d1d1b}.cls-10{fill:#878787}</style></defs><g transform="translate(0 -.01) scale(.16078)" id="Marianne"><path id="path6" transform="translate(-70.32 -87.45)" d="M338.21 317c-8.82 8.82-16.5 76.52-16.5 88.37 0 7.85 1.86 2.39 2 1.19 4.75-42.71 13.83-75.41 15.89-81.7 3.06-9.36 15.92-11.05 21.6-12.12 5.68-1.07 12.09-1.61 20.14-8 7.05-5.59 5.39-13.18 2.39-16.86-2.42-3-4.34-4.17-1.77-7.81 2.57-3.64 4-6.26 4.17-10.55.17-4.29-3.82-5.95-5.41-6.12-1.59-.17-4.79 1.59-1.16-2.05 3.63-3.64 3.2-7.45 2.75-8.78-.45-1.33-5.67-5-7.72-6.92-2.44-2.34-6.12-4.88-2.39-10 5.32-7.35 5.77-11.27 5.68-14.29-.14-4.53-13-7.54-20.85-11.71-7.64-4.08-19.79-8.07-21-21.73-1.21-13.66-2.22-19.43-13.31-32.74-11.09-13.31-16.76-16.42-19.16-17.39-2.4-.97-.35-2.75 1.24-4.35 1.59-1.6 3.2-3.37 2.4-5.5-.8-2.13-8.7-1.42-11.36-1.24-5.5.37.8-3.64 0-10.29-.5-4.19-4.7-8.79-14.1-16.06-9.4-7.27-25-12.07-37.44-12.64-37.52-1.74-55.36 8-72.13 17.83-16.77 9.83-19 20.63-20 27-1 6.37-4.88 13-4.88 13h7.89c14.46-34.78 46.4-43.65 72.49-46.49 21.57-2.35 51.45 3.19 59.08 14.1 8.45 12.08-9.4 16.86-20.23 21.12 27.24-5.32 31.5-2.22 31.12 0-.38 2.22-4.94-.53-14.7.71-9.76 1.24-14.29 8.07-20.05 18.36-5.76 10.29-16 8-20.59 7.9-2.75 0-4.14 4.87 0 5.24 13 1.15 18.46-2 24.4-12.34 5.94-10.34 11.8-13.39 19-15.08 7.2-1.69 14.1 3.46 17.74 6.21 3.64 2.75 16.77 14.37 21.21 22.8 7.71 14.65 4.25 25.55 7.63 30.43 7.31 10.59 32.38 19.52 35.93 20.85 3.55 1.33 4.61 6.83 2.3 11.8-2.31 4.97-6 6.12-6.12 10.47-.12 4.35 9.14 11.27 11.18 12.69 2.04 1.42 1.78 5.85-1.15 8.69-2.93 2.84-8.7 5.59-9.94 6.21-1.24.62-1.06 1.51 0 1 2.46-1.32 9.64-5.51 13.77-1.72 4.13 3.79.2 7.82-1.44 10.36-1.92 3-3.32 4.9-.58 7.91a9.81 9.81 0 012.84 7.88 8.91 8.91 0 01-2.35 5.49c-3.19 3.57-7 5.4-18.23 8.08-5.91 1.29-14.82 3.29-20.28 8.79z" class="cls-1" fill="#164194"/><path id="path10" transform="translate(-70.32 -87.45)" d="M310.24 199.18c2.82 2.79-4.09 7.16-5.13 11.86l-1.3.59c-.9 1.47.53 3.47-.78 4.07-1.52.16-2.61 1.2-3.73 2.23 2.55.94 5.32 1.25 7.76-.39a2.17 2.17 0 012.1 1.15 1.54 1.54 0 00.68-.83c.43-.2.87-.4 1.07 0l.8 1.75c-.51 2.35-3.09 2.47-4.64 3.71a21.47 21.47 0 0010-4.61c2.23-2.06-2.4-5.24-1.65-8.22-.89.41-.6-1.3-1.49-.9.49-1.27.76-3 1.44-3.83a3.39 3.39 0 002-2.51c-.4-.87-2.35-.5-2.29-1.59 1.78-2.93 3.09-6.89.72-8.77-2.06-1.64-14 .45-26.77 16.33-.45.56-.36 1.68 1.77-.27 1.07-1 5.94-5.58 10.61-7.85 4.67-2.27 8.05-2.69 8.83-1.92z" class="cls-1" fill="#164194"/><path id="path12" transform="translate(-70.32 -87.45)" d="M357.81 237.27c-.39-.22-1.2-2.33.69-4.42s2.77-2.6 3.53-2.27c.76.33-.73 2.47-1.56 3.6-.83 1.13-1.1 3.99-2.66 3.09z" fill="#444d9b"/><circle id="circle14" r="8.45" cy="103.51" cx="130.28" class="cls-1" fill="#164194"/><path id="path16" transform="translate(-70.32 -87.45)" d="M228.9 184.91a28.36 28.36 0 00-1.77-5.51c1.61-1.55 3.83-4 3.87-5.66l-4.32-6c-1.61-.51-4.63.81-6.61 1.84a29.1 29.1 0 00-4.7-3.47c.4-2.2.79-5.47-.17-6.87l-7-2.36c-1.61.53-3.28 3.37-4.29 5.36-.86-.09-1.73-.16-2.62-.18v4h-4.79v3.52a21.82 21.82 0 114.79 43.24v7.11c.89 0 1.76-.09 2.62-.19 1 2 2.68 4.84 4.29 5.37l7-2.36c1-1.4.57-4.67.17-6.87a29.1 29.1 0 004.7-3.47c2 1 5 2.35 6.61 1.84l4.32-6c0-1.69-2.26-4.11-3.87-5.66a28.36 28.36 0 001.77-5.59c2.21-.32 5.43-1 6.44-2.35v-7.4c-1.01-1.35-4.23-2.03-6.44-2.34z" class="cls-4" fill="#e30613"/><path id="path18" transform="translate(-70.32 -87.45)" d="M391.09 490.49l-13-13.13c-19.69 13.3-70.4 51.32-163 24.31-2.48-.73-5.06 1.73-1.86 4.25 3.2 2.52 90.47 37 177.86-15.43z" class="cls-1" fill="#164194"/><path id="path20" transform="translate(-70.32 -87.45)" d="M431.19 434.59c6.56-6.56 52.27-54.28 74.88-152.24.53-2.31 5.85-2.66 5.32 1.07-.53 3.73-14.19 99.58-67.6 161.64z" class="cls-4" fill="#e30613"/><path id="path22" transform="translate(-70.32 -87.45)" d="M241.59 333.37c-5.5-2.95-15.79-6.75-44.53 18.8H201V356c4.35-3.55 26.8-23.58 37.87-19.34 3 1.15 4.35 6.74 1.78 17.92-2.57 11.18-16 37.53-26.26 48h9.85c3.72-6.3 17.21-30.78 21.2-44 3.99-13.22 1.56-22.33-3.85-25.21z" class="cls-1" fill="#164194"/><path id="rect24" class="cls-5" fill="#2f52a0" d="M45.51 143.53h4.39v4.39h-4.39z"/><path id="rect26" class="cls-6" fill="#4565ad" d="M38.59 235.35h4.86v4.86h-4.86z"/><path id="rect28" class="cls-1" fill="#164194" d="M57.22 247.79h3.52v3.52h-3.52z"/><path id="rect30" class="cls-5" fill="#2f52a0" d="M42.52 206.76h2.91v2.91h-2.91z"/><path id="rect32" class="cls-5" fill="#2f52a0" d="M47.71 258.39h2.51v2.51h-2.51z"/><path id="rect34" class="cls-5" fill="#2f52a0" d="M53.63 249.99h2.91v2.91h-2.91z"/><path id="rect36" class="cls-5" fill="#2f52a0" d="M49.9 152.98h5.06v5.06H49.9z"/><path id="rect38" class="cls-5" fill="#2f52a0" d="M49.9 253.66h4.09v4.09H49.9z"/><path id="rect40" class="cls-5" fill="#2f52a0" d="M55.09 255.07h3.58v3.58h-3.58z"/><path id="rect42" class="cls-1" fill="#164194" d="M57.22 191.57h3.33v3.33h-3.33z"/><path id="rect44" class="cls-5" fill="#2f52a0" d="M44.49 236.69h4.13v4.13h-4.13z"/><path id="rect46" class="cls-1" fill="#164194" d="M61.48 195.03h3.66v3.66h-3.66z"/><path id="rect48" class="cls-1" fill="#164194" d="M63.31 231.33h2.56v2.56h-2.56z"/><path id="rect50" class="cls-4" fill="#e30613" d="M80.5 127.53h5.34v5.34H80.5z"/><path id="rect52" class="cls-1" fill="#164194" d="M64.68 200.49h5.72v5.72h-5.72z"/><path id="rect54" class="cls-5" fill="#2f52a0" d="M51.24 147.39h4.66v4.66h-4.66z"/><path id="rect56" class="cls-1" fill="#164194" d="M60.55 170.15h5.32v5.32h-5.32z"/><path id="rect58" class="cls-5" fill="#2f52a0" d="M55.89 155.69h5.32v5.32h-5.32z"/><path id="polygon60" class="cls-1" fill="#164194" d="M67.07 194.23h3.33v-3.32h-3.33v-3.33h-3.86v3.86h3.86z"/><path id="rect62" class="cls-1" fill="#164194" d="M65.87 175.83h5.36v5.36h-5.36z"/><path id="rect64" class="cls-5" fill="#2f52a0" d="M51.24 258.78h3.19v3.19h-3.19z"/><path id="rect66" class="cls-1" fill="#164194" d="M77.78 266.05h4.97v4.97h-4.97z"/><path id="rect68" class="cls-1" fill="#164194" d="M76.39 233.09h4.52v4.52h-4.52z"/><path id="rect70" class="cls-1" fill="#164194" d="M72.79 268.89h4.26v4.26h-4.26z"/><path id="rect72" class="cls-1" fill="#164194" d="M58.89 252.26h2.81v2.81h-2.81z"/><path id="rect74" class="cls-1" fill="#164194" d="M71.16 228.33h2.05v2.05h-2.05z"/><path id="rect76" class="cls-1" fill="#164194" d="M80.91 197.96h4.39v4.39h-4.39z"/><path id="rect78" class="cls-1" fill="#164194" d="M79.02 228.33h4.09v4.09h-4.09z"/><path id="rect80" class="cls-1" fill="#164194" d="M81.58 192.77h4.26v4.26h-4.26z"/><path id="rect82" class="cls-1" fill="#164194" d="M79.18 223.78h3.46v3.46h-3.46z"/><path id="rect84" class="cls-1" fill="#164194" d="M71.23 193.27h3.96v3.96h-3.96z"/><path id="rect86" class="cls-1" fill="#164194" d="M66.35 247.79h2.2v2.2h-2.2z"/><path id="rect88" class="cls-1" fill="#164194" d="M61.7 246.55h3.44v3.44H61.7z"/><path id="rect90" class="cls-1" fill="#164194" d="M62.69 274.51h4.38v4.38h-4.38z"/><path id="rect92" class="cls-1" fill="#164194" d="M59.45 232.78h2.58v2.58h-2.58z"/><path id="rect94" class="cls-1" fill="#164194" d="M73.99 225.51h3.79v3.79h-3.79z"/><path id="rect96" class="cls-1" fill="#164194" d="M75.89 230.38h1.9v1.9h-1.9z"/><path id="rect98" class="cls-1" fill="#164194" d="M72.79 238.42h3.59v3.59h-3.59z"/><path id="rect100" class="cls-1" fill="#164194" d="M67.07 230.38h2.4v2.4h-2.4z"/><path id="rect102" class="cls-1" fill="#164194" d="M69.47 242.81h3.74v3.74h-3.74z"/><path id="rect104" class="cls-1" fill="#164194" d="M60.55 204.08h2.66v2.66h-2.66z"/><path id="rect106" class="cls-4" fill="#e30613" d="M99.88 100.15h4.94v4.94h-4.94z"/><path id="rect108" class="cls-4" fill="#e30613" d="M100.28 92.96h4.86v4.86h-4.86z"/><path id="rect110" class="cls-4" fill="#e30613" d="M99.88 86.79h5.24v5.24h-5.24z"/><path id="rect112" class="cls-4" fill="#e30613" d="M100.06 113.86h5.05v5.05h-5.05z"/><path id="rect114" class="cls-4" fill="#e30613" d="M93.42 73.93h5.59v5.59h-5.59z"/><path id="rect116" class="cls-4" fill="#e30613" d="M100.06 126.86h5.05v5.05h-5.05z"/><path id="rect118" class="cls-1" fill="#164194" d="M91.96 253.66h2.76v2.76h-2.76z"/><path id="rect120" class="cls-4" fill="#e30613" d="M87.72 114.34h4.57v4.57h-4.57z"/><path id="rect122" class="cls-4" fill="#e30613" d="M93.42 92.39h5.42v5.42h-5.42z"/><path id="rect124" class="cls-4" fill="#e30613" d="M93.42 106.53h5.42v5.42h-5.42z"/><path id="rect126" class="cls-4" fill="#e30613" d="M87.43 85.89h4.86v4.86h-4.86z"/><path id="rect128" class="cls-4" fill="#e30613" d="M113.37 120.49h4.14v4.14h-4.14z"/><path id="rect130" class="cls-4" fill="#e30613" d="M113.05 113.58h5.33v5.33h-5.33z"/><path id="rect132" class="cls-4" fill="#e30613" d="M118.38 133.95h4.79v4.79h-4.79z"/><path id="rect134" class="cls-4" fill="#e30613" d="M113.05 79.72h4.46v4.46h-4.46z"/><path id="rect136" class="cls-4" fill="#e30613" d="M105.93 85.77h6.25v6.25h-6.25z"/><path id="rect138" class="cls-4" fill="#e30613" d="M105.93 100.15h6.25v6.25h-6.25z"/><path id="rect140" class="cls-4" fill="#e30613" d="M113.05 126.58h5.33v5.33h-5.33z"/><path id="rect142" class="cls-4" fill="#e30613" d="M105.93 119.44h5.66v5.66h-5.66z"/><path id="rect144" class="cls-4" fill="#e30613" d="M99.88 79.72h5.26v5.26h-5.26z"/><path id="rect146" class="cls-5" fill="#2f52a0" d="M46.38 118.91h4.49v4.49h-4.49z"/><path id="rect148" class="cls-5" fill="#2f52a0" d="M42.52 200.69h4.72v4.72h-4.72z"/><path id="rect150" class="cls-5" fill="#2f52a0" d="M46.38 206.76h3.84v3.84h-3.84z"/><path id="rect152" class="cls-5" fill="#2f52a0" d="M41.74 137.28h5.51v5.51h-5.51z"/><path id="rect154" class="cls-5" fill="#2f52a0" d="M49.64 235.35h3.79v3.79h-3.79z"/><path id="rect156" class="cls-5" fill="#2f52a0" d="M55.89 163.62h4.66v4.66h-4.66z"/><path id="rect158" class="cls-6" fill="#4565ad" d="M40.06 129.96h4.92v4.92h-4.92z"/><path id="rect160" class="cls-5" fill="#2f52a0" d="M51.24 206.21h4.39v4.39h-4.39z"/><path id="rect162" class="cls-5" fill="#2f52a0" d="M54.43 233.09h4.52v4.52h-4.52z"/><path id="rect164" class="cls-5" fill="#2f52a0" d="M54.96 184.78h5.59v5.59h-5.59z"/><path id="rect166" class="cls-5" fill="#2f52a0" d="M45.51 99.61h4.79v4.79h-4.79z"/><path id="rect168" class="cls-4" fill="#e30613" d="M87.43 121.07h4.86v4.86h-4.86z"/><path id="rect170" class="cls-5" fill="#2f52a0" d="M44.85 107.33h4.79v4.79h-4.79z"/><path id="rect172" class="cls-1" fill="#164194" d="M82.64 220.58h2v2h-2z"/><path id="rect174" class="cls-4" fill="#e30613" d="M87.43 107.33h4.79v4.79h-4.79z"/><path id="rect176" class="cls-1" fill="#164194" d="M86.77 197.23h2.93v2.93h-2.93z"/><path id="rect178" class="cls-4" fill="#e30613" d="M87.43 92.96h4.86v4.86h-4.86z"/><path id="rect180" class="cls-5" fill="#2f52a0" d="M46.38 125.1h4.86v4.86h-4.86z"/><path id="rect182" class="cls-5" fill="#2f52a0" d="M56.54 206.76h2.91v2.91h-2.91z"/><path id="rect184" class="cls-1" fill="#164194" d="M83.27 267.16h2.57v2.57h-2.57z"/><path id="rect186" class="cls-1" fill="#164194" d="M76.96 59.47h7.94v7.94h-7.94z"/><path id="rect188" class="cls-5" fill="#2f52a0" d="M47.24 279.59h4.29v4.29h-4.29z"/><path id="rect190" class="cls-5" fill="#2f52a0" d="M42.11 279.46h4.07v4.07h-4.07z"/><path id="rect192" class="cls-5" fill="#2f52a0" d="M42.52 260.91h4.26v4.26h-4.26z"/><path id="rect194" class="cls-6" fill="#4565ad" d="M38.59 264.95h3.14v3.14h-3.14z"/><path id="rect196" class="cls-6" fill="#4565ad" d="M39.52 261.97h2.21v2.21h-2.21z"/><path id="rect198" class="cls-6" fill="#4565ad" d="M65.14 296.33h2.74v2.74h-2.74z"/><path id="rect200" class="cls-6" fill="#4565ad" d="M36.66 280.27h4.19v4.19h-4.19z"/><path id="rect202" class="cls-6" fill="#4565ad" d="M61.7 296.58h2.49v2.49H61.7z"/><path id="rect204" class="cls-1" fill="#164194" d="M57.76 276.93h3.94v3.94h-3.94z"/><path id="rect206" class="cls-5" fill="#2f52a0" d="M52.43 278.26h4.11v4.11h-4.11z"/><path id="rect208" class="cls-7" fill="#5c79bb" d="M16.78 283.88h2.98v2.98h-2.98z"/><path id="rect210" class="cls-7" fill="#5c79bb" d="M15.97 222.58h2.79v2.79h-2.79z"/><path id="rect212" class="cls-7" fill="#5c79bb" d="M13.31 288.85h2.66v2.66h-2.66z"/><path id="rect214" class="cls-6" fill="#4565ad" d="M69.47 297.71h2.72v2.72h-2.72z"/><path id="rect216" class="cls-7" fill="#5c79bb" d="M12.64 285.37h2.66v2.66h-2.66z"/><path id="rect218" class="cls-7" fill="#5c79bb" d="M21.63 283.88h2.98v2.98h-2.98z"/><path id="rect220" class="cls-7" fill="#5c79bb" d="M25.29 285.66h2.93v2.93h-2.93z"/><path id="rect222" class="cls-6" fill="#4565ad" d="M28.21 282.1h2.36v2.36h-2.36z"/><path id="rect224" class="cls-6" fill="#4565ad" d="M31.67 281.4h4.26v4.26h-4.26z"/><path id="rect226" class="cls-7" fill="#5c79bb" d="M17.28 288.57h2.94v2.94h-2.94z"/><path id="rect228" class="cls-1" fill="#164194" d="M119.64 269.73h4.22v4.22h-4.22z"/><path id="polygon230" class="cls-1" fill="#164194" d="M114.4 278.26h-3.15v2.07h-4.12v4.13h4.12v-3.06h3.15z"/><path id="rect232" class="cls-1" fill="#164194" d="M114.96 276.93h3.34v3.34h-3.34z"/><path id="rect234" class="cls-5" fill="#2f52a0" d="M102.34 284.46h4.13v4.13h-4.13z"/><path id="rect236" class="cls-5" fill="#2f52a0" d="M98.61 288.59h2.93v2.93h-2.93z"/><path id="rect238" class="cls-1" fill="#164194" d="M115.91 273.15h2.94v2.94h-2.94z"/><path id="rect240" class="cls-4" fill="#e30613" d="M124.41 132.87h5.87v5.87h-5.87z"/><path id="rect242" class="cls-4" fill="#e30613" d="M93.42 127.53h4.89v4.89h-4.89z"/><path id="rect244" class="cls-1" fill="#164194" d="M124.96 265.94h4.55v4.55h-4.55z"/><path id="rect246" class="cls-8" fill="#748fc9" d="M8.6 286.7h3.38v3.38H8.6z"/><path id="rect248" class="cls-1" fill="#164194" d="M88.23 257.75h4.22v4.22h-4.22z"/><path id="rect250" class="cls-6" fill="#4565ad" d="M84.55 292.62h2.88v2.88h-2.88z"/><path id="rect252" class="cls-6" fill="#4565ad" d="M76.84 296.49h2.35v2.35h-2.35z"/><path id="rect254" class="cls-6" fill="#4565ad" d="M80.27 294.87h3.44v3.44h-3.44z"/><path id="rect256" class="cls-4" fill="#e30613" d="M79.98 113.58h5.33v5.33h-5.33z"/><path id="rect258" class="cls-5" fill="#2f52a0" d="M93.34 289.67h4.37v4.37h-4.37z"/><path id="rect260" class="cls-1" fill="#164194" d="M83.64 261.97h3.79v3.79h-3.79z"/><path id="rect262" class="cls-1" fill="#164194" d="M67.88 272.62h4.31v4.31h-4.31z"/><path id="rect264" class="cls-5" fill="#2f52a0" d="M88.76 291.86h3.65v3.65h-3.65z"/><path id="rect266" class="cls-1" fill="#164194" d="M87.43 200.89h4.52v4.52h-4.52z"/><path id="rect268" class="cls-6" fill="#4565ad" d="M72.79 295.74h3.09v3.09h-3.09z"/><path id="rect270" class="cls-6" fill="#4565ad" d="M39.52 112.12h4.42v4.42h-4.42z"/><path id="rect272" class="cls-6" fill="#4565ad" d="M38.59 117.18h4.52v4.52h-4.52z"/><path id="rect274" class="cls-6" fill="#4565ad" d="M39.52 104.4h4.42v4.42h-4.42z"/><path id="rect276" class="cls-5" fill="#2f52a0" d="M41.52 92.96h4.86v4.86h-4.86z"/><path id="rect278" class="cls-6" fill="#4565ad" d="M35.27 233.89h2.79v2.79h-2.79z"/><path id="rect280" class="cls-5" fill="#2f52a0" d="M46.18 86.97h5.06v5.06h-5.06z"/><path id="rect282" class="cls-6" fill="#4565ad" d="M31.67 198.76h3.59v3.59h-3.59z"/><path id="rect284" class="cls-6" fill="#4565ad" d="M34.33 264.18h3.73v3.73h-3.73z"/><path id="rect286" class="cls-6" fill="#4565ad" d="M35.93 198.13h4.92v4.92h-4.92z"/><path id="rect288" class="cls-6" fill="#4565ad" d="M38.59 123.4h5.06v5.06h-5.06z"/><path id="rect290" class="cls-1" fill="#164194" d="M70.4 182.79h4.79v4.79H70.4z"/><path id="rect292" class="cls-1" fill="#164194" d="M76.39 187.45h4.52v4.52h-4.52z"/><path id="rect294" class="cls-1" fill="#164194" d="M76.39 197.36h2.79v2.79h-2.79z"/><path id="rect296" class="cls-4" fill="#e30613" d="M80.91 100.81h4.92v4.92h-4.92z"/><path id="rect298" class="cls-5" fill="#2f52a0" d="M47.24 131.29h5.32v5.32h-5.32z"/><path id="rect300" class="cls-5" fill="#2f52a0" d="M53.63 82.98h5.82v5.82h-5.82z"/><path id="rect302" class="cls-1" fill="#164194" d="M69.07 62.48h4.33v4.33h-4.33z"/><path id="rect304" class="cls-5" fill="#2f52a0" d="M56.56 73.93h5.79v5.79h-5.79z"/><path id="rect306" class="cls-1" fill="#164194" d="M64.54 69.01h4.92v4.92h-4.92z"/><path id="rect308" class="cls-6" fill="#4565ad" d="M30.57 231.58h2.89v2.89h-2.89z"/><path id="rect310" class="cls-8" fill="#748fc9" d="M10.51 222.98h4.26v4.26h-4.26z"/><path id="rect312" class="cls-7" fill="#5c79bb" d="M11.31 198.13h2.56v2.56h-2.56z"/><path id="rect314" class="cls-7" fill="#5c79bb" d="M19.76 225.51h2.33v2.33h-2.33z"/><path id="rect316" class="cls-7" fill="#5c79bb" d="M15.97 197.96h2.63v2.63h-2.63z"/><path id="rect318" class="cls-8" fill="#748fc9" d="M6.12 197.36H8.6v2.48H6.12z"/><path id="rect320" class="cls-8" fill="#748fc9" d="M0 219.52h4.26v4.26H0z"/><path id="rect322" class="cls-8" fill="#748fc9" d="M1.46 197.36h2.79v2.79H1.46z"/><path id="rect324" class="cls-8" fill="#748fc9" d="M4.26 287.12h2.92v2.92H4.26z"/><path id="rect326" class="cls-8" fill="#748fc9" d="M5.19 220.58h4.52v4.52H5.19z"/><path id="rect328" class="cls-7" fill="#5c79bb" d="M20.23 198.76h2.79v2.79h-2.79z"/><path id="rect330" class="cls-6" fill="#4565ad" d="M27.58 228.33h2.99v2.99h-2.99z"/><path id="rect332" class="cls-7" fill="#5c79bb" d="M24.6 268.89h4.26v4.26H24.6z"/><path id="rect334" class="cls-7" fill="#5c79bb" d="M23.42 278.47h3.73v3.73h-3.73z"/><path id="rect336" class="cls-7" fill="#5c79bb" d="M23.02 274.51h3.16v3.16h-3.16z"/><path id="rect338" class="cls-7" fill="#5c79bb" d="M23.02 228.33h3.16v3.16h-3.16z"/><path id="rect340" class="cls-7" fill="#5c79bb" d="M27.15 198.13h3.43v3.43h-3.43z"/><path id="rect342" class="cls-8" fill="#748fc9" d="M3.59 291.31h4.19v4.19H3.59z"/><path id="rect344" class="cls-7" fill="#5c79bb" d="M23.42 198.13h2.76v2.76h-2.76z"/><path id="rect346" class="cls-6" fill="#4565ad" d="M29.94 267.91h3.64v3.64h-3.64z"/><path id="rect348" class="cls-4" fill="#e30613" d="M119.31 72.07h5.66v5.66h-5.66z"/></g><g transform="translate(0 -.01) scale(.16078)" id="Texte"><path id="path351" transform="translate(-70.32 -87.45)" d="M148.63 464.63V416h19.59a54.78 54.78 0 0110.12.7 20.71 20.71 0 018.33 3.48 20 20 0 016.73 8.3 28.3 28.3 0 012.23 11.55 29.3 29.3 0 01-1.51 9.81 22.5 22.5 0 01-3.88 7.08 19.47 19.47 0 01-5.18 4.4 22.76 22.76 0 01-6.78 2.44 45.26 45.26 0 01-9.13.83zm7.53-5.74h12.13a34.18 34.18 0 008.83-.89 13.26 13.26 0 005.09-2.52 14.85 14.85 0 004.17-6.15 25.87 25.87 0 001.5-9.36q0-7.62-2.93-11.72a14.28 14.28 0 00-7.12-5.48c-2-.66-5.26-1-9.73-1h-11.94z" class="cls-9" fill="#1d1d1b"/><path id="path353" transform="translate(-70.32 -87.45)" d="M205.91 464.63V416h7.71l29.86 38.15V416h7.21v48.59H243l-29.86-38.18v38.18z" class="cls-9" fill="#1d1d1b"/><path id="path355" transform="translate(-70.32 -87.45)" d="M300.64 416h7.52v28.07c0 4.89-.65 8.76-1.94 11.64a15.06 15.06 0 01-7 7q-5.06 2.7-13.28 2.7-8 0-13.07-2.36a14.43 14.43 0 01-7.25-6.81q-2.17-4.46-2.17-12.18V416H271v28q0 6.33 1.38 9.33a9.51 9.51 0 004.73 4.62 18.58 18.58 0 008.2 1.63q8.3 0 11.83-3.22 3.53-3.22 3.53-12.36z" class="cls-9" fill="#1d1d1b"/><path id="path357" transform="translate(-70.32 -87.45)" d="M320.45 464.63V416h11.32l13.46 34.4c1.24 3.21 2.14 5.6 2.71 7.19.65-1.76 1.66-4.36 3-7.78L364.58 416h10.12v48.59h-7.25V424l-16.52 40.67h-6.79l-16.44-41.4v41.36z" class="cls-9" fill="#1d1d1b"/><path id="path359" transform="translate(-70.32 -87.45)" d="M175.08 471.83H177a5.57 5.57 0 014 1.24 5.24 5.24 0 010 7.7 5.41 5.41 0 01-4 1.29h-1.9zm2 9.17a4.27 4.27 0 003.22-1.05 4.18 4.18 0 00-.05-6.07 4.39 4.39 0 00-3.17-1h-.83V481z" class="cls-9" fill="#1d1d1b"/><path id="path361" transform="translate(-70.32 -87.45)" d="M185.45 482.06h-1.14v-10.23h1.14z" class="cls-9" fill="#1d1d1b"/><path id="path363" transform="translate(-70.32 -87.45)" d="M188.66 482.06h-1.14v-10.23H189c1.94 0 3.74.52 3.74 2.83a2.68 2.68 0 01-2.56 2.82l3.26 4.58H192l-3-4.49h-.29zm0-5.49h.34c1.29 0 2.59-.25 2.59-1.83s-1.23-1.85-2.6-1.85h-.34z" class="cls-9" fill="#1d1d1b"/><path id="path365" transform="translate(-70.32 -87.45)" d="M194.88 471.83h5.3v1.06H196v3h4V477h-4v4h4.16v1.06h-5.3z" class="cls-9" fill="#1d1d1b"/><path id="path367" transform="translate(-70.32 -87.45)" d="M209.92 474.07a4.38 4.38 0 00-3.12-1.36 4.24 4.24 0 000 8.47 4.45 4.45 0 003.09-1.36v1.41a5.23 5.23 0 01-3 1 5.29 5.29 0 110-10.58 4.92 4.92 0 013 1z" class="cls-9" fill="#1d1d1b"/><path id="path369" transform="translate(-70.32 -87.45)" d="M214.57 482.06h-1.14v-9.17H211v-1.06h6.1v1.06h-2.49z" class="cls-9" fill="#1d1d1b"/><path id="path371" transform="translate(-70.32 -87.45)" d="M219.4 482.06h-1.14v-10.23h1.14z" class="cls-9" fill="#1d1d1b"/><path id="path373" transform="translate(-70.32 -87.45)" d="M231.62 477a5.33 5.33 0 11-5.33-5.3 5.3 5.3 0 015.33 5.3zm-9.52 0a4.19 4.19 0 104.19-4.24 4.23 4.23 0 00-4.19 4.24z" class="cls-9" fill="#1d1d1b"/><path id="path375" transform="translate(-70.32 -87.45)" d="M233.24 471.4l8 8.36v-7.93h1.13v10.69l-8-8.34v7.88h-1.14z" class="cls-9" fill="#1d1d1b"/><path id="path377" transform="translate(-70.32 -87.45)" d="M248.67 471.83h1.92a5.58 5.58 0 014 1.24 5.24 5.24 0 010 7.7 5.41 5.41 0 01-4 1.29h-1.9zm2 9.17a4.28 4.28 0 003.23-1.05 4.18 4.18 0 00-.05-6.07 4.4 4.4 0 00-3.18-1h-.82V481z" class="cls-9" fill="#1d1d1b"/><path id="path379" transform="translate(-70.32 -87.45)" d="M259 477.92a3.75 3.75 0 00.45 2.28 2.62 2.62 0 002.06 1 2.72 2.72 0 002-.91 3.54 3.54 0 00.5-2.35v-6.09h1.14v6.41a3.57 3.57 0 01-.9 2.83 3.75 3.75 0 01-2.75 1.17 3.81 3.81 0 01-2.64-1.05 3.58 3.58 0 01-1-2.95v-6.41H259z" class="cls-9" fill="#1d1d1b"/><path id="path381" transform="translate(-70.32 -87.45)" d="M271.41 471.4l8 8.36v-7.93h1.14v10.69l-8-8.34v7.88h-1.14z" class="cls-9" fill="#1d1d1b"/><path id="path383" transform="translate(-70.32 -87.45)" d="M283.77 477.92a3.82 3.82 0 00.45 2.28 2.63 2.63 0 002.06 1 2.72 2.72 0 002-.91 3.54 3.54 0 00.5-2.35v-6.09h1.14v6.41a3.6 3.6 0 01-.89 2.83 3.84 3.84 0 01-5.4.12 3.58 3.58 0 01-1-2.95v-6.41h1.14z" class="cls-9" fill="#1d1d1b"/><path id="path385" transform="translate(-70.32 -87.45)" d="M293.29 471.25l3.71 8.59 3.73-8.59 2.08 10.81h-1.17l-1.31-6.92-3.3 7.34-3.28-7.34-1.31 6.92h-1.17z" class="cls-9" fill="#1d1d1b"/><path id="path387" transform="translate(-70.32 -87.45)" d="M304.11 471.83h5.31v1.06h-4.17v3h4.05V477h-4.05v4h4.17v1.06h-5.31zm4.52-2.86l-2.07 2.09-.68-.38 1.61-2.22z" class="cls-9" fill="#1d1d1b"/><path id="path389" transform="translate(-70.32 -87.45)" d="M312.5 482.06h-1.14v-10.23h1.48c1.94 0 3.74.52 3.74 2.83a2.68 2.68 0 01-2.56 2.82l3.26 4.58h-1.4l-3.09-4.49h-.29zm0-5.49h.35c1.29 0 2.59-.25 2.59-1.83s-1.23-1.85-2.6-1.85h-.34z" class="cls-9" fill="#1d1d1b"/><path id="path391" transform="translate(-70.32 -87.45)" d="M319.88 482.06h-1.14v-10.23h1.14z" class="cls-9" fill="#1d1d1b"/><path id="path393" transform="translate(-70.32 -87.45)" d="M329.85 481.23a5.25 5.25 0 112.26-4.24 5.09 5.09 0 01-1.48 3.61l1.53 1.56h-1.45zm0-1.45A3.94 3.94 0 00331 477a4.2 4.2 0 10-4.19 4.23 4 4 0 002.27-.76l-2.47-2.48h1.5z" class="cls-9" fill="#1d1d1b"/><path id="path395" transform="translate(-70.32 -87.45)" d="M334.77 477.92a3.75 3.75 0 00.45 2.28 2.62 2.62 0 002.06 1 2.72 2.72 0 002-.91 3.54 3.54 0 00.5-2.35v-6.09h1.14v6.41a3.57 3.57 0 01-.9 2.83 3.75 3.75 0 01-2.75 1.17 3.86 3.86 0 01-2.65-1.05 3.61 3.61 0 01-1-2.95v-6.41h1.14z" class="cls-9" fill="#1d1d1b"/><path id="path397" transform="translate(-70.32 -87.45)" d="M343 471.83h5.31v1.06h-4.17v3h4V477h-4v4h4.17v1.06H343z" class="cls-9" fill="#1d1d1b"/><path id="path399" transform="translate(-70.32 -87.45)" d="M300.92 544.86l-1.51.1-1.1-15.63 1.52-.11z" class="cls-10" fill="#878787"/><path id="path401" transform="translate(-70.32 -87.45)" d="M306.74 530.25l-1.71 5L304 535l1.32-5.11z" class="cls-10" fill="#878787"/><path id="path403" transform="translate(-70.32 -87.45)" d="M312.73 531.36a1.09 1.09 0 01-1 1.2 1.07 1.07 0 01-1.2-.95 1.082 1.082 0 112.15-.25zm1.11 12.25l-1.51.18-1-8.87 1.51-.18z" class="cls-10" fill="#878787"/><path id="path405" transform="translate(-70.32 -87.45)" d="M318.81 535.05a3 3 0 012.32-1.69c2.44-.37 3.27 1.31 3.59 3.38l.79 5.24-1.5.22-.76-5c-.21-1.43-.52-2.69-2.26-2.43-2.07.31-1.91 2.25-1.67 3.83l.63 4.19-1.5.22-1.34-8.82 1.51-.23z" class="cls-10" fill="#878787"/><path id="path407" transform="translate(-70.32 -87.45)" d="M329.92 533.2a3 3 0 012.24-1.79c2.43-.48 3.33 1.16 3.74 3.21l1 5.2-1.49.3-1-4.94c-.28-1.42-.64-2.67-2.38-2.32-2.05.4-1.8 2.33-1.5 3.9l.82 4.15-1.49.3-1.73-8.77 1.5-.29z" class="cls-10" fill="#878787"/><path id="path409" transform="translate(-70.32 -87.45)" d="M339.53 534.72a4.69 4.69 0 115.68 3.44 4.67 4.67 0 01-5.68-3.44zm1.47-.38a3.18 3.18 0 102.29-4 3.16 3.16 0 00-2.29 4z" class="cls-10" fill="#878787"/><path id="path411" transform="translate(-70.32 -87.45)" d="M355.27 532.14l.84-6.52 1.64-.48-1.48 10.37-6.92-7.88 1.66-.49z" class="cls-10" fill="#878787"/><path id="path413" transform="translate(-70.32 -87.45)" d="M370.92 530.06l-1.44.5-.4-1.17a3.75 3.75 0 01-2.42 2.41c-2.47.87-4.76-.69-5.58-3-.82-2.31 0-5 2.49-5.88a3.84 3.84 0 013.39.43l-.42-1.2 1.43-.5zm-8.45-1.88c.58 1.65 2.09 2.87 3.89 2.24 1.8-.63 2.29-2.47 1.7-4.17a3 3 0 00-3.9-2.06 3 3 0 00-1.69 3.99z" class="cls-10" fill="#878787"/><path id="path415" transform="translate(-70.32 -87.45)" d="M376.48 527.88l-1.41.56-2.77-7-.87.34-.51-1.31.86-.34-1.18-3 1.42-.56 1.18 3 1.48-.58.52 1.3-1.49.59z" class="cls-10" fill="#878787"/><path id="path417" transform="translate(-70.32 -87.45)" d="M377.7 514.05a1.087 1.087 0 01-2 .85 1.087 1.087 0 012-.85zm4.54 11.43l-1.39.6-3.52-8.21 1.4-.6z" class="cls-10" fill="#878787"/><path id="path419" transform="translate(-70.32 -87.45)" d="M384 519.92a4.69 4.69 0 116.26 2.21 4.69 4.69 0 01-6.26-2.21zm1.37-.67a3.171 3.171 0 105.72-2.74 3.171 3.171 0 10-5.72 2.74z" class="cls-10" fill="#878787"/><path id="path421" transform="translate(-70.32 -87.45)" d="M395.24 510.53a3 3 0 011.59-2.39c2.17-1.19 3.52.11 4.53 1.94l2.54 4.65-1.33.73-2.38-4.46c-.69-1.26-1.41-2.34-3-1.49-1.83 1-1 2.76-.25 4.16l2 3.72-1.33.73-4.29-7.83 1.33-.73z" class="cls-10" fill="#878787"/><path id="path423" transform="translate(-70.32 -87.45)" d="M420.93 504l-1.26.85-.69-1a3.77 3.77 0 01-1.73 2.95 4.41 4.41 0 01-6.17-1.51c-1.42-2.12-1.29-4.83.93-6.33a3.88 3.88 0 013.39-.44l-.71-1.06 1.26-.84zm-8.65.31c1 1.45 2.75 2.25 4.33 1.2s1.6-3 .59-4.47a3 3 0 00-4.29-1 3 3 0 00-.63 4.26z" class="cls-10" fill="#878787"/><path id="path425" transform="translate(-70.32 -87.45)" d="M423.34 497.36c.9 1.19 1.82 2.12 3.29 1s.83-2.25-.08-3.44l-3-4 1.21-.91 3.11 4.11c1.43 1.89 1.71 3.75-.39 5.34-2.1 1.59-3.82.81-5.25-1.08l-3.11-4.11 1.21-.92z" class="cls-10" fill="#878787"/><path id="path427" transform="translate(-70.32 -87.45)" d="M437.3 482.16a1.4 1.4 0 00-1.51.13 1.08 1.08 0 00-.17 1.47c.55.61 1.52.15 2.59-.22a2.72 2.72 0 013.25.54 2.93 2.93 0 01-.32 4.18 3.22 3.22 0 01-3.86.41l.63-1.32a1.91 1.91 0 002.31-.15 1.37 1.37 0 00.17-2c-1.33-1.49-3.88 1.71-5.76-.39a2.56 2.56 0 01.31-3.66 2.72 2.72 0 012.87-.35z" class="cls-10" fill="#878787"/><path id="path429" transform="translate(-70.32 -87.45)" d="M443.64 480a2.89 2.89 0 004.18.07 3 3 0 00.64-3.22l1.44-.37a4.51 4.51 0 01-1.18 4.68 4.33 4.33 0 01-6.34-.22c-1.85-1.88-2.28-4.52-.29-6.48 1.99-1.96 4.79-1.38 6.55.62zm3-4.72a2.72 2.72 0 00-3.51.17 2.82 2.82 0 00-.3 3.57z" class="cls-10" fill="#878787"/><path id="path431" transform="translate(-70.32 -87.45)" d="M449.22 468.87a2.32 2.32 0 01.46-2.28 2.71 2.71 0 011.24-.71l.52 1.47a1.47 1.47 0 00-.91.39c-1.14 1.23.37 2.75 1.22 3.54l3.27 3-1 1.11-6.53-6.08 1-1.12z" class="cls-10" fill="#878787"/><path id="path433" transform="translate(-70.32 -87.45)" d="M459.64 464.76l-2.85-5.91 1.11-1.31 4.41 9.5-10.09-2.83 1.12-1.31z" class="cls-10" fill="#878787"/><path id="path435" transform="translate(-70.32 -87.45)" d="M458.23 451.68a1.08 1.08 0 01.18 1.52 1.082 1.082 0 11-1.7-1.34 1.1 1.1 0 011.52-.18zm9.44 7.88l-.94 1.19-7-5.54.94-1.19z" class="cls-10" fill="#878787"/><path id="path437" transform="translate(-70.32 -87.45)" d="M469.41 446.79a3.41 3.41 0 00-2.85 1.35 3.19 3.19 0 00.8 4.5 3.14 3.14 0 004.49-.53 3.47 3.47 0 00.47-3.26l1.64 1.2a4.87 4.87 0 01-.94 2.83 4.63 4.63 0 01-6.61 1 4.71 4.71 0 01-1-6.63 4.9 4.9 0 012.35-1.7z" class="cls-10" fill="#878787"/><path id="path439" transform="translate(-70.32 -87.45)" d="M473.73 444.27a2.9 2.9 0 004.11-.79 3.08 3.08 0 000-3.29l1.33-.66a4.52 4.52 0 01-.18 4.82 4.32 4.32 0 01-6.25 1.1c-2.2-1.46-3.17-3.95-1.63-6.28s4.4-2.34 6.54-.75zm1.92-5.23a2.74 2.74 0 00-3.4.89 2.84 2.84 0 00.45 3.56z" class="cls-10" fill="#878787"/><path id="path441" transform="translate(-70.32 -87.45)" d="M488.94 424.88a3.8 3.8 0 01-.2 3.41 4.4 4.4 0 01-6.18 1.45c-2.23-1.23-3.35-3.71-2.05-6a3.85 3.85 0 012.82-1.93l-7-3.9.74-1.33 13.7 7.63-.74 1.33zm-5.75 3.48c1.53.85 3.48.76 4.4-.9.92-1.66.07-3.38-1.5-4.26a3 3 0 00-4.29 1.05 3 3 0 001.39 4.11z" class="cls-10" fill="#878787"/><path id="path443" transform="translate(-70.32 -87.45)" d="M489.44 417.72a2.89 2.89 0 004-1.29 3 3 0 00-.43-3.25l1.24-.83a4.53 4.53 0 01.4 4.81 4.33 4.33 0 01-6.07 1.86c-2.36-1.18-3.63-3.53-2.38-6s4.09-2.87 6.4-1.55zm1.26-5.42a2.72 2.72 0 00-3.26 1.3 2.81 2.81 0 00.88 3.47z" class="cls-10" fill="#878787"/><path id="path445" transform="translate(-70.32 -87.45)" d="M501.39 401.93l-.6 1.39-6.91-3-.37.86-1.29-.56.37-.85-2.95-1.27.6-1.4 2.95 1.27.63-1.47 1.29.56-.63 1.46z" class="cls-10" fill="#878787"/><path id="path447" transform="translate(-70.32 -87.45)" d="M498.7 396.94a4.7 4.7 0 116.09-2.65 4.69 4.69 0 01-6.09 2.65zm.54-1.43a3.17 3.17 0 10-1.91-4.16 3.16 3.16 0 001.91 4.16z" class="cls-10" fill="#878787"/><path id="path449" transform="translate(-70.32 -87.45)" d="M504.26 383.78c1.41.5 2.69.77 3.3-1 .61-1.77-.55-2.33-2-2.83l-4.7-1.64.51-1.44 4.86 1.7c2.24.79 3.5 2.18 2.63 4.67-.87 2.49-2.73 2.79-5 2l-4.86-1.7.5-1.43z" class="cls-10" fill="#878787"/><path id="path451" transform="translate(-70.32 -87.45)" d="M505.62 370.55a1.43 1.43 0 00-1.23.88 1.08 1.08 0 00.61 1.35c.77.25 1.37-.64 2.11-1.5a2.73 2.73 0 013.07-1.2 2.93 2.93 0 011.86 3.76 3.22 3.22 0 01-3.11 2.32l-.14-1.46c.91-.11 1.61-.35 1.91-1.3a1.35 1.35 0 00-.87-1.79c-1.9-.61-2.46 3.44-5.14 2.59a2.54 2.54 0 01-1.61-3.3 2.7 2.7 0 012.29-1.76z" class="cls-10" fill="#878787"/></g></svg>