<svg width="702" height="433" xmlns="http://www.w3.org/2000/svg"><g id="Artboard" stroke="none" stroke-width="1" fill="none" fill-rule="evenodd"><g id="MIN_Interieur_RVB_dark" transform="translate(0 47)"><path id="Path" fill="#FFF" fill-rule="nonzero" d="M0 90.33h11.65l10.933 18.58 10.931-18.58h11.651v45.165h-9.206v-32.087l-10.14 16.65h-6.473l-10.14-16.65v32.087H0zm58.277 0h8.742v45.165h-8.742zm21.854 0h11.656l20.042 32.302V90.33h9.097v45.165H109.27l-20.042-32.444v32.444h-9.097zm53.907 0h8.742v45.165h-8.742zm24.137 32.854c2.719 3.532 6.296 5.623 10.017 5.623 3.648 0 5.795-1.947 5.795-5.262 0-8.146-20.677-6.344-20.677-21.48 0-7.21 5.867-13.192 14.452-13.192 6.797 0 12.02 3.028 15.812 7.64l-6.725 6.056c-2.648-3.46-5.58-5.623-9.015-5.623-3.148 0-5.223 2.09-5.223 4.758 0 8.145 20.677 6.27 20.677 21.624-.143 8.434-6.726 13.624-14.953 13.624-7.584 0-12.807-2.811-16.814-7.64l6.654-6.128zm29.77-32.854h36.423v8.303h-13.711v36.862h-9V98.633h-13.712z"/><path d="M231.653 89.61h26.225v7.674h-17.103v10.28h14.537v7.675h-14.537v11.124h17.103v7.675h-26.225V89.61zm.784-12.392h9.406l7.27 8.59h-8.338l-8.338-8.59zm37.096 13.112h13.65c9.83 0 15.913 5.074 15.913 13.507 0 5.43-2.617 9.504-7.143 11.648l14.004 20.01h-10.821l-11.882-18.223h-4.668v18.223h-9.053V90.33zm9.053 7.79v11.29h5.092c3.82 0 6.083-2.072 6.083-5.716 0-3.43-2.264-5.574-6.083-5.574h-5.092z" id="Shape" fill="#FFF" fill-rule="nonzero"/><path id="Path" fill="#FFF" fill-rule="nonzero" d="M311.784 90.33h26.225v7.802h-17.103v10.45h14.538v7.802h-14.538v11.31h17.103v7.801h-26.225z"/><path d="M0 154.435h17.942c14.47 0 24.31 10.362 24.31 22.583 0 12.22-9.768 22.582-24.31 22.582H0v-45.165zm9.26 8.361v28.514h8.827c8.465 0 14.614-6.288 14.614-14.22 0-8.076-6.15-14.222-14.614-14.222H9.261v-.072z" id="Shape" fill="#FFF" fill-rule="nonzero"/><path id="Path" fill="#FFF" fill-rule="nonzero" d="M50.993 154.435h26.225v7.802H60.114v10.45h14.538v7.802H60.114v11.31h17.104v7.801H50.993zm53.907 0h9.121v36.862h17.103v8.303H104.9zm24.767 18.94l5.593-18.94h8.977l-7.25 18.94zm21.854-18.94h8.742V199.6h-8.742zm21.854 0h11.707l20.006 32.302v-32.302h9.082V199.6h-11.636l-20.006-32.444V199.6h-9.082v-45.165zm48.079 0h36.424v8.303h-13.712V199.6h-9v-36.862h-13.712z"/><path d="M266.62 155.172h26.224v7.674h-17.103v10.28h14.538v7.675H275.74v11.125h17.103v7.674H266.62v-44.428zm8.836-3.802l7.269-8.59h9.407l-8.338 8.59h-8.338zm27.587 3.065h13.65c9.83 0 15.913 5.074 15.913 13.507 0 5.431-2.617 9.505-7.143 11.648l14.003 20.01h-10.82l-11.883-18.223h-4.667V199.6h-9.053v-45.165zm9.053 7.861v11.291h5.092c3.819 0 6.082-2.072 6.082-5.717 0-3.43-2.263-5.574-6.082-5.574h-5.092z" id="Shape" fill="#FFF" fill-rule="nonzero"/><path id="Path" fill="#FFF" fill-rule="nonzero" d="M346.75 154.435h8.742V199.6h-8.741zm20.398 0h26.225v7.802H376.27v10.45h14.537v7.802H376.27v11.31h17.103v7.801h-26.225zm63.723 0h9.124v27.585c0 11.925-6.914 19.037-18.248 19.037-11.262 0-18.176-7.112-18.176-19.036v-27.586h9.124v28.376c0 6.106 3.421 9.626 9.124 9.626 5.56 0 9.052-3.592 9.052-9.626v-28.376z"/><path d="M451.65 154.435h13.65c9.831 0 15.913 5.074 15.913 13.507 0 5.431-2.617 9.505-7.143 11.648l14.004 20.01h-10.821l-11.882-18.223h-4.668V199.6h-9.053v-45.165zm9.053 7.861v11.291h5.092c3.82 0 6.083-2.072 6.083-5.717 0-3.43-2.264-5.574-6.083-5.574h-5.092z" id="Shape" fill="#FFF" fill-rule="nonzero"/><path d="M146.656 323.586c1.214 0 2.284.947 1.713 3.35l-5.71 1.385c1.071-2.769 2.713-4.735 3.997-4.735m3.14 9.324h-1.141c-1.428 1.748-2.926 3.06-4.496 3.06-1.57 0-2.355-.948-2.355-3.06 0-.874.07-1.748.285-2.55l9.135-3.06c1.784-4.297-.357-6.191-2.855-6.191-4.353 0-9.277 7.357-9.277 13.84 0 2.915 1.356 4.517 3.497 4.517 2.497 0 5.138-2.477 7.207-6.556m-1.784-13.55l6.423-6.119v-.728h-3.497l-3.996 6.847h1.07zm-19.768 4.298h3.069l-4.853 13.477c-.428 1.166.143 2.258 1.356 2.258 2.712 0 7.136-2.768 8.706-6.556h-.856c-1.213 1.311-3.568 3.06-5.566 3.424l4.424-12.675h4.496l.571-1.894h-4.424l1.712-4.881h-1.784l-3.14 4.88-3.71.51v1.457zm-4.14-.582c.358-1.239-.427-1.967-1.07-1.967-2.64 0-5.78 2.404-7.065 5.827h.857c.856-1.238 2.283-2.622 3.64-2.84l-5.068 13.403c-.428 1.239.428 1.967 1.07 1.967 2.499 0 5.425-2.477 6.71-5.828h-.857c-.857 1.239-2.284 2.623-3.64 2.841l5.424-13.403zm.929-6.775c1.213 0 2.212-.947 2.212-2.258 0-1.239-1-2.259-2.212-2.259-1.214 0-2.213 1.02-2.213 2.259.072 1.31 1 2.258 2.213 2.258m-29.118 20.616c-.642 1.53 0 2.476 1.5 2.476.927 0 1.284-.218 1.64-1.238l3.497-9.47c1.642-2.04 4.925-4.152 6.28-4.152.928 0 .857.8.215 2.04l-5.353 10.562c-.5 1.02.143 2.258 1.356 2.258 2.64 0 5.78-2.404 7.065-5.827h-.856c-.856 1.238-2.284 2.622-3.64 2.84l4.64-9.542c.57-1.239.927-2.331.927-3.278 0-1.53-.856-2.55-2.427-2.55-2.283 0-4.567 2.622-7.35 5.9v-2.476c0-1.821-.571-3.351-2.141-3.351-1 0-1.927.874-2.855 2.112v.365c1.713-.073 2.498 2.55 1.285 5.317l-3.783 8.014zm-.07-11.729c.641-2.185.285-4.08-1.357-4.08-1.927 0-2.426 1.53-4.425 5.901v-2.476c0-1.822-.57-3.351-2.14-3.351-1.856 0-3.569 2.913-4.853 5.827h.856c.928-1.31 1.713-2.112 2.355-2.112.785 0 1.213 1.238 0 4.006l-3.568 8.086c-.643 1.53 0 2.477 1.498 2.477.928 0 1.285-.218 1.642-1.238l3.497-9.47c.999-1.239 1.855-2.331 2.997-3.57h3.497zm-20.269-1.602c1.213 0 2.284.947 1.713 3.35l-5.71 1.385c1-2.769 2.713-4.735 3.997-4.735m3.14 9.324h-1.142c-1.427 1.748-2.926 3.06-4.496 3.06-1.57 0-2.355-.948-2.355-3.06 0-.874.072-1.748.286-2.55l9.135-3.06c1.784-4.297-.357-6.191-2.855-6.191-4.353 0-9.278 7.357-9.278 13.84 0 2.915 1.356 4.517 3.497 4.517 2.498 0 5.067-2.477 7.208-6.556m-21.552-9.252h3.069l-4.853 13.477c-.428 1.166.142 2.258 1.356 2.258 2.712 0 7.136-2.768 8.706-6.556h-.856c-1.213 1.311-3.568 3.06-5.567 3.424l4.425-12.675h4.496l.571-1.894h-4.425l1.713-4.881h-1.784l-3.14 4.88-3.711.51v1.457zm-16.7 10.49c0-4.152 4.496-9.761 7.066-9.761.57 0 1.07.073 1.57.218l-2.641 7.212c-1.499 1.894-3.854 4.152-4.924 4.152-.714 0-1.07-.51-1.07-1.82m13.916-13.842l-1.356-.072-1.57 1.53h-.357c-7.565 0-14.06 8.668-14.06 14.933 0 1.748 1.071 2.768 2.713 2.768 1.927 0 3.853-2.84 5.994-5.9l-.071 1.092c-.285 3.133.642 4.808 2.212 4.808 1.856 0 3.569-2.914 4.853-5.828h-.856c-.928 1.312-1.713 2.113-2.355 2.113-.714 0-1.213-1.311 0-4.007l4.853-11.437zm-16.058 4.881c.643-2.185.286-4.08-1.356-4.08-1.926 0-2.426 1.53-4.424 5.901v-2.476c0-1.822-.571-3.351-2.141-3.351-1.856 0-3.569 2.913-4.853 5.827h.856c.928-1.31 1.713-2.112 2.355-2.112.785 0 1.214 1.238 0 4.006l-3.568 8.086c-.642 1.53 0 2.477 1.499 2.477.928 0 1.284-.218 1.641-1.238l3.497-9.47c1-1.239 1.856-2.331 2.997-3.57h3.497zm-25.334 13.55l.356-1.02c-4.424-.874-4.924-.874-3.211-5.755l1.784-5.027h4.853c2.212 0 2.212.948 1.855 3.351h1.285l2.926-8.158h-1.285c-1.07 1.894-1.926 3.35-4.353 3.35h-4.781l2.569-7.138c.785-2.259 1.284-2.769 4.21-2.769h2.141c3.069 0 3.426.875 3.426 4.007h1.213l1-5.536h-18.2l-.357 1.02c3.568.728 3.854 1.092 2.212 5.754L6.637 331.89c-1.641 4.59-2.355 5.027-6.423 5.755L0 338.738h12.989zm89.926-56.068c1.219 0 2.294.931 1.72 3.296l-5.733 1.36c1.003-2.722 2.723-4.656 4.013-4.656m3.154 9.171h-1.147c-1.433 1.72-2.938 3.01-4.515 3.01-1.577 0-2.365-.932-2.365-3.01 0-.86.072-1.72.287-2.508l9.173-3.01c1.792-4.227-.358-6.09-2.867-6.09-4.371 0-9.316 7.237-9.316 13.614 0 2.866 1.361 4.443 3.511 4.443 2.509 0 5.16-2.436 7.239-6.449m-1.792-13.327l6.45-6.02v-.716h-3.512l-4.013 6.736h1.075zm-19.852 4.299h3.082l-4.874 13.256c-.43 1.146.144 2.22 1.362 2.22 2.723 0 7.167-2.722 8.743-6.448h-.931c-1.219 1.29-3.584 3.01-5.59 3.368l4.443-12.468h4.515l.574-1.863h-4.444l1.72-4.8h-1.792l-3.153 4.8-3.727.502.072 1.433zm-4.157-.645c.359-1.218-.43-1.935-1.075-1.935-2.652 0-5.805 2.365-7.095 5.733h.86c.86-1.219 2.293-2.58 3.655-2.795l-5.088 13.184c-.43 1.218.43 1.935 1.075 1.935 2.508 0 5.447-2.436 6.737-5.732h-.86c-.86 1.218-2.294 2.58-3.656 2.794l5.447-13.184zm.932-6.664c1.218 0 2.222-.931 2.222-2.221a2.233 2.233 0 00-2.222-2.221 2.233 2.233 0 00-2.222 2.221c.072 1.29 1.004 2.221 2.222 2.221m-17.63 19.848l9.245-24.29-.287-.358-5.805.644v.717l1.147.86c1.003.788.716 1.576-.215 4.012l-7.239 19.06c-.502 1.003.144 2.221 1.362 2.221 2.652 0 5.447-2.364 6.737-5.732h-.86c-.932 1.29-2.724 2.651-4.085 2.866m-17.56-2.221c0-4.084 4.516-9.602 7.096-9.602a5.59 5.59 0 011.577.215l-2.652 7.094c-1.505 1.863-3.87 4.084-4.945 4.084-.717-.072-1.075-.573-1.075-1.791m13.903-13.686l-1.361-.072-1.577 1.505h-.287c-7.596 0-14.118 8.527-14.118 14.689 0 1.72 1.075 2.723 2.723 2.723 1.935 0 3.87-2.795 6.02-5.804l-.071 1.075c-.287 3.08.645 4.729 2.221 4.729 1.864 0 3.584-2.866 4.874-5.732h-.86c-.932 1.29-1.72 2.077-2.365 2.077-.717 0-1.219-1.29 0-3.94l4.801-11.25zm-33.755 22.07c0-1.792 1.72-2.867 4.085-3.798.788.43 2.007.86 3.583 1.361 2.509.86 3.512 1.146 3.512 1.935 0 1.648-2.723 2.866-6.522 2.866-3.153-.072-4.658-.717-4.658-2.365m6.88-10.748c-1.075 0-1.505-.931-1.505-2.006 0-2.938 1.577-7.309 4.085-7.309 1.075 0 1.505.932 1.505 2.007 0 2.937-1.577 7.308-4.085 7.308m7.167 9.1c0-2.15-1.864-2.866-4.945-3.797-2.652-.789-3.87-1.004-3.87-1.863 0-.717.573-1.505 1.72-2.15 4.371-.215 7.166-4.156 7.166-7.452 0-.716-.143-1.29-.358-1.791h3.655l.574-1.863H38.27a4.512 4.512 0 00-2.365-.645c-4.587 0-7.597 4.013-7.597 7.309 0 2.507 1.577 4.012 3.512 4.442-2.15.931-3.369 2.078-3.369 3.44 0 .788.287 1.29.932 1.79-4.945 1.434-6.952 3.153-6.952 5.446 0 2.293 3.01 3.225 6.594 3.225 6.163-.072 11.18-3.368 11.18-6.09m-23.149-14.188c2.222 0 2.222.931 1.863 3.296h1.29l2.939-8.025h-1.29c-1.075 1.863-1.935 3.296-4.372 3.296h-4.802l2.437-6.664c.788-2.221 1.29-2.651 4.228-2.651h2.15c3.082 0 3.44.86 3.44 3.94h1.219l1.003-5.445H8.887l-.359 1.003c3.584.717 3.87 1.075 2.222 5.661l-4.013 10.891c-1.649 4.514-2.365 4.944-6.45 5.66L0 297.646h20.354l3.655-5.804h-1.362c-2.293 2.221-5.232 4.3-9.317 4.3-5.375 0-4.945-.216-3.153-5.16l1.935-5.302h4.945zm2.652-13.9l6.45-4.443v-.717h-3.942l-3.583 5.16h1.075zm81.8-29.648c1.21 0 2.279.935 1.71 3.308l-5.698 1.366c.997-2.66 2.706-4.674 3.988-4.674m3.134 9.276h-1.14c-1.424 1.725-2.92 3.02-4.486 3.02-1.567 0-2.35-.935-2.35-3.02 0-.863.071-1.726.285-2.517l9.115-3.02c1.78-4.242-.356-6.111-2.849-6.111-4.344 0-9.257 7.262-9.257 13.66 0 2.877 1.353 4.459 3.49 4.459 2.492-.072 5.055-2.517 7.192-6.471m-1.78-13.446l6.408-6.04v-.718h-3.49l-3.987 6.758h1.068zm-18.943 4.314h2.421l-4.842 13.302c-.427 1.15.142 2.229 1.353 2.229 2.706 0 7.121-2.732 8.688-6.471h-.855c-1.21 1.294-3.56 3.02-5.554 3.38l4.415-12.512h4.486l.57-1.87h-4.415l1.709-4.816h-1.78l-3.134 4.817-3.133.503v1.438h.071zm-2.35 1.51c.641-2.157.285-4.026-1.353-4.026-1.923 0-2.421 1.51-4.415 5.824v-2.445c0-1.797-.57-3.307-2.136-3.307-1.852 0-3.56 2.876-4.843 5.752h.855c.926-1.295 1.709-2.085 2.35-2.085.783 0 1.21 1.222 0 3.954l-3.56 7.981c-.642 1.51 0 2.445 1.495 2.445.926 0 1.282-.216 1.638-1.223l3.489-9.347c.997-1.222 1.851-2.3 2.99-3.523h3.49zm-20.224-1.654c1.21 0 2.279.935 1.71 3.308l-5.698 1.366c.997-2.66 2.635-4.674 3.988-4.674m3.134 9.276h-1.14c-1.424 1.725-2.92 3.02-4.486 3.02-1.567 0-2.35-.935-2.35-3.02 0-.863.071-1.726.285-2.517l9.115-3.02c1.78-4.242-.356-6.111-2.849-6.111-4.344 0-9.257 7.262-9.257 13.66 0 2.877 1.353 4.459 3.49 4.459 2.492-.072 5.055-2.517 7.192-6.471m-22.432 3.667c-.926 0-2.207-.863-2.207-1.582 0-.216.427-1.294.925-2.589l1.496-3.954c1.566-1.87 3.988-3.955 5.34-3.955.855 0 1.425.504 1.425 1.798 0 3.667-3.347 10.282-6.979 10.282m10.397-11.72c0-2.732-.997-3.667-2.849-3.667-2.278 0-4.486 2.444-6.693 5.464l5.483-14.596-.285-.36-5.768.648v.719l1.14.863c.996.79.711 1.654-.214 4.026l-5.91 15.459c-.428 1.15-.927 2.445-.927 2.804 0 1.582 2.137 3.092 4.06 3.092 4.486 0 11.963-8.197 11.963-14.452m-17.945-1.726c.356-1.222-.427-1.941-1.068-1.941-2.635 0-5.768 2.373-7.05 5.752h.854c.855-1.222 2.279-2.589 3.632-2.804l-5.056 13.23c-.427 1.222.427 1.94 1.068 1.94 2.493 0 5.412-2.444 6.694-5.751h-.783c-.855 1.222-2.279 2.588-3.632 2.804l5.34-13.23zm.926-6.687c1.21 0 2.207-.934 2.207-2.229 0-1.222-.997-2.228-2.207-2.228-1.211 0-2.208 1.006-2.208 2.228.071 1.295.997 2.23 2.208 2.23m-13.317-2.086H10.145l-.356 1.007c3.56.719 3.845 1.078 2.207 5.68l-3.845 10.929c-1.638 4.53-2.35 4.961-6.41 5.68l-.284 1.007h18.301l3.988-7.118h-1.353c-2.208 2.516-4.914 5.608-8.901 5.608-3.062 0-3.419-.504-1.78-5.177l3.916-10.929c1.638-4.53 2.35-4.961 6.409-5.68l.071-1.007z" id="Shape" fill="#AAA" fill-rule="nonzero"/><path id="Rectangle" fill="#FFF" d="M0 0h164.742v59.588H0z"/><g id="Group" fill-rule="nonzero"><path d="M67.699 52.9c.639-.641 1.278-1.353 1.918-1.994 1.207-1.353 2.344-2.634 3.765-3.845.426-.356.852-.712 1.207-.996.142-.143.142-.356.213-.428-.568.214-.923.712-1.491.926-.143 0-.214-.142-.143-.214.427-.284.782-.57 1.208-.925h-.07c-.143 0-.143-.143-.143-.214-1.492-.213-2.557.783-3.623 1.709-.213.142-.426-.142-.568-.142-1.705.57-2.913 2.064-4.618 2.705v-.214c-.71.214-1.35.641-2.06.784-.994.213-1.918.142-2.841.142-1.35.142-2.7.427-4.12.712h-.142c-.71.214-1.421.498-2.132.854 0 0-.07 0-.07.072-.072.07-.143.142-.143.213-.213.285-.426.498-.781.64-.71.357-1.279.998-1.847 1.496-.071.071-.142.071-.213.071-.64.57-1.208 1.14-1.847 1.709-.071.071-.213.071-.355.071 0-.071.07-.071.07-.142.072-.143.214-.285.285-.499.142-.142.213-.356.355-.498.142-.214.284-.498.497-.712.071-.071 0-.142 0-.142-.07-.072-.07-.072-.142-.072.569-.57 1.208-.996 1.918-1.424-.07 0-.213 0-.142-.142.071-.071.142-.214.213-.285 0 0 0-.07.071-.07l-.07-.072c-.214.142-.356.213-.498.356-.284.213-.497.712-.923.712h-.143c-.07 0-.07 0-.142-.071 0 0 0-.072.071-.072l.071-.07s0-.072.071-.072c0-.071.072-.071.072-.142l.07-.072c.072-.07.072-.142.143-.213 0-.071.07-.071.07-.143.072-.07.072-.142.143-.213.07-.071 0-.142-.071-.214.213-.284.497-.498.781-.64.426-.214.853-.499 1.279-.712.07-.072.142-.143.213-.143a8.166 8.166 0 00-1.776.855s-.142.07-.213.07c0 0-.142.072-.284-.07v-.072c.142-.213.426-.356.71-.57.142 0 .213 0 .213.143 3.623-2.848 8.525-2.136 12.716-3.63.355-.214.71-.428.994-.713.569-.213.995-.783 1.705-1.139.924-.712 1.563-1.495 1.918-2.563 0-.143-.142-.214-.142-.214-1.492 1.567-3.125 2.848-4.972 3.703-2.345 1.21-4.973.996-7.46 1.352.143-.213.356-.213.569-.213 0-.356.213-.427.426-.712h.355c.142 0 .142-.214.214-.214.213 0 .568-.142.426-.142-.355-.427-.995.356-1.563 0 .213-.214.142-.57.355-.712h.426c0-.214.213-.427.213-.427 1.705-.997 3.268-1.78 4.831-2.706-.355 0-.568.356-.923.142.213 0 0-.356.213-.356 1.207-.355 2.273-.996 3.48-1.495-.426 0-.781.356-1.207 0 .213-.142.355-.356.71-.356v-.356c0-.142.142-.142.213-.142-.142 0-.213-.142-.213-.142.142-.214.426-.143.71-.356-.142 0-.355 0-.355-.143.356-.427.924-.57 1.492-.712-.142-.213-.426 0-.426-.213 0-.143.142-.143.213-.143h-.213c-.213-.142-.142-.356-.142-.427.71-.783.71-1.78.994-2.705-.142 0-.213 0-.213-.143-1.136 1.21-2.912 1.709-4.617 2.136h-.568c-.569.214-1.35.214-1.918-.142-.427-.214-.71-.57-1.137-.926-.924-.57-1.776-.997-2.842-1.353-2.841-.925-5.754-1.352-8.666-1.21 1.208-.712 2.628-.712 3.907-1.14 1.918-.569 3.694-1.21 5.754-1.138-.355-.143-.781 0-1.137 0-1.562-.143-3.125.356-4.83.712-1.137.213-2.131.712-3.268.925-.71.214-.994.926-1.776.783v-.356c1.137-1.352 2.486-2.705 4.262-2.847 2.06-.356 3.907 0 5.968.213 1.491.143 2.841.427 4.262.783.568 0 .71.926 1.136.997.71.214 1.35 0 2.06.427 0-.213-.142-.427 0-.712.427-.427.995.143 1.492-.142.924-.57-.781-1.566-1.207-2.35 0-.142.142-.213.142-.213.923.783 1.563 1.709 2.7 2.278.567.214 1.917.57 1.704-.142-.568-1.21-1.705-2.279-2.557-3.418v-.427c-.213 0-.213-.142-.356-.214v-.427c-.426-.213-.355-.712-.568-.996-.355-.57-.142-1.353-.355-2.065s-.355-1.21-.426-1.922c-.355-1.923-.782-3.632-.995-5.411-.213-2.136 1.208-3.845 2.273-5.767.782-1.353 1.705-2.706 3.126-3.631.355-1.353 1.208-2.492 2.131-3.632.924-1.067 2.415-1.78 3.481-2.278C75.797.427 77.218 0 77.218 0H0v59.734h54.699c2.13-1.566 4.262-2.278 7.246-3.773 1.42-.498 4.688-1.994 5.754-3.062zm-17.262-8.117c-.214 0-.71.142-.569-.142.142-.57.924-.57 1.35-.784.213-.142.568-.356.781-.213.213.356.569.213.782.427-.71.712-1.563.356-2.344.712zm-17.263-2.492s-.142-.142-.142-.214c1.492-1.922 2.558-3.702 3.623-5.766 1.492-.784 2.7-1.923 3.836-3.133 1.918-2.065 3.907-3.845 6.323-4.984.923-.356 2.06-.214 2.912.142-.355.428-.923.356-1.35.712-.142 0-.213 0-.355-.142.142-.142.142-.214.142-.356-1.136 1.21-2.7 1.78-3.623 3.275-.71 1.14-1.136 2.563-2.557 2.92-.426.142.142-.357-.142-.214-3.48 2.136-5.967 4.699-8.667 7.76zm9.377-7.404c-.142.213-.213.284-.355.427-.142.213-.213.356-.426.427-.142 0-.213 0-.213-.142.142-.428.426-.926.923-.997.071 0 .071.142.071.285zm5.186 16.873c-.07.143-.142.214-.284.356.142 0 .213.071.142.143-.284.213-.497.498-.852.57H46.6l-.427.426c-.142.143-.781 0-.568-.142.284-.285.568-.498.852-.783.143-.143.356-.285.498-.427.07-.071.142-.214.213-.285.07 0 .71-.071.568.142zm-1.989-.925c-.426.285-.852.64-1.279.854-.497.285-.994.498-1.491.712-.071-.071-.142-.071-.214-.071-.426.213-.78.57-1.136.854l-.142.143c-.071.07-.142.07-.142.142a.973.973 0 00-.213.285c-.071.071-.071.142-.142.142-.071.071-.285.071-.214-.071-.07 0-.142.071-.213.071-.07 0-.142.071-.142.071h-.142c-.142.143-.284.214-.426.356-.213.214-.426.428-.64.712v.072l-.07.07c0 .072-.071.072-.071.143l-.071.071s0-.07-.072-.07v-.072c0-.071-.07-.142-.07-.214v-.07c.142-.143.213-.286.355-.428l.142-.142c.07-.072.142-.143.213-.214l.07-.071c.143-.143.214-.285.356-.499 0 0 0-.07.071-.07.071-.072.071-.143.142-.214.071-.072.071-.143.142-.214v-.071c.071-.071.071-.143.142-.285v-.214c0-.07 0-.142.071-.142v-.071l.427-.64h-.071c-.143.07-.285.213-.427.355-.142.071-.355-.071-.213-.142a.98.98 0 01.284-.214c.213-.213.356-.427.569-.57.142-.07.213-.142.355-.284l.07-.071c.072-.072.143-.214.285-.285 1.066-1.068 2.913-.997 4.333-1.638.569-.213 1.208.143 1.776 0 .355 0 .71 0 .995.214-1.35.57-2.273 1.21-3.197 1.78zm2.273-7.832c-.142-.142.355 0 .426-.214h-.923c-.142 0-.142-.142-.142-.213-.568.142-1.208.356-1.776.427-.781.214-1.492.783-2.344.997-1.208.427-2.273 1.495-3.623 1.922-.142 0-.142-.142-.142-.213.142-.356.568-.428.781-.784 0-.142 0-.213-.142-.213.924-1.21 2.131-1.923 3.268-2.92v-.355c.355-.427.923-.712 1.136-1.21.143-.357.569-.784 1.137-.997-.142-.143-.355-.143-.355-.356-.426 0-.924.213-1.35-.143.213-.213.426-.356.71-.427a.538.538 0 01-.284-.142c-.142-.214.213-.499.569-.57.426-.142.994-.142 1.35-.427-.782-.142-1.706.213-2.487-.214.568-1.495 1.492-2.705 2.842-3.417.142 0 .355 0 .355.142 0 .57-.355.997-.924 1.14.924.213 1.776.213 2.7.711-.142.214-.356.143-.427.143.569.356 1.208.142 1.776.57-.355.355-.71 0-.994 0 3.48.996 7.175 1.78 10.158 4.058-2.486 1.21-5.043 1.78-7.743 2.35-.355 0-.568 0-.923-.143 0 .142 0 .356-.142.356-.427 0-.782 0-1.137.213-.284.143-.995.214-1.35-.07z" id="Shape" fill="#000091"/><path d="M164.634 0h-64.456s.143 0 .643.284 1.215.64 1.644.852c.858.427 1.644.995 2.144 1.776.214.355.571.995.357 1.492-.214.568-.357 1.491-.929 1.704-.714.356-1.572.356-2.358.213-.429 0-.929-.142-1.358-.213 1.715.71 3.287 1.492 4.43 3.055.144.213.572.355 1.001.355.143 0 .143.213.143.355-.214.213-.429.355-.357.71h.357c.572-.213.429-1.35 1.215-.994.571.355.786 1.136.429 1.704-.43.427-.93.782-1.358 1.137a.765.765 0 000 .781c.357.426.429.924.572 1.35.357.781.428 1.704.786 2.486.428 1.704.929 3.409.786 5.043 0 .923-.43 1.704-.143 2.557.214.923.786 1.562 1.214 2.344.43.71.93 1.136 1.215 1.775.715 1.137 1.93 2.273 1.358 3.623-.357.781-1.572.71-2.358 1.136-.715.568-.143 1.492.214 2.06.572.994-.714 1.705-1.5 2.06.214.355.714.213.786.426.143.568.714.923.357 1.491-.429.71-1.787.995-1.143 2.06.428.782.143 1.634-.143 2.486-.358.995-1.215 1.492-2.073 1.705-.714.213-1.5.213-2.143.142a1.212 1.212 0 00-.715-.213c-1.93-.213-3.859-.781-5.788-.781-.572.142-1.143.213-1.572.426-.5.355-1 .781-1.358 1.207-.071.071-.143.213-.214.284-.072.071-.072.142-.143.142 0 .071-.072.071-.072.142a6.668 6.668 0 00-.857 1.279s0 .071-.072.071c0 .071-.071.071-.071.142-.357.71-.643 1.35-.858 2.06-.786 2.557-.428 4.759.072 5.327.143.142 3.716 1.278 6.217 2.344 1.143.497 2 .923 2.644 1.35h63.312V0h.143z" id="Path" fill="#E1000F"/></g><path d="M104.884 22.826c.421.128 1.124.128 1.124.319-.21.828-1.546 1.019-2.248 1.846h-.351c-.352.191-.211.7-.562.7-.351-.127-.703 0-.984.128.422.382.984.7 1.686.637.14 0 .351.191.351.382 0 0 .141 0 .211-.127.14 0 .21 0 .21.127v.382c-.35.382-.912.191-1.334.319.913.19 1.756.19 2.53 0 .702-.192 0-1.21.42-1.72-.21 0 0-.318-.21-.318.21-.191.421-.51.702-.637.211 0 .562-.127.703-.318 0-.191-.422-.319-.351-.51.702-.382 1.194-1.019.983-1.592-.14-.318-.983-.318-1.545-.51-.562-.19-1.195 0-1.897.128-.562 0-1.124.319-1.686.382-.773.191-1.475.637-2.107 1.02.772-.32 1.545-.383 2.458-.638.632 0 1.194-.19 1.897 0z" id="Path" fill="#9D9D9C" fill-rule="nonzero"/><path id="Rectangle" d="M0 0h488.074v338.009H0z"/></g></g></svg>