<?xml version="1.0" encoding="UTF-8"?>
<svg width="702px" height="433px" viewBox="0 0 702 433" version="1.1" xmlns="http://www.w3.org/2000/svg" xmlns:xlink="http://www.w3.org/1999/xlink">
    <!-- Generator: Sketch 64 (93537) - https://sketch.com -->
    <title>Artboard</title>
    <desc>Created with Sketch.</desc>
    <g id="Artboard" stroke="none" stroke-width="1" fill="none" fill-rule="evenodd">
        <g id="MIN_Interieur_RVB_dark" transform="translate(0.000000, 47.000000)">
            <polygon id="Path" fill="#FFFFFF" fill-rule="nonzero" points="0 90.330047 11.65085 90.330047 22.5825118 108.910595 33.5141735 90.330047 45.1650235 90.330047 45.1650235 135.495071 35.9594136 135.495071 35.9594136 103.407894 25.818859 120.058923 19.3461645 120.058923 9.20560989 103.407894 9.20560989 135.495071 0 135.495071"></polygon>
            <polygon id="Path" fill="#FFFFFF" fill-rule="nonzero" points="58.2774497 90.330047 67.0190672 90.330047 67.0190672 135.495071 58.2774497 135.495071"></polygon>
            <polygon id="Path" fill="#FFFFFF" fill-rule="nonzero" points="80.1314933 90.330047 91.7869833 90.330047 111.82874 122.631614 111.82874 90.330047 120.925708 90.330047 120.925708 135.495071 109.270218 135.495071 89.2284611 103.050576 89.2284611 135.495071 80.1314933 135.495071"></polygon>
            <polygon id="Path" fill="#FFFFFF" fill-rule="nonzero" points="134.038134 90.330047 142.779752 90.330047 142.779752 135.495071 134.038134 135.495071"></polygon>
            <path d="M158.175145,123.184287 C160.893892,126.71632 164.471191,128.806707 168.191582,128.806707 C171.840426,128.806707 173.986806,126.860484 173.986806,123.544698 C173.986806,115.399398 153.310019,117.201456 153.310019,102.064172 C153.310019,94.8559419 159.176789,88.8731108 167.762306,88.8731108 C174.559174,88.8731108 179.78203,91.9005675 183.573967,96.5138349 L176.848645,102.568748 C174.201444,99.1087978 171.268059,96.9463287 167.833852,96.9463287 C164.685829,96.9463287 162.610996,99.0367155 162.610996,101.703761 C162.610996,109.849061 183.287783,107.974921 183.287783,123.328452 C183.144691,131.762081 176.562461,136.952007 168.334674,136.952007 C160.7508,136.952007 155.527944,134.140797 151.521369,129.311283 L158.175145,123.184287 Z" id="Path" fill="#FFFFFF" fill-rule="nonzero"></path>
            <polygon id="Path" fill="#FFFFFF" fill-rule="nonzero" points="187.944775 90.330047 224.368181 90.330047 224.368181 98.6329674 210.656667 98.6329674 210.656667 135.495071 201.656289 135.495071 201.656289 98.6329674 187.944775 98.6329674"></polygon>
            <path d="M231.652863,89.6097031 L257.877715,89.6097031 L257.877715,97.2843449 L240.77455,97.2843449 L240.77455,107.56414 L255.31224,107.56414 L255.31224,115.238782 L240.77455,115.238782 L240.77455,126.363492 L257.877715,126.363492 L257.877715,134.038134 L231.652863,134.038134 L231.652863,89.6097031 L231.652863,89.6097031 Z M232.436758,77.2176209 L241.843498,77.2176209 L249.112343,85.807587 L240.77455,85.807587 L232.436758,77.2176209 Z" id="Shape" fill="#FFFFFF" fill-rule="nonzero"></path>
            <path d="M269.533205,90.330047 L283.183142,90.330047 C293.013925,90.330047 299.09628,95.4039658 299.09628,103.836676 C299.09628,109.267913 296.479453,113.341341 291.953049,115.48525 L305.956611,135.495071 L295.135677,135.495071 L283.253867,117.271841 L278.586013,117.271841 L278.586013,135.495071 L269.533205,135.495071 L269.533205,90.330047 L269.533205,90.330047 Z M278.586013,98.1195843 L278.586013,109.41084 L283.678217,109.41084 C287.49737,109.41084 289.760572,107.338395 289.760572,103.693749 C289.760572,100.263494 287.49737,98.1195843 283.678217,98.1195843 L278.586013,98.1195843 Z" id="Shape" fill="#FFFFFF" fill-rule="nonzero"></path>
            <polygon id="Path" fill="#FFFFFF" fill-rule="nonzero" points="311.784356 90.330047 338.009208 90.330047 338.009208 98.1319291 320.906044 98.1319291 320.906044 108.582156 335.443734 108.582156 335.443734 116.384038 320.906044 116.384038 320.906044 127.693189 338.009208 127.693189 338.009208 135.495071 311.784356 135.495071"></polygon>
            <path d="M0,154.435242 L17.9422696,154.435242 C32.4118419,154.435242 42.251151,164.79747 42.251151,177.017753 C42.251151,189.238037 32.4841898,199.600265 17.9422696,199.600265 L0,199.600265 L0,154.435242 Z M9.26052625,162.796488 L9.26052625,191.310482 L18.0869653,191.310482 C26.5516651,191.310482 32.7012333,185.021682 32.7012333,177.089217 C32.7012333,169.013825 26.5516651,162.867952 18.0869653,162.867952 L9.26052625,162.867952 L9.26052625,162.796488 Z" id="Shape" fill="#FFFFFF" fill-rule="nonzero"></path>
            <polygon id="Path" fill="#FFFFFF" fill-rule="nonzero" points="50.9927685 154.435242 77.2176209 154.435242 77.2176209 162.237124 60.1144563 162.237124 60.1144563 172.687351 74.6521462 172.687351 74.6521462 180.489233 60.1144563 180.489233 60.1144563 191.798383 77.2176209 191.798383 77.2176209 199.600265 50.9927685 199.600265"></polygon>
            <polygon id="Path" fill="#FFFFFF" fill-rule="nonzero" points="104.899409 154.435242 114.021097 154.435242 114.021097 191.297345 131.124262 191.297345 131.124262 199.600265 104.899409 199.600265"></polygon>
            <polygon id="Path" fill="#FFFFFF" fill-rule="nonzero" points="129.667326 173.375413 135.260304 154.435242 144.236688 154.435242 136.986531 173.375413"></polygon>
            <polygon id="Path" fill="#FFFFFF" fill-rule="nonzero" points="151.521369 154.435242 160.262987 154.435242 160.262987 199.600265 151.521369 199.600265"></polygon>
            <polygon id="Path" fill="#FFFFFF" fill-rule="nonzero" points="173.375413 154.435242 185.081579 154.435242 205.088481 186.736809 205.088481 154.435242 214.169628 154.435242 214.169628 199.600265 202.534408 199.600265 182.527506 167.15577 182.527506 199.600265 173.446359 199.600265 173.446359 154.435242"></polygon>
            <polygon id="Path" fill="#FFFFFF" fill-rule="nonzero" points="221.454309 154.435242 257.877715 154.435242 257.877715 162.738162 244.166201 162.738162 244.166201 199.600265 235.165823 199.600265 235.165823 162.738162 221.454309 162.738162"></polygon>
            <path d="M266.619332,155.171834 L292.844185,155.171834 L292.844185,162.846476 L275.74102,162.846476 L275.74102,173.126271 L290.27871,173.126271 L290.27871,180.800913 L275.74102,180.800913 L275.74102,191.925623 L292.844185,191.925623 L292.844185,199.600265 L266.619332,199.600265 L266.619332,155.171834 Z M275.455967,151.369718 L282.724812,142.779752 L292.131553,142.779752 L283.79376,151.369718 L275.455967,151.369718 Z" id="Shape" fill="#FFFFFF" fill-rule="nonzero"></path>
            <path d="M303.042738,154.435242 L316.692675,154.435242 C326.523458,154.435242 332.605814,159.50916 332.605814,167.941871 C332.605814,173.373108 329.988986,177.446535 325.462583,179.590445 L339.466145,199.600265 L328.64521,199.600265 L316.7634,181.377036 L312.095546,181.377036 L312.095546,199.600265 L303.042738,199.600265 L303.042738,154.435242 Z M312.095546,162.296243 L312.095546,173.587499 L317.187751,173.587499 C321.006904,173.587499 323.270106,171.515053 323.270106,167.870407 C323.270106,164.440152 321.006904,162.296243 317.187751,162.296243 L312.095546,162.296243 Z" id="Shape" fill="#FFFFFF" fill-rule="nonzero"></path>
            <polygon id="Path" fill="#FFFFFF" fill-rule="nonzero" points="346.750826 154.435242 355.492443 154.435242 355.492443 199.600265 346.750826 199.600265"></polygon>
            <polygon id="Path" fill="#FFFFFF" fill-rule="nonzero" points="367.147933 154.435242 393.372786 154.435242 393.372786 162.237124 376.269621 162.237124 376.269621 172.687351 390.807311 172.687351 390.807311 180.489233 376.269621 180.489233 376.269621 191.798383 393.372786 191.798383 393.372786 199.600265 367.147933 199.600265"></polygon>
            <path d="M430.871074,154.435242 L439.994745,154.435242 L439.994745,182.0205 C439.994745,193.945377 433.080713,201.057201 421.747403,201.057201 C410.485371,201.057201 403.571339,193.945377 403.571339,182.0205 L403.571339,154.435242 L412.69501,154.435242 L412.69501,182.810703 C412.69501,188.916814 416.116387,192.436808 421.818682,192.436808 C427.378419,192.436808 430.871074,188.844978 430.871074,182.810703 L430.871074,154.435242 Z" id="Path" fill="#FFFFFF" fill-rule="nonzero"></path>
            <path d="M451.650235,154.435242 L465.300172,154.435242 C475.130955,154.435242 481.21331,159.50916 481.21331,167.941871 C481.21331,173.373108 478.596483,177.446535 474.070079,179.590445 L488.073641,199.600265 L477.252707,199.600265 L465.370897,181.377036 L460.703043,181.377036 L460.703043,199.600265 L451.650235,199.600265 L451.650235,154.435242 Z M460.703043,162.296243 L460.703043,173.587499 L465.795247,173.587499 C469.614401,173.587499 471.877602,171.515053 471.877602,167.870407 C471.877602,164.440152 469.614401,162.296243 465.795247,162.296243 L460.703043,162.296243 Z" id="Shape" fill="#FFFFFF" fill-rule="nonzero"></path>
            <path d="M146.656387,323.585539 C147.869603,323.585539 148.940088,324.532548 148.369162,326.936493 L142.659911,328.320582 C143.730396,325.552403 145.371806,323.585539 146.656387,323.585539 M149.796475,332.909931 L148.654625,332.909931 C147.227312,334.658255 145.728634,335.969498 144.15859,335.969498 C142.588546,335.969498 141.803524,335.022489 141.803524,332.909931 C141.803524,332.03577 141.874889,331.161608 142.088986,330.360293 L151.223788,327.300727 C153.007929,323.002765 150.86696,321.108748 148.369162,321.108748 C144.015858,321.108748 139.091629,328.466276 139.091629,334.949642 C139.091629,337.863515 140.447577,339.466145 142.588546,339.466145 C145.086343,339.466145 147.726872,336.989353 149.796475,332.909931 M148.012334,319.360424 L154.435242,313.241292 L154.435242,312.512824 L150.938325,312.512824 L146.94185,319.360424 L148.012334,319.360424 Z M128.244052,323.658386 L131.312775,323.658386 L126.459911,337.135047 C126.031718,338.300596 126.602643,339.393298 127.815859,339.393298 C130.527753,339.393298 134.952422,336.625119 136.522466,332.837085 L135.666079,332.837085 C134.452863,334.148327 132.097797,335.896651 130.099559,336.260885 L134.524229,323.585539 L139.020264,323.585539 L139.591189,321.691522 L135.166519,321.691522 L136.879295,316.810786 L135.095154,316.810786 L131.955066,321.691522 L128.244052,322.20145 L128.244052,323.658386 L128.244052,323.658386 Z M124.104845,323.075612 C124.461674,321.837216 123.676652,321.108748 123.034361,321.108748 C120.393832,321.108748 117.253744,323.512693 115.969163,326.936493 L116.82555,326.936493 C117.681938,325.698097 119.109251,324.314008 120.465198,324.095467 L115.398237,337.499281 C114.970044,338.737676 115.826431,339.466145 116.468722,339.466145 C118.966519,339.466145 121.892511,336.989353 123.177092,333.6384 L122.320704,333.6384 C121.464317,334.876795 120.037004,336.260885 118.681057,336.479425 L124.104845,323.075612 Z M125.032599,316.300858 C126.245815,316.300858 127.244933,315.35385 127.244933,314.042607 C127.244933,312.804211 126.245815,311.784356 125.032599,311.784356 C123.819383,311.784356 122.820264,312.804211 122.820264,314.042607 C122.891629,315.35385 123.819383,316.300858 125.032599,316.300858 M95.9154181,336.916506 C95.2731274,338.446289 95.9154181,339.393298 97.4140966,339.393298 C98.3418499,339.393298 98.698678,339.174757 99.0555062,338.154902 L102.552423,328.684816 C104.193832,326.645106 107.476652,324.532548 108.832599,324.532548 C109.760352,324.532548 109.688986,325.333863 109.046696,326.572259 L103.694273,337.135047 C103.194713,338.154902 103.837004,339.393298 105.05022,339.393298 C107.690748,339.393298 110.830837,336.989353 112.115418,333.565553 L111.25903,333.565553 C110.402643,334.803949 108.97533,336.188038 107.619383,336.406578 L112.258149,326.863646 C112.829074,325.62525 113.185903,324.532548 113.185903,323.585539 C113.185903,322.055756 112.329515,321.035901 110.759471,321.035901 C108.475771,321.035901 106.19207,323.658386 103.40881,326.936493 L103.40881,324.459701 C103.40881,322.638531 102.837885,321.108748 101.267841,321.108748 C100.268722,321.108748 99.3409688,321.98291 98.4132155,323.221305 L98.4132155,323.585539 C100.125991,323.512693 100.911013,326.135178 99.697797,328.903357 L95.9154181,336.916506 Z M95.8440525,325.188169 C96.4863433,323.002765 96.1295151,321.108748 94.4881054,321.108748 C92.5612331,321.108748 92.0616737,322.638531 90.0634358,327.00934 L90.0634358,324.532548 C90.0634358,322.711378 89.4925107,321.181595 87.9224666,321.181595 C86.06696,321.181595 84.3541847,324.095467 83.0696032,327.00934 L83.9259909,327.00934 C84.8537442,325.698097 85.6387662,324.896782 86.2810569,324.896782 C87.066079,324.896782 87.4942728,326.135178 86.2810569,328.903357 L82.712775,336.989353 C82.0704843,338.519136 82.712775,339.466145 84.2114534,339.466145 C85.1392067,339.466145 85.4960349,339.247604 85.8528631,338.227749 L89.3497794,328.757663 C90.3488983,327.519267 91.205286,326.426565 92.3471362,325.188169 L95.8440525,325.188169 L95.8440525,325.188169 Z M75.5762112,323.585539 C76.789427,323.585539 77.8599116,324.532548 77.2889865,326.936493 L71.5797354,328.320582 C72.5788544,325.552403 74.2916297,323.585539 75.5762112,323.585539 M78.7162993,332.909931 L77.5744491,332.909931 C76.1471363,334.658255 74.6484579,335.969498 73.0784138,335.969498 C71.5083698,335.969498 70.7233478,335.022489 70.7233478,332.909931 C70.7233478,332.03577 70.7947134,331.161608 71.0088103,330.360293 L80.143612,327.300727 C81.927753,323.002765 79.7867838,321.108748 77.2889865,321.108748 C72.9356825,321.108748 68.0114535,328.466276 68.0114535,334.949642 C68.0114535,337.863515 69.3674006,339.466145 71.5083698,339.466145 C74.0061671,339.466145 76.5753301,336.989353 78.7162993,332.909931 M57.1638764,323.658386 L60.2325989,323.658386 L55.3797355,337.135047 C54.9515416,338.300596 55.5224668,339.393298 56.7356826,339.393298 C59.4475769,339.393298 63.8722465,336.625119 65.4422905,332.837085 L64.5859028,332.837085 C63.372687,334.148327 61.0176209,335.896651 59.019383,336.260885 L63.4440526,323.585539 L67.9400879,323.585539 L68.511013,321.691522 L64.0863434,321.691522 L65.7991187,316.810786 L64.0149777,316.810786 L60.8748896,321.691522 L57.1638764,322.20145 L57.1638764,323.658386 L57.1638764,323.658386 Z M40.464317,334.148327 C40.464317,329.996059 44.9603523,324.386854 47.5295152,324.386854 C48.1004404,324.386854 48.5999998,324.459701 49.0995593,324.605395 L46.4590307,331.817229 C44.9603523,333.711246 42.6052862,335.969498 41.5348016,335.969498 C40.8211452,335.969498 40.464317,335.45957 40.464317,334.148327 M54.3806165,320.307433 L53.0246694,320.234586 L51.4546254,321.764369 L51.0977972,321.764369 C43.5330395,321.764369 37.0387664,330.43314 37.0387664,336.697966 C37.0387664,338.446289 38.109251,339.466145 39.7506606,339.466145 C41.6775329,339.466145 43.6044051,336.625119 45.7453743,333.565553 L45.6740086,334.658255 C45.3885461,337.790668 46.3162994,339.466145 47.8863434,339.466145 C49.74185,339.466145 51.4546254,336.552272 52.7392069,333.6384 L51.8828192,333.6384 C50.9550659,334.949642 50.1700439,335.750957 49.5277531,335.750957 C48.8140967,335.750957 48.3145373,334.439714 49.5277531,331.744382 L54.3806165,320.307433 Z M38.3233479,325.188169 C38.9656386,323.002765 38.6088104,321.108748 36.9674007,321.108748 C35.0405285,321.108748 34.540969,322.638531 32.5427312,327.00934 L32.5427312,324.532548 C32.5427312,322.711378 31.971806,321.181595 30.401762,321.181595 C28.5462554,321.181595 26.8334801,324.095467 25.5488986,327.00934 L26.4052862,327.00934 C27.3330395,325.698097 28.1180616,324.896782 28.7603523,324.896782 C29.5453743,324.896782 29.9735682,326.135178 28.7603523,328.903357 L25.1920704,336.989353 C24.5497796,338.519136 25.1920704,339.466145 26.6907488,339.466145 C27.6185021,339.466145 27.9753303,339.247604 28.3321585,338.227749 L31.8290748,328.757663 C32.8281937,327.519267 33.6845814,326.426565 34.8264316,325.188169 L38.3233479,325.188169 L38.3233479,325.188169 Z M12.9885462,338.737676 L13.3453744,337.717821 C8.92070481,336.843659 8.42114534,336.843659 10.1339207,331.962923 L11.9180616,326.936493 L16.770925,326.936493 C18.9832598,326.936493 18.9832598,327.883501 18.6264316,330.287446 L19.9110131,330.287446 L22.8370043,322.128603 L21.5524228,322.128603 C20.4819382,324.02262 19.6255506,325.479557 17.1991189,325.479557 L12.4176211,325.479557 L14.9867841,318.340569 C15.7718061,316.082318 16.2713656,315.57239 19.1973568,315.57239 L21.3383259,315.57239 C24.4070484,315.57239 24.7638766,316.446552 24.7638766,319.578965 L25.9770924,319.578965 L26.9762114,314.042607 L8.77797354,314.042607 L8.42114534,315.062462 C11.9894273,315.790931 12.2748898,316.155165 10.6334801,320.817361 L6.63700438,331.890076 C4.9955947,336.479425 4.28193831,336.916506 0.214096916,337.644974 L0,338.737676 L12.9885462,338.737676 Z" id="Shape" fill="#AAAAAA" fill-rule="nonzero"></path>
            <path d="M102.915336,282.669515 C104.133693,282.669515 105.208714,283.600999 104.635369,285.965535 L98.9019244,287.326934 C99.9052772,284.604136 101.625311,282.669515 102.915336,282.669515 M106.06873,291.841048 L104.922041,291.841048 C103.48868,293.560711 101.983651,294.850458 100.406954,294.850458 C98.8302563,294.850458 98.0419076,293.918974 98.0419076,291.841048 C98.0419076,290.981217 98.1135757,290.121386 98.3285799,289.333207 L107.502092,286.323798 C109.293793,282.096294 107.143751,280.233327 104.635369,280.233327 C100.263618,280.233327 95.3185213,287.47024 95.3185213,293.847321 C95.3185213,296.713425 96.6802145,298.289783 98.8302563,298.289783 C101.338638,298.289783 103.990357,295.853594 106.06873,291.841048 M104.277029,278.513664 L110.727154,272.494846 L110.727154,271.77832 L107.215419,271.77832 L103.202008,278.513664 L104.277029,278.513664 Z M84.424976,282.81282 L87.5067026,282.81282 L82.6332745,296.068552 C82.2032661,297.214993 82.7766106,298.289783 83.9949676,298.289783 C86.718354,298.289783 91.1617738,295.566984 92.7384711,291.841048 L91.8067863,291.841048 C90.5884293,293.130795 88.2233832,294.850458 86.2166775,295.208721 L90.6600973,282.741168 L95.1751852,282.741168 L95.7485297,280.8782 L91.3051099,280.8782 L93.0251433,276.077476 L91.2334418,276.077476 L88.0800471,280.8782 L84.3533079,281.379768 L84.424976,282.81282 L84.424976,282.81282 Z M80.2682285,282.167947 C80.6265688,280.949853 79.8382201,280.233327 79.1932075,280.233327 C76.5414893,280.233327 73.3880946,282.597863 72.0980695,285.965535 L72.9580862,285.965535 C73.818103,284.747441 75.2514642,283.386041 76.6131573,283.171083 L71.524725,296.355162 C71.0947166,297.573257 71.9547334,298.289783 72.5997459,298.289783 C75.1081281,298.289783 78.0465186,295.853594 79.3365437,292.557574 L78.4765269,292.557574 C77.6165102,293.775669 76.183149,295.137068 74.8214558,295.352026 L80.2682285,282.167947 Z M81.1999133,275.504255 C82.4182703,275.504255 83.4216232,274.572771 83.4216232,273.283024 C83.4216232,272.06493 82.4182703,271.061794 81.1999133,271.061794 C79.9815562,271.061794 78.9782034,272.06493 78.9782034,273.283024 C79.0498714,274.572771 79.9815562,275.504255 81.1999133,275.504255 M63.5695702,295.352026 L72.8147501,271.061794 L72.5280779,270.703531 L66.7229649,271.348404 L66.7229649,272.06493 L67.8696539,272.924761 C68.8730067,273.71294 68.5863345,274.501119 67.6546497,276.937307 L60.4161755,295.996899 C59.9144991,297.000036 60.5595117,298.21813 61.7778687,298.21813 C64.429587,298.21813 67.2246413,295.853594 68.5146664,292.485922 L67.6546497,292.485922 C66.7229649,293.775669 64.9312634,295.137068 63.5695702,295.352026 M46.0108952,293.130795 C46.0108952,289.046597 50.5259831,283.529346 53.1060333,283.529346 C53.6793778,283.529346 54.1810542,283.600999 54.6827306,283.744304 L52.0310124,290.837912 C50.5259831,292.70088 48.1609371,294.92211 47.0859162,294.92211 C46.3692355,294.850458 46.0108952,294.348889 46.0108952,293.130795 M59.9144991,279.445148 L58.5528059,279.373496 L56.9761086,280.8782 L56.6894364,280.8782 C49.0926219,280.8782 42.5708283,289.40486 42.5708283,295.566984 C42.5708283,297.286646 43.6458492,298.289783 45.2942146,298.289783 C47.2292523,298.289783 49.1642899,295.495331 51.3143318,292.485922 L51.2426637,293.560711 C50.9559915,296.641773 51.8876763,298.289783 53.4643736,298.289783 C55.3277432,298.289783 57.0477767,295.423678 58.3378018,292.557574 L57.477785,292.557574 C56.5461002,293.847321 55.7577516,294.6355 55.112739,294.6355 C54.3960584,294.6355 53.894382,293.345753 55.112739,290.694607 L59.9144991,279.445148 Z M26.1588423,301.51415 C26.1588423,299.722835 27.8788758,298.648046 30.2439218,297.716562 C31.0322705,298.146477 32.2506275,298.576393 33.8273249,299.077961 C36.335707,299.937792 37.3390598,300.224403 37.3390598,301.012581 C37.3390598,302.660591 34.6156735,303.878685 30.8172663,303.878685 C27.6638716,303.807033 26.1588423,303.162159 26.1588423,301.51415 M33.0389762,290.766259 C31.9639553,290.766259 31.5339469,289.834775 31.5339469,288.759986 C31.5339469,285.82223 33.1106442,281.451421 35.6190264,281.451421 C36.6940473,281.451421 37.1240557,282.382905 37.1240557,283.457694 C37.1240557,286.395451 35.5473583,290.766259 33.0389762,290.766259 M40.2057823,299.86614 C40.2057823,297.716562 38.3424127,297.000036 35.2606861,296.068552 C32.6089678,295.280373 31.3906108,295.065415 31.3906108,294.205584 C31.3906108,293.489058 31.9639553,292.70088 33.1106442,292.056006 C37.482396,291.841048 40.2774504,287.900155 40.2774504,284.604136 C40.2774504,283.88761 40.1341142,283.314389 39.91911,282.81282 L43.5741812,282.81282 L44.1475257,280.949853 L38.2707446,280.949853 C37.554064,280.519937 36.7657154,280.304979 35.9056986,280.304979 C31.3189427,280.304979 28.3088841,284.317525 28.3088841,287.613545 C28.3088841,290.121386 29.8855815,291.626091 31.8206191,292.056006 C29.6705773,292.98749 28.4522203,294.133932 28.4522203,295.495331 C28.4522203,296.28351 28.7388925,296.785078 29.3839051,297.286646 C24.4388088,298.719698 22.4321031,300.439361 22.4321031,302.732244 C22.4321031,305.025127 25.4421617,305.956611 29.0255648,305.956611 C35.189018,305.884958 40.2057823,302.588939 40.2057823,299.86614 M17.0569985,285.678925 C19.2787084,285.678925 19.2787084,286.610408 18.9203681,288.974944 L20.2103932,288.974944 L23.1487837,280.949853 L21.8587586,280.949853 C20.7837377,282.81282 19.923721,284.245873 17.4870069,284.245873 L12.6852468,284.245873 L15.1219609,277.582181 C15.9103096,275.36095 16.411986,274.931034 19.3503765,274.931034 L21.5004183,274.931034 C24.582145,274.931034 24.9404853,275.790865 24.9404853,278.871927 L26.1588423,278.871927 L27.1621952,273.42633 L8.88683958,273.42633 L8.52849927,274.429466 C12.1119023,275.145992 12.3985746,275.504255 10.7502092,280.090022 L6.73679775,290.981217 C5.08843234,295.495331 4.37175173,295.925247 0.286672245,296.641773 L0,297.644909 L20.3537294,297.644909 L24.0088005,291.841048 L22.6471073,291.841048 C20.3537294,294.062279 17.4153389,296.140204 13.3302594,296.140204 C7.95515478,296.140204 8.38516315,295.925247 10.1768647,290.981217 L12.1119023,285.678925 L17.0569985,285.678925 L17.0569985,285.678925 Z M19.7087168,271.77832 L26.1588423,267.335858 L26.1588423,266.619332 L22.2170989,266.619332 L18.6336959,271.77832 L19.7087168,271.77832 Z" id="Shape" fill="#AAAAAA" fill-rule="nonzero"></path>
            <path d="M101.508232,242.131451 C102.718817,242.131451 103.78698,243.066161 103.217293,245.438885 L97.5204219,246.804999 C98.5173744,244.144672 100.226436,242.131451 101.508232,242.131451 M104.641511,251.406647 L103.502136,251.406647 C102.077919,253.132265 100.58249,254.426479 99.0158506,254.426479 C97.4492111,254.426479 96.6658913,253.491769 96.6658913,251.406647 C96.6658913,250.543838 96.7371022,249.681029 96.9507349,248.890121 L106.065728,245.87029 C107.846,241.628146 105.709674,239.758726 103.217293,239.758726 C98.8734288,239.758726 93.9598776,247.020702 93.9598776,253.419868 C93.9598776,256.295898 95.3128845,257.877715 97.4492111,257.877715 C99.9415921,257.805814 102.505184,255.361189 104.641511,251.406647 M102.861238,237.961207 L109.270218,231.921544 L109.270218,231.202537 L105.780885,231.202537 L101.793075,237.961207 L102.861238,237.961207 Z M83.9191427,242.275252 L86.3403128,242.275252 L81.4979725,255.576891 C81.0707072,256.727303 81.6403943,257.805814 82.8509794,257.805814 C85.556993,257.805814 89.972068,255.073586 91.5387075,251.334747 L90.6841769,251.334747 C89.4735918,252.62896 87.1236325,254.354578 85.1297277,254.714082 L89.5448027,242.203352 L94.0310885,242.203352 L94.6007756,240.333932 L90.1857007,240.333932 L91.8947619,235.516582 L90.1144898,235.516582 L86.9812108,240.333932 L83.8479318,240.837237 L83.8479318,242.275252 L83.9191427,242.275252 Z M81.5691834,243.785168 C82.2100814,241.628146 81.8540269,239.758726 80.2161766,239.758726 C78.2934826,239.758726 77.7950064,241.268642 75.8011016,245.582687 L75.8011016,243.138061 C75.8011016,241.340543 75.2314145,239.830627 73.664775,239.830627 C71.813292,239.830627 70.1042307,242.706657 68.8224347,245.582687 L69.6769654,245.582687 C70.6027069,244.288473 71.3860267,243.497565 72.0269246,243.497565 C72.8102444,243.497565 73.2375097,244.719878 72.0269246,247.452106 L68.4663803,255.433089 C67.8254823,256.943005 68.4663803,257.877715 69.9618089,257.877715 C70.8875504,257.877715 71.2436049,257.662013 71.5996593,256.655402 L75.0889927,247.308305 C76.0859452,246.085992 76.9404758,245.007481 78.07985,243.785168 L81.5691834,243.785168 L81.5691834,243.785168 Z M61.3452917,242.131451 C62.5558767,242.131451 63.62404,243.066161 63.0543529,245.438885 L57.357482,246.804999 C58.3544344,244.144672 59.9922848,242.131451 61.3452917,242.131451 M64.4785707,251.406647 L63.3391965,251.406647 C61.9149788,253.132265 60.4195502,254.426479 58.8529107,254.426479 C57.2862712,254.426479 56.5029514,253.491769 56.5029514,251.406647 C56.5029514,250.543838 56.5741623,249.681029 56.7877949,248.890121 L65.9027884,245.87029 C67.6830606,241.628146 65.546734,239.758726 63.0543529,239.758726 C58.7104889,239.758726 53.7969377,247.020702 53.7969377,253.419868 C53.7969377,256.295898 55.1499446,257.877715 57.2862712,257.877715 C59.7786522,257.805814 62.3422441,255.361189 64.4785707,251.406647 M42.0471415,255.073586 C41.1213999,255.073586 39.839604,254.210777 39.839604,253.491769 C39.839604,253.276067 40.2668693,252.197556 40.7653455,250.903342 L42.2607741,246.948801 C43.8274136,245.079382 46.2485838,242.99426 47.6015906,242.99426 C48.4561212,242.99426 49.0258083,243.497565 49.0258083,244.791779 C49.0258083,248.458717 45.6788967,255.073586 42.0471415,255.073586 M52.4439309,243.353764 C52.4439309,240.621535 51.4469785,239.686825 49.5954954,239.686825 C47.3167471,239.686825 45.1092096,242.131451 42.9016721,245.151282 L48.3849104,230.55543 L48.1000668,230.195926 L42.331985,230.843033 L42.331985,231.562041 L43.4713592,232.42485 C44.4683116,233.215758 44.1834681,234.078567 43.2577265,236.451292 L37.347223,251.909953 C36.9199577,253.060365 36.4214814,254.354578 36.4214814,254.714082 C36.4214814,256.295898 38.557808,257.805814 40.480502,257.805814 C44.9667878,257.805814 52.4439309,249.609129 52.4439309,243.353764 M34.4987875,241.628146 C34.8548419,240.405833 34.0715222,239.686825 33.4306242,239.686825 C30.7958214,239.686825 27.6625424,242.05955 26.3807465,245.438885 L27.2352771,245.438885 C28.0898077,244.216573 29.5140255,242.850458 30.8670323,242.634756 L25.8110594,255.864494 C25.3837941,257.086807 26.2383247,257.805814 26.8792227,257.805814 C29.3716037,257.805814 32.29125,255.361189 33.573046,252.053754 L32.7897262,252.053754 C31.9351956,253.276067 30.5109779,254.642181 29.157971,254.857883 L34.4987875,241.628146 Z M35.424529,234.941376 C36.6351141,234.941376 37.6320665,234.006666 37.6320665,232.712453 C37.6320665,231.49014 36.6351141,230.483529 35.424529,230.483529 C34.213944,230.483529 33.2169916,231.49014 33.2169916,232.712453 C33.2882024,234.006666 34.213944,234.941376 35.424529,234.941376 M22.1080933,232.856254 L10.1446644,232.856254 L9.78860995,233.862865 C13.3491543,234.581872 13.6339978,234.941376 11.9961474,239.543024 L8.15075956,250.471938 C6.51290917,255.001685 5.80080031,255.433089 1.74177979,256.152097 L1.45693624,257.158707 L19.758134,257.158707 L23.7459437,250.040533 L22.3929368,250.040533 C20.1853994,252.557059 17.4793857,255.648792 13.491576,255.648792 C10.4295079,255.648792 10.0734535,255.145486 11.7113039,250.471938 L15.6279026,239.543024 C17.265753,235.013277 17.9778619,234.581872 22.0368824,233.862865 L22.1080933,232.856254 Z" id="Shape" fill="#AAAAAA" fill-rule="nonzero"></path>
            <rect id="Rectangle" fill="#FFFFFF" x="0" y="0" width="164.742268" height="59.5876289"></rect>
            <g id="Group" fill-rule="nonzero">
                <path d="M67.6986133,52.8994622 C68.3379496,52.2586881 68.977286,51.5467168 69.6166223,50.9059427 L69.6166223,50.9059427 C70.8242576,49.5531974 71.9608555,48.2716492 73.3816029,47.0612981 C73.8078271,46.7053125 74.2340513,46.3493269 74.5892382,46.0645384 C74.7313129,45.9221441 74.7313129,45.7085528 74.8023503,45.6373557 C74.2340513,45.850947 73.8788645,46.3493269 73.3105655,46.5629182 C73.1684908,46.5629182 73.0974534,46.420524 73.1684908,46.3493269 C73.594715,46.0645384 73.9499019,45.7797499 74.3761261,45.4237643 L74.3050887,45.4237643 C74.163014,45.4237643 74.163014,45.28137 74.163014,45.2101729 C72.6712292,44.9965815 71.6056687,45.9933413 70.5401081,46.9189039 C70.326996,47.0612981 70.1138839,46.7765096 69.9718091,46.7765096 C68.2669123,47.3460866 67.059277,48.8412262 65.3543801,49.4820003 C65.3543801,49.339606 65.3543801,49.339606 65.3543801,49.2684089 C64.6440064,49.4820003 64.0046701,49.909183 63.2942964,50.0515773 C62.2997732,50.2651686 61.3762874,50.1939715 60.4528016,50.1939715 C59.1030916,50.3363658 57.7533816,50.6211542 56.3326342,50.9059427 C56.2615968,50.9059427 56.2615968,50.9059427 56.1905594,50.9059427 C55.4801857,51.1195341 54.769812,51.4043226 54.0594383,51.7603082 C54.0594383,51.7603082 53.988401,51.7603082 53.988401,51.8315053 C53.9173636,51.9027025 53.8463262,51.9738996 53.8463262,52.0450967 C53.6332141,52.3298852 53.420102,52.5434766 53.0649152,52.6858708 C52.3545415,53.0418564 51.7862425,53.6826305 51.2179436,54.1810104 C51.1469062,54.2522075 51.0758688,54.2522075 51.0048314,54.2522075 C50.3654951,54.8217845 49.7971962,55.3913615 49.1578598,55.9609384 C49.0868225,56.0321356 48.9447477,56.0321356 48.802673,56.0321356 L48.802673,56.0321356 C48.802673,55.9609384 48.8737104,55.9609384 48.8737104,55.8897413 C48.9447477,55.7473471 49.0868225,55.6049528 49.1578598,55.3913615 C49.2999346,55.2489672 49.3709719,55.0353758 49.5130467,54.8929816 C49.6551214,54.6793902 49.7971962,54.3946017 50.0103083,54.1810104 C50.0813456,54.1098133 50.0103083,54.0386161 50.0103083,54.0386161 C49.9392709,53.967419 49.9392709,53.967419 49.8682335,53.967419 C50.4365325,53.397842 51.0758688,52.9706593 51.7862425,52.5434766 L51.7862425,52.5434766 C51.7152051,52.5434766 51.5731304,52.5434766 51.6441678,52.4010823 C51.7152051,52.3298852 51.7862425,52.1874909 51.8572799,52.1162938 C51.8572799,52.1162938 51.8572799,52.0450967 51.9283172,52.0450967 L51.8572799,51.9738996 C51.6441678,52.1162938 51.502093,52.1874909 51.3600183,52.3298852 C51.0758688,52.5434766 50.8627567,53.0418564 50.4365325,53.0418564 C50.4365325,53.0418564 50.3654951,53.0418564 50.2944577,53.0418564 C50.2234204,53.0418564 50.2234204,53.0418564 50.152383,52.9706593 L50.152383,52.9706593 L50.152383,52.9706593 L50.152383,52.9706593 C50.152383,52.9706593 50.152383,52.8994622 50.2234204,52.8994622 L50.2944577,52.828265 C50.2944577,52.828265 50.2944577,52.7570679 50.3654951,52.7570679 C50.3654951,52.6858708 50.4365325,52.6858708 50.4365325,52.6146737 L50.5075699,52.5434766 C50.5786072,52.4722794 50.5786072,52.4010823 50.6496446,52.3298852 C50.6496446,52.2586881 50.720682,52.2586881 50.720682,52.1874909 C50.7917193,52.1162938 50.7917193,52.0450967 50.8627567,51.9738996 C50.9337941,51.9027025 50.8627567,51.8315053 50.7917193,51.7603082 C51.0048314,51.4755197 51.2889809,51.2619283 51.5731304,51.1195341 L51.5731304,51.1195341 C51.9993546,50.9059427 52.4255788,50.6211542 52.8518031,50.4075629 C52.9228404,50.3363658 52.9938778,50.2651686 53.0649152,50.2651686 C52.4255788,50.47876 51.8572799,50.7635485 51.2889809,51.1195341 C51.2889809,51.1195341 51.1469062,51.1907312 51.0758688,51.1907312 C51.0758688,51.1907312 50.9337941,51.2619283 50.7917193,51.1195341 L50.7917193,51.048337 C50.9337941,50.8347456 51.2179436,50.6923514 51.502093,50.47876 C51.6441678,50.47876 51.7152051,50.47876 51.7152051,50.6211542 C55.338111,47.7732693 60.2396895,48.4852406 64.4308943,46.990101 C64.7860812,46.7765096 65.141268,46.5629182 65.4254175,46.2781298 C65.9937164,46.0645384 66.4199407,45.4949614 67.1303144,45.1389758 C68.0538002,44.4270046 68.6931365,43.6438362 69.0483233,42.5758794 C69.0483233,42.4334851 68.9062486,42.362288 68.9062486,42.362288 C67.4144638,43.9286247 65.7806043,45.2101729 63.9336327,46.0645384 C61.5893995,47.2748895 58.9610168,47.0612981 56.4747089,47.4172837 C56.6167836,47.2036924 56.8298958,47.2036924 57.0430079,47.2036924 C57.0430079,46.8477067 57.25612,46.7765096 57.4692321,46.4917211 C57.6113068,46.4917211 57.6823442,46.4917211 57.8244189,46.4917211 C57.9664937,46.4917211 57.9664937,46.2781298 58.037531,46.2781298 C58.2506432,46.2781298 58.60583,46.1357355 58.4637553,46.1357355 C58.1085684,45.7085528 57.4692321,46.4917211 56.9009331,46.1357355 C57.1140452,45.9221441 57.0430079,45.5661585 57.25612,45.4237643 C57.3981947,45.4237643 57.6113068,45.4237643 57.6823442,45.4237643 C57.6823442,45.2101729 57.8954563,44.9965815 57.8954563,44.9965815 C59.6003532,43.9998218 61.1631753,43.2166535 62.7259974,42.2910909 C62.3708106,42.2910909 62.1576985,42.6470765 61.8025116,42.4334851 C62.0156237,42.4334851 61.8025116,42.0774995 62.0156237,42.0774995 C63.223259,41.7215139 64.2888196,41.0807398 65.4964549,40.5823599 C65.0702306,40.5823599 64.7150438,40.9383456 64.2888196,40.5823599 C64.5019317,40.4399657 64.6440064,40.2263743 64.9991933,40.2263743 C64.9991933,40.0839801 64.9991933,40.012783 64.9991933,39.8703887 C64.9991933,39.7279945 65.141268,39.7279945 65.2123054,39.7279945 C65.0702306,39.7279945 64.9991933,39.5856002 64.9991933,39.5856002 C65.141268,39.3720089 65.4254175,39.443206 65.709567,39.2296146 C65.5674922,39.2296146 65.3543801,39.2296146 65.3543801,39.0872204 C65.709567,38.6600376 66.2778659,38.5176434 66.8461649,38.3752491 C66.7040901,38.1616578 66.4199407,38.3752491 66.4199407,38.1616578 C66.4199407,38.0192635 66.5620154,38.0192635 66.6330528,38.0192635 C66.490978,38.0192635 66.490978,38.0192635 66.4199407,38.0192635 C66.2068286,37.8768693 66.2778659,37.6632779 66.2778659,37.5920808 C66.9882396,36.8089124 66.9882396,35.8121527 67.2723891,34.8865901 C67.1303144,34.8865901 67.059277,34.8865901 67.059277,34.7441959 C65.9226791,35.954547 64.1467448,36.4529268 62.441848,36.8801096 C62.2997732,36.8801096 62.0156237,36.8801096 61.873549,36.8801096 C61.30525,37.0937009 60.523839,37.0937009 59.95554,36.7377153 C59.5293158,36.5241239 59.2451663,36.1681383 58.8189421,35.8121527 C57.8954563,35.2425757 57.0430079,34.815393 55.9774473,34.4594074 C53.1359525,33.5338448 50.2234204,33.1066621 47.3108882,33.2490563 C48.5185235,32.5370851 49.9392709,32.5370851 51.2179436,32.1099023 C53.1359525,31.5403254 54.9118868,30.8995513 56.9719705,30.9707484 C56.6167836,30.8283541 56.1905594,30.9707484 55.8353726,30.9707484 C54.2725504,30.8283541 52.7097283,31.326734 51.0048314,31.6827196 C49.8682335,31.896311 48.8737104,32.3946908 47.7371124,32.6082822 C47.0267387,32.8218736 46.7425893,33.5338448 45.9611782,33.3914505 C45.9611782,33.3914505 45.9611782,33.1778592 45.9611782,33.0354649 C47.0977761,31.6827196 48.4474861,30.3299743 50.2234204,30.18758 C52.2835041,29.8315944 54.1304757,30.18758 56.1905594,30.4011714 C57.6823442,30.5435656 59.0320542,30.8283541 60.4528016,31.1843397 C61.0211006,31.1843397 61.1631753,32.1099023 61.5893995,32.1810995 C62.2997732,32.3946908 62.9391096,32.1810995 63.6494832,32.6082822 C63.6494832,32.3946908 63.5074085,32.1810995 63.6494832,31.896311 C64.0757075,31.4691282 64.6440064,32.0387052 65.141268,31.7539167 C66.0647538,31.1843397 64.3598569,30.18758 63.9336327,29.4044117 C63.9336327,29.2620174 64.0757075,29.1908203 64.0757075,29.1908203 C64.9991933,29.9739887 65.6385296,30.8995513 66.7751275,31.4691282 C67.3434265,31.6827196 68.6931365,32.0387052 68.4800244,31.326734 C67.9117254,30.1163829 66.7751275,29.0484261 65.9226791,27.9092721 C65.9226791,27.7668779 65.9226791,27.5532865 65.9226791,27.4820894 C65.709567,27.4820894 65.709567,27.3396951 65.5674922,27.268498 C65.5674922,27.1261037 65.5674922,26.9125124 65.5674922,26.8413153 C65.141268,26.6277239 65.2123054,26.129344 64.9991933,25.8445555 C64.6440064,25.2749786 64.8571185,24.4918102 64.6440064,23.779839 C64.4308943,23.0678678 64.2888196,22.5694879 64.2177822,21.8575167 C63.8625954,19.9351944 63.4363711,18.2264634 63.223259,16.4465353 C63.0101469,14.3106217 64.4308943,12.6018907 65.4964549,10.6795684 C66.2778659,9.32682307 67.2013517,7.97407774 68.6220991,7.04851515 C68.977286,5.69576982 69.8297344,4.55661585 70.7532202,3.41746189 C71.676706,2.34950505 73.1684908,1.63753382 74.2340513,1.13915396 C75.7968735,0.427182736 77.2176209,6.22640542e-15 77.2176209,6.22640542e-15 L-6.22640542e-15,6.22640542e-15 L-6.22640542e-15,59.7343859 L54.6987747,59.7343859 C56.8298958,58.1680492 58.9610168,57.456078 61.9445864,55.9609384 C63.3653338,55.4625586 66.6330528,53.967419 67.6986133,52.8994622 Z M50.4365325,44.7829902 C50.2234204,44.7829902 49.7261588,44.9253844 49.8682335,44.6405959 C50.0103083,44.071019 50.7917193,44.071019 51.2179436,43.8574276 C51.4310557,43.7150333 51.7862425,43.501442 51.9993546,43.6438362 C52.2124667,43.9998218 52.5676536,43.8574276 52.7807657,44.071019 C52.070392,44.7829902 51.2179436,44.4270046 50.4365325,44.7829902 Z M33.1744516,42.2910909 C33.1744516,42.2910909 33.0323769,42.1486966 33.0323769,42.0774995 C34.5241617,40.1551772 35.5897222,38.3752491 36.6552828,36.3105326 C38.1470675,35.5273642 39.3547028,34.3882103 40.4913007,33.1778592 C42.4093097,31.1131426 44.3983561,29.3332146 46.8136266,28.1940606 C47.7371124,27.838075 48.8737104,27.9804692 49.7261588,28.3364548 C49.3709719,28.7636376 48.802673,28.6924404 48.3764488,29.0484261 C48.234374,29.0484261 48.1633367,29.0484261 48.0212619,28.9060318 C48.1633367,28.7636376 48.1633367,28.6924404 48.1633367,28.5500462 C47.0267387,29.7603973 45.4639166,30.3299743 44.5404308,31.8251138 C43.8300571,32.9642678 43.4038329,34.3882103 41.9830855,34.7441959 C41.5568613,34.8865901 42.1251602,34.3882103 41.8410108,34.5306045 C38.3601796,36.6665182 35.8738717,39.2296146 33.1744516,42.2910909 Z M42.5513844,34.8865901 C42.4093097,35.1001815 42.3382723,35.1713786 42.1961976,35.3137729 C42.0541229,35.5273642 41.9830855,35.6697585 41.7699734,35.7409556 C41.6278986,35.7409556 41.5568613,35.7409556 41.5568613,35.5985614 C41.698936,35.1713786 41.9830855,34.6729988 42.4803471,34.6018016 C42.5513844,34.6018016 42.5513844,34.7441959 42.5513844,34.8865901 Z M47.7371124,51.7603082 C47.6660751,51.9027025 47.5950377,51.9738996 47.452963,52.1162938 C47.5950377,52.1162938 47.6660751,52.1874909 47.5950377,52.2586881 C47.3108882,52.4722794 47.0977761,52.7570679 46.7425893,52.828265 C46.7425893,52.828265 46.6715519,52.828265 46.6005145,52.828265 C46.4584398,52.9706593 46.316365,53.1130535 46.1742903,53.2554478 C46.0322156,53.397842 45.3928792,53.2554478 45.6059913,53.1130535 C45.8901408,52.828265 46.1742903,52.6146737 46.4584398,52.3298852 C46.6005145,52.1874909 46.8136266,52.0450967 46.9557014,51.9027025 C47.0267387,51.8315053 47.0977761,51.6891111 47.1688135,51.617914 C47.2398508,51.617914 47.8791872,51.5467168 47.7371124,51.7603082 Z M45.7480661,50.8347456 L45.7480661,50.8347456 C45.3218419,51.1195341 44.8956176,51.4755197 44.4693934,51.6891111 C43.9721318,51.9738996 43.4748703,52.1874909 42.9776087,52.4010823 L42.9776087,52.4010823 C42.9065713,52.3298852 42.8355339,52.3298852 42.7644966,52.3298852 C42.3382723,52.5434766 41.9830855,52.8994622 41.6278986,53.1842507 C41.5568613,53.2554478 41.5568613,53.2554478 41.4858239,53.3266449 L41.4858239,53.3266449 L41.4858239,53.3266449 C41.4147865,53.397842 41.3437492,53.397842 41.3437492,53.4690391 L41.3437492,53.4690391 L41.3437492,53.4690391 C41.2727118,53.5402363 41.2016744,53.6114334 41.1306371,53.7538276 C41.0595997,53.8250248 41.0595997,53.8962219 40.9885623,53.8962219 C40.9175249,53.967419 40.7044128,53.967419 40.7754502,53.8250248 L40.7754502,53.8250248 C40.7044128,53.8250248 40.6333755,53.8962219 40.5623381,53.8962219 C40.4913007,53.8962219 40.4202634,53.967419 40.4202634,53.967419 L40.349226,53.967419 L40.2781886,53.967419 C40.1361139,54.1098133 39.9940391,54.1810104 39.8519644,54.3234046 C39.6388523,54.536996 39.4257402,54.7505874 39.2126281,55.0353758 L39.2126281,55.0353758 L39.2126281,55.0353758 C39.2126281,55.0353758 39.2126281,55.0353758 39.2126281,55.106573 C39.2126281,55.106573 39.2126281,55.106573 39.1415907,55.1777701 L39.1415907,55.1777701 C39.1415907,55.2489672 39.0705533,55.2489672 39.0705533,55.3201643 L39.0705533,55.3201643 L38.999516,55.3913615 C38.999516,55.3913615 38.999516,55.3201643 38.9284786,55.3201643 L38.9284786,55.2489672 C38.9284786,55.1777701 38.8574412,55.106573 38.8574412,55.0353758 L38.8574412,55.0353758 L38.8574412,54.9641787 C38.999516,54.8217845 39.0705533,54.6793902 39.2126281,54.536996 L39.2126281,54.536996 C39.2836654,54.4657989 39.2836654,54.4657989 39.3547028,54.3946017 C39.4257402,54.3234046 39.4967776,54.2522075 39.5678149,54.1810104 L39.6388523,54.1098133 C39.780927,53.967419 39.8519644,53.8250248 39.9940391,53.6114334 L39.9940391,53.6114334 C39.9940391,53.6114334 39.9940391,53.5402363 40.0650765,53.5402363 C40.1361139,53.4690391 40.1361139,53.397842 40.2071512,53.3266449 C40.2781886,53.2554478 40.2781886,53.1842507 40.349226,53.1130535 L40.349226,53.1130535 L40.349226,53.1130535 C40.349226,53.1130535 40.349226,53.1130535 40.349226,53.0418564 C40.4202634,52.9706593 40.4202634,52.8994622 40.4913007,52.7570679 L40.4913007,52.7570679 L40.4913007,52.6858708 C40.4913007,52.6146737 40.4913007,52.6146737 40.4913007,52.5434766 L40.4913007,52.5434766 L40.4913007,52.5434766 C40.4913007,52.4722794 40.4913007,52.4010823 40.5623381,52.4010823 L40.5623381,52.3298852 C40.7044128,52.1162938 40.8464876,51.9027025 40.9885623,51.6891111 C40.9885623,51.6891111 40.9885623,51.6891111 40.9175249,51.6891111 C40.7754502,51.7603082 40.6333755,51.9027025 40.4913007,52.0450967 C40.349226,52.1162938 40.1361139,51.9738996 40.2781886,51.9027025 C40.349226,51.8315053 40.4202634,51.7603082 40.5623381,51.6891111 L40.5623381,51.6891111 C40.7754502,51.4755197 40.9175249,51.2619283 41.1306371,51.1195341 C41.2727118,51.048337 41.3437492,50.9771399 41.4858239,50.8347456 C41.4858239,50.8347456 41.4858239,50.8347456 41.5568613,50.7635485 C41.6278986,50.6923514 41.698936,50.5499571 41.8410108,50.47876 L41.8410108,50.47876 C42.9065713,49.4108032 44.7535429,49.4820003 46.1742903,48.8412262 C46.7425893,48.6276348 47.3819256,48.9836204 47.9502245,48.8412262 C48.3054114,48.8412262 48.6605982,48.8412262 48.9447477,49.0548175 C47.5950377,49.6243945 46.6715519,50.2651686 45.7480661,50.8347456 Z M48.0212619,43.0030621 C47.8791872,42.8606679 48.3764488,43.0030621 48.4474861,42.7894707 C48.0922993,42.7894707 47.8791872,42.7894707 47.5240003,42.7894707 C47.3819256,42.7894707 47.3819256,42.6470765 47.3819256,42.5758794 C46.8136266,42.7182736 46.1742903,42.931865 45.6059913,43.0030621 C44.8245803,43.2166535 44.1142066,43.7862305 43.2617581,43.9998218 C42.0541229,44.4270046 40.9885623,45.4949614 39.6388523,45.9221441 C39.4967776,45.9221441 39.4967776,45.7797499 39.4967776,45.7085528 C39.6388523,45.3525672 40.0650765,45.28137 40.2781886,44.9253844 C40.2781886,44.7829902 40.2781886,44.7117931 40.1361139,44.7117931 C41.0595997,43.501442 42.267235,42.7894707 43.4038329,41.792711 C43.4038329,41.6503168 43.4038329,41.5791197 43.4038329,41.4367254 C43.7590197,41.0095427 44.3273187,40.7247542 44.5404308,40.2263743 C44.6825055,39.8703887 45.1087298,39.443206 45.6770287,39.2296146 C45.534954,39.0872204 45.3218419,39.0872204 45.3218419,38.873629 C44.8956176,38.873629 44.3983561,39.0872204 43.9721318,38.7312348 C44.185244,38.5176434 44.3983561,38.3752491 44.6825055,38.304052 C44.6114682,38.304052 44.4693934,38.2328549 44.3983561,38.1616578 C44.2562813,37.9480664 44.6114682,37.6632779 44.966655,37.5920808 C45.3928792,37.4496865 45.9611782,37.4496865 46.316365,37.1648981 C45.534954,37.0225038 44.6114682,37.3784894 43.8300571,36.9513067 C44.3983561,35.4561671 45.3218419,34.245816 46.6715519,33.5338448 C46.8136266,33.5338448 47.0267387,33.5338448 47.0267387,33.676239 C47.0267387,34.245816 46.6715519,34.6729988 46.1032529,34.815393 C47.0267387,35.0289844 47.8791872,35.0289844 48.802673,35.5273642 C48.6605982,35.7409556 48.4474861,35.6697585 48.3764488,35.6697585 C48.9447477,36.0257441 49.584084,35.8121527 50.152383,36.2393355 C49.7971962,36.5953211 49.4420093,36.2393355 49.1578598,36.2393355 C52.6386909,37.2360952 56.3326342,38.0192635 59.3162037,40.2975714 C56.8298958,41.5079225 54.2725504,42.0774995 51.5731304,42.6470765 C51.2179436,42.6470765 51.0048314,42.6470765 50.6496446,42.5046823 C50.6496446,42.6470765 50.6496446,42.8606679 50.5075699,42.8606679 C50.0813456,42.8606679 49.7261588,42.8606679 49.3709719,43.0742592 C49.0868225,43.2166535 48.3764488,43.2878506 48.0212619,43.0030621 Z" id="Shape" fill="#000091"></path>
                <path d="M164.633795,6.22640542e-15 L100.178346,6.22640542e-15 C100.178346,6.22640542e-15 100.321263,6.22640542e-15 100.821472,0.284111229 C101.32168,0.568222458 102.036264,0.923361495 102.465014,1.13644492 C103.322515,1.56261176 104.108557,2.13083422 104.608765,2.9121401 C104.82314,3.26727914 105.180432,3.9065294 104.966057,4.40372405 C104.751682,4.97194651 104.608765,5.89530801 104.037098,6.10839143 C103.322515,6.46353047 102.465014,6.46353047 101.678972,6.32147485 C101.250222,6.32147485 100.750013,6.17941924 100.321263,6.10839143 C102.036264,6.8186695 103.608348,7.59997538 104.751682,9.16258714 C104.894599,9.37567056 105.323349,9.51772618 105.752099,9.51772618 C105.895016,9.51772618 105.895016,9.7308096 105.895016,9.87286522 C105.680641,10.0859486 105.466266,10.2280043 105.537724,10.5831433 C105.680641,10.5831433 105.752099,10.5831433 105.895016,10.5831433 C106.466683,10.3700599 106.323766,9.23361495 107.109808,9.58875399 C107.681475,9.94389302 107.89585,10.7251989 107.538559,11.2934214 C107.109808,11.7195882 106.6096,12.0747272 106.18085,12.4298663 C106.037933,12.6429497 106.037933,12.9980887 106.18085,13.2111722 C106.538141,13.637339 106.6096,14.1345337 106.752516,14.5607005 C107.109808,15.3420064 107.181267,16.2653679 107.538559,17.0466738 C107.967309,18.7513411 108.467517,20.4560085 108.324601,22.0896481 C108.324601,23.0130096 107.89585,23.7943154 108.181684,24.6466491 C108.396059,25.5700106 108.967726,26.2092609 109.396476,26.9905668 C109.825226,27.7008449 110.325435,28.1270117 110.611268,28.766262 C111.325852,29.9027069 112.540644,31.0391518 111.968977,32.3886801 C111.611686,33.169986 110.396893,33.0989582 109.610851,33.5251251 C108.896268,34.0933475 109.467934,35.016709 109.825226,35.5849315 C110.396893,36.5793208 109.110643,37.2895988 108.324601,37.6447379 C108.538976,37.9998769 109.039184,37.8578213 109.110643,38.0709047 C109.253559,38.6391272 109.825226,38.9942662 109.467934,39.5624887 C109.039184,40.2727667 107.681475,40.556878 108.324601,41.6222951 C108.753351,42.403601 108.467517,43.2559347 108.181684,44.1082683 C107.824392,45.1026576 106.966892,45.5998523 106.109391,45.8129357 C105.394807,46.0260191 104.608765,46.0260191 103.96564,45.9549913 C103.751265,45.8129357 103.53689,45.7419079 103.251056,45.7419079 C101.32168,45.5288245 99.3923044,44.960602 97.4629285,44.960602 C96.8912615,45.1026576 96.3195946,45.1736854 95.8908444,45.3867689 C95.3906358,45.7419079 94.8904272,46.1680748 94.5331353,46.5942416 L94.5331353,46.5942416 C94.461677,46.6652694 94.3902186,46.807325 94.3187602,46.8783528 C94.2473019,46.9493806 94.2473019,47.0204084 94.1758435,47.0204084 C94.1758435,47.0914362 94.1043851,47.0914362 94.1043851,47.1624641 C93.7470933,47.5886309 93.4612598,48.0147977 93.2468847,48.4409646 C93.2468847,48.4409646 93.2468847,48.5119924 93.1754263,48.5119924 C93.1754263,48.5830202 93.103968,48.5830202 93.103968,48.654048 C92.7466761,49.3643261 92.4608426,50.0035763 92.2464675,50.7138544 C91.4604255,53.2708555 91.8177173,55.4727175 92.3179259,56.04094 C92.4608426,56.1829956 96.0337611,57.3194405 98.534804,58.3848576 C99.6781379,58.8820523 100.535638,59.3082191 101.178764,59.7343859 L164.490879,59.7343859 L164.490879,6.22640542e-15 L164.633795,6.22640542e-15 Z" id="Path" fill="#E1000F"></path>
            </g>
            <path d="M104.883925,22.8263519 C105.305408,22.9537076 106.00788,22.9537076 106.00788,23.1447412 C105.797138,23.9725534 104.462442,24.1635869 103.759971,24.9913991 L103.408735,24.9913991 C103.057499,25.1824327 103.197993,25.6918555 102.846757,25.6918555 C102.495521,25.5644998 102.144286,25.6918555 101.863297,25.8192113 C102.28478,26.2012784 102.846757,26.5196677 103.549229,26.4559898 C103.689723,26.4559898 103.900465,26.6470234 103.900465,26.838057 C103.900465,26.838057 104.040959,26.838057 104.111206,26.7107013 C104.251701,26.7107013 104.321948,26.7107013 104.321948,26.838057 L104.321948,27.2201241 C103.970712,27.6021913 103.408735,27.4111577 102.987252,27.5385134 C103.900465,27.729547 104.743431,27.729547 105.51615,27.5385134 C106.218621,27.3474799 105.51615,26.3286341 105.937633,25.8192113 C105.726891,25.8192113 105.937633,25.500822 105.726891,25.500822 C105.937633,25.3097884 106.148374,24.9913991 106.429363,24.8640434 C106.640104,24.8640434 106.99134,24.7366877 107.131835,24.5456541 C107.131835,24.3546205 106.710352,24.2272648 106.780599,24.0362312 C107.48307,23.6541641 107.974801,23.0173855 107.764059,22.4442848 C107.623565,22.1258955 106.780599,22.1258955 106.218621,21.9348619 C105.656644,21.7438283 105.02442,21.9348619 104.321948,22.0622176 C103.759971,22.0622176 103.197993,22.3806069 102.636016,22.4442848 C101.863297,22.6353183 101.160825,23.0810633 100.528601,23.4631305 C101.30132,23.1447412 102.074038,23.0810633 102.987252,22.8263519 C103.619476,22.8263519 104.181454,22.6353183 104.883925,22.8263519 Z" id="Path" fill="#9D9D9C" fill-rule="nonzero"></path>
            <rect id="Rectangle" x="0" y="0" width="488.073641" height="338.009208"></rect>
        </g>
    </g>
</svg>